<svg width="76" height="80" viewBox="0 0 76 80" fill="none" xmlns="http://www.w3.org/2000/svg">
<path d="M59.5915 52.408C58.5515 52.8323 57.6909 53.6041 57.1562 54.5919C56.6215 55.5796 56.4458 56.7222 56.6591 57.8249C56.8723 58.9277 57.4613 59.9224 58.3258 60.6395C59.1902 61.3567 60.2765 61.752 61.3996 61.758C62.5228 61.7641 63.6133 61.3805 64.4854 60.6727C65.3575 59.9649 65.9572 58.9766 66.1823 57.8762C66.4074 56.7758 66.244 55.6314 65.72 54.6379C65.1959 53.6445 64.3436 52.8635 63.3083 52.428C62.7209 52.179 62.0899 52.049 61.4519 52.0455C60.8139 52.0421 60.1815 52.1653 59.5915 52.408ZM64.1852 55.7786C64.4462 56.4189 64.4769 57.13 64.2723 57.7905C64.0676 58.451 63.6403 59.0201 63.063 59.4007C62.4857 59.7814 61.7943 59.9501 61.1066 59.878C60.4189 59.806 59.7774 59.4976 59.2916 59.0056C58.8058 58.5135 58.5057 57.8682 58.4424 57.1796C58.3791 56.491 58.5566 55.8018 58.9447 55.2295C59.3327 54.6571 59.9072 54.237 60.5702 54.0408C61.2333 53.8447 61.9439 53.8845 62.5808 54.1536C62.9429 54.3046 63.2714 54.526 63.5473 54.8049C63.8231 55.0839 64.0408 55.4148 64.1877 55.7786H64.1852ZM8.86647 39.5917C8.63801 38.7354 8.16074 37.9661 7.49502 37.3811C6.82929 36.796 6.00502 36.4215 5.12646 36.305C4.2479 36.1885 3.35451 36.3351 2.55928 36.7263C1.76406 37.1176 1.10272 37.7359 0.658911 38.503C0.215105 39.2701 0.00876643 40.1516 0.0659934 41.036C0.12322 41.9205 0.441442 42.768 0.98041 43.4716C1.51938 44.1751 2.25488 44.703 3.0939 44.9885C3.93291 45.274 4.83775 45.3043 5.69397 45.0755C6.84136 44.7682 7.81991 44.0181 8.41473 42.9899C9.00955 41.9618 9.17202 40.7396 8.86647 39.5917ZM5.21022 43.2642C4.71239 43.3973 4.18629 43.3797 3.69844 43.2138C3.2106 43.0478 2.78294 42.7409 2.46955 42.3318C2.15617 41.9228 1.97115 41.4299 1.93789 40.9157C1.90463 40.4015 2.02463 39.8889 2.28271 39.4429C2.54079 38.9969 2.92535 38.6375 3.38775 38.41C3.85015 38.1826 4.36962 38.0974 4.88044 38.1653C5.39125 38.2331 5.87048 38.4509 6.25748 38.7912C6.64448 39.1314 6.92189 39.5788 7.05459 40.0767C7.14532 40.4071 7.16947 40.7523 7.12563 41.0921C7.0818 41.432 6.97085 41.7597 6.79923 42.0563C6.62762 42.3529 6.39877 42.6124 6.12598 42.8198C5.85319 43.0271 5.54191 43.1782 5.21022 43.2642ZM74.8127 41.5055C74.5194 40.7858 73.9857 40.1902 73.3024 39.82C72.6192 39.4498 71.8287 39.3279 71.0657 39.4752C70.3027 39.6225 69.6144 40.0299 69.118 40.6278C68.6217 41.2257 68.348 41.9772 68.3437 42.7543C68.3393 43.5314 68.6046 44.2859 69.0942 44.8894C69.5838 45.4928 70.2675 45.9078 71.0289 46.0636C71.7902 46.2195 72.582 46.1065 73.2693 45.7439C73.9566 45.3814 74.497 44.7918 74.7983 44.0755C74.9705 43.6693 75.0605 43.233 75.0629 42.7919C75.0654 42.3508 74.9804 41.9135 74.8127 41.5055ZM73.0696 43.348C72.9363 43.664 72.6976 43.924 72.3942 44.0837C72.0907 44.2434 71.7412 44.293 71.4053 44.224C71.0694 44.155 70.7678 43.9717 70.5519 43.7053C70.3359 43.4389 70.2191 43.1058 70.2211 42.7629C70.2232 42.42 70.3441 42.0884 70.5632 41.8246C70.7824 41.5608 71.0862 41.3811 71.4229 41.3162C71.7597 41.2512 72.1085 41.3051 72.41 41.4685C72.7115 41.6319 72.947 41.8948 73.0765 42.2123C73.1507 42.3927 73.1883 42.5861 73.1871 42.7812C73.186 42.9762 73.146 43.1685 73.0696 43.348ZM5.41209 30.6698C6.11357 30.6696 6.79737 30.4497 7.36749 30.041C7.93761 29.6323 8.36543 29.0553 8.59089 28.391C8.81635 27.7268 8.82813 27.0086 8.62458 26.3373C8.42104 25.666 8.01238 25.0753 7.45597 24.6481C6.89957 24.2209 6.22335 23.9787 5.52226 23.9554C4.82116 23.9322 4.13039 24.1291 3.5469 24.5184C2.96341 24.9078 2.51651 25.4702 2.26893 26.1265C2.02135 26.7828 1.98552 27.5002 2.16647 28.178C2.35772 28.8927 2.77948 29.5243 3.36631 29.9748C3.95314 30.4254 4.67225 30.6697 5.41209 30.6698ZM5.02834 25.8755C5.21655 25.825 5.41287 25.8121 5.60606 25.8376C5.79925 25.8631 5.98551 25.9264 6.15417 26.024C6.32283 26.1216 6.47058 26.2515 6.58895 26.4063C6.70731 26.5611 6.79398 26.7377 6.84397 26.9261C6.91957 27.2095 6.90945 27.509 6.81487 27.7866C6.72029 28.0643 6.5455 28.3076 6.31261 28.486C6.07972 28.6643 5.79918 28.7695 5.50647 28.7884C5.21376 28.8073 4.92202 28.739 4.66814 28.5921C4.41426 28.4452 4.20964 28.2263 4.08016 27.9631C3.95068 27.6999 3.90215 27.4042 3.9407 27.1134C3.97926 26.8227 4.10317 26.5499 4.29676 26.3295C4.49036 26.1091 4.74495 25.9511 5.02834 25.8755ZM12.6502 62.2155C13.0814 62.4658 13.571 62.598 14.0696 62.5986C14.5056 62.5983 14.9358 62.4978 15.3268 62.3049C15.7179 62.1121 16.0594 61.832 16.3252 61.4863C16.5909 61.1406 16.7736 60.7384 16.8593 60.3109C16.9451 59.8834 16.9315 59.4419 16.8196 59.0205C16.6989 58.5688 16.4686 58.1539 16.1493 57.8125C15.8299 57.471 15.4313 57.2136 14.9887 57.063C14.5461 56.9124 14.0732 56.8733 13.6119 56.9491C13.1505 57.0249 12.715 57.2133 12.3439 57.4976C11.9728 57.7819 11.6775 58.1534 11.4842 58.5791C11.2909 59.0048 11.2055 59.4715 11.2357 59.9381C11.2659 60.4046 11.4106 60.8565 11.6571 61.2538C11.9036 61.651 12.2443 61.9813 12.649 62.2155H12.6502ZM13.2352 59.2686C13.2989 59.1584 13.3837 59.0619 13.4847 58.9846C13.5857 58.9073 13.701 58.8507 13.824 58.818C13.9056 58.7966 13.9896 58.7857 14.074 58.7855C14.2868 58.7861 14.4936 58.857 14.6621 58.9871C14.8306 59.1172 14.9515 59.2992 15.006 59.505C15.0606 59.7107 15.0458 59.9288 14.9639 60.1252C14.882 60.3217 14.7375 60.4857 14.553 60.5918C14.3684 60.6979 14.154 60.7401 13.943 60.712C13.732 60.6838 13.5361 60.5869 13.3858 60.4362C13.2355 60.2854 13.1391 60.0893 13.1115 59.8782C13.0839 59.6672 13.1268 59.4529 13.2333 59.2686H13.2352ZM69.6715 25.3298C70.4729 25.6668 71.3753 25.6717 72.1803 25.3435C72.9853 25.0154 73.6271 24.381 73.9646 23.5798C74.2161 22.9823 74.2847 22.3235 74.1618 21.6869C74.0388 21.0503 73.7299 20.4645 73.2741 20.0035C72.8182 19.5425 72.2359 19.227 71.6007 19.0969C70.9655 18.9669 70.3061 19.0281 69.7057 19.2728C69.1053 19.5175 68.591 19.9348 68.2277 20.4718C67.8645 21.0089 67.6687 21.6416 67.665 22.2899C67.6613 22.9382 67.85 23.5731 68.2072 24.1142C68.5643 24.6553 69.0739 25.0783 69.6715 25.3298ZM69.6496 21.7636C69.7206 21.5935 69.8246 21.4392 69.9556 21.3095C70.0866 21.1798 70.2419 21.0773 70.4127 21.008C70.5812 20.9393 70.7614 20.9039 70.9433 20.9036C71.2452 20.9033 71.539 21.0003 71.7815 21.18C72.0239 21.3598 72.202 21.6129 72.2894 21.9017C72.3768 22.1906 72.3688 22.5 72.2667 22.784C72.1646 23.068 71.9737 23.3116 71.7224 23.4787C71.471 23.6457 71.1726 23.7274 70.8711 23.7117C70.5697 23.6959 70.2814 23.5835 70.0489 23.3911C69.8164 23.1987 69.652 22.9365 69.5801 22.6434C69.5081 22.3503 69.5325 22.0418 69.6496 21.7636ZM38.0002 44.0842C38.8702 44.0553 39.6998 43.71 40.3333 43.113C40.4295 43.0335 40.5088 42.9357 40.5666 42.8252C40.6244 42.7147 40.6596 42.5938 40.6702 42.4696C40.6807 42.3453 40.6664 42.2202 40.6279 42.1016C40.5895 41.983 40.5278 41.8732 40.4465 41.7787C40.3651 41.6842 40.2657 41.6069 40.1541 41.5513C40.0425 41.4957 39.9209 41.4629 39.7965 41.4548C39.6721 41.4468 39.5473 41.4637 39.4294 41.5044C39.3116 41.5452 39.2031 41.6091 39.1102 41.6923C38.9739 41.8539 38.8039 41.9837 38.6122 42.0728C38.4205 42.1619 38.2116 42.208 38.0002 42.208C37.7888 42.208 37.58 42.1619 37.3883 42.0728C37.1965 41.9837 37.0266 41.8539 36.8902 41.6923C36.7974 41.6091 36.6889 41.5452 36.571 41.5044C36.4532 41.4637 36.3284 41.4468 36.2039 41.4548C36.0795 41.4629 35.9579 41.4957 35.8463 41.5513C35.7347 41.6069 35.6353 41.6842 35.5539 41.7787C35.4726 41.8732 35.4109 41.983 35.3725 42.1016C35.3341 42.2202 35.3197 42.3453 35.3303 42.4696C35.3408 42.5938 35.376 42.7147 35.4338 42.8252C35.4917 42.9357 35.571 43.0335 35.6671 43.113C36.3006 43.71 37.1302 44.0553 38.0002 44.0842ZM42.5052 47.2755H42.494C41.7991 47.4153 41.0852 47.4339 40.384 47.3305C40.209 47.3048 40.0383 47.2711 39.834 47.2317C39.5421 47.164 39.2404 47.1494 38.9433 47.1886C38.6325 47.2433 38.3371 47.3641 38.0771 47.543C38.0538 47.5568 38.0273 47.5641 38.0002 47.5641C37.9732 47.5641 37.9466 47.5568 37.9233 47.543C37.6633 47.3641 37.3679 47.2433 37.0571 47.1886C36.76 47.1494 36.4583 47.164 36.1665 47.2317C35.9627 47.2711 35.7915 47.3048 35.6165 47.3305C34.9154 47.4339 34.2018 47.4153 33.5071 47.2755H33.4952C33.3322 47.2434 33.1631 47.2728 33.0204 47.358C32.8778 47.4433 32.7718 47.5783 32.7228 47.737C32.6738 47.8958 32.6853 48.0671 32.7551 48.2179C32.8249 48.3686 32.9481 48.4882 33.1008 48.5536C33.9375 48.9173 34.8439 49.0927 35.7558 49.0673C35.9821 49.0611 36.2108 49.0423 36.4052 49.0273C36.5877 49.0111 36.6658 49.0411 36.9371 49.2005C37.2367 49.3828 37.5795 49.482 37.9302 49.488H38.0702C38.4209 49.482 38.7637 49.3828 39.0633 49.2005C39.3346 49.0411 39.4127 49.013 39.5952 49.0273C39.7896 49.0423 40.0183 49.0611 40.2446 49.0673C41.1565 49.0927 42.0629 48.9173 42.8996 48.5536C43.0523 48.4882 43.1755 48.3686 43.2453 48.2179C43.3151 48.0671 43.3266 47.8958 43.2776 47.737C43.2286 47.5783 43.1226 47.4433 42.98 47.358C42.8374 47.2728 42.6682 47.2434 42.5052 47.2755ZM38.5702 50.5486C38.3947 50.6418 38.199 50.6906 38.0002 50.6906C37.8015 50.6906 37.6057 50.6418 37.4302 50.5486C37.2084 50.4544 36.9588 50.4492 36.7333 50.5342C36.5078 50.6191 36.3236 50.7877 36.2191 51.0048C36.1146 51.2219 36.0976 51.471 36.1719 51.7003C36.2461 51.9295 36.4058 52.1214 36.6177 52.2361C37.0471 52.4511 37.5207 52.563 38.0008 52.563C38.481 52.563 38.9546 52.4511 39.384 52.2361C39.5007 52.1865 39.6062 52.1138 39.694 52.0222C39.7818 51.9307 39.8501 51.8223 39.8949 51.7036C39.9396 51.585 39.9597 51.4584 39.9541 51.3317C39.9485 51.205 39.9172 51.0807 39.8622 50.9665C39.8072 50.8522 39.7296 50.7503 39.634 50.6669C39.5384 50.5835 39.427 50.5203 39.3063 50.4812C39.1856 50.4422 39.0583 50.428 38.932 50.4396C38.8057 50.4512 38.683 50.4882 38.5715 50.5486H38.5702ZM49.0058 36.9423L49.244 36.7973C49.319 36.7498 49.354 36.7192 49.4115 36.678C49.5953 36.5553 49.7906 36.4506 49.9946 36.3655C50.1772 36.2754 50.3815 36.239 50.584 36.2605L50.709 36.2742C50.7882 36.2826 50.8681 36.2694 50.9404 36.236C51.0127 36.2025 51.0745 36.1502 51.1194 36.0844C51.1643 36.0186 51.1905 35.9419 51.1953 35.8624C51.2 35.7829 51.1832 35.7036 51.1465 35.633C51.0178 35.4213 50.8392 35.2443 50.6263 35.1177C50.4134 34.9911 50.1727 34.9186 49.9252 34.9067C49.483 34.886 49.0419 34.9677 48.6365 35.1455L48.3721 35.2586L48.1777 35.348C48.044 35.4023 47.9133 35.4611 47.774 35.508C47.5052 35.618 47.2252 35.7086 46.9477 35.7961C46.4069 35.9678 45.8494 36.082 45.2846 36.1367C44.7799 36.1958 44.2684 36.1513 43.7815 36.0061L43.6902 35.9761C43.5424 35.9281 43.3825 35.933 43.2378 35.9898C43.0932 36.0467 42.9728 36.152 42.8972 36.2878C42.8216 36.4237 42.7955 36.5815 42.8235 36.7344C42.8514 36.8873 42.9315 37.0257 43.0502 37.1261C43.6924 37.6368 44.4878 37.9164 45.3083 37.9198C46.0535 37.938 46.7965 37.8313 47.5065 37.6042C47.8532 37.4946 48.1919 37.3612 48.5202 37.2048C48.6877 37.1255 48.8452 37.0317 49.0058 36.9423ZM33.1533 36.4048C33.0983 36.2358 32.9783 36.0955 32.8199 36.0149C32.6614 35.9343 32.4774 35.9199 32.3083 35.9748L32.2177 36.0042C31.7317 36.149 31.2214 36.1935 30.7177 36.1348C30.1529 36.0801 29.5954 35.9659 29.0546 35.7942C28.7771 35.7067 28.4971 35.6161 28.2283 35.5061C28.089 35.4592 27.9583 35.4005 27.8246 35.3461L27.6252 35.2567L27.3608 35.1436C26.9554 34.9658 26.5143 34.8841 26.0721 34.9048C25.8247 34.9168 25.5839 34.9892 25.371 35.1158C25.1581 35.2425 24.9795 35.4194 24.8508 35.6311C24.8104 35.7078 24.7941 35.7949 24.804 35.8811C24.817 35.9972 24.8756 36.1035 24.9669 36.1765C25.0582 36.2495 25.1747 36.2833 25.2908 36.2705L25.4158 36.2567C25.6183 36.2353 25.8226 36.2717 26.0052 36.3617C26.209 36.4468 26.4041 36.5514 26.5877 36.6742C26.6458 36.7155 26.6808 36.7461 26.7558 36.7936L26.994 36.9386C27.1546 37.028 27.314 37.1211 27.4783 37.1992C27.8066 37.3556 28.1454 37.489 28.4921 37.5986C29.2021 37.8257 29.945 37.9324 30.6902 37.9142C31.5107 37.9108 32.3062 37.6312 32.9483 37.1205C33.0492 37.0346 33.1224 36.9209 33.1589 36.7936C33.1954 36.6663 33.1934 36.5311 33.1533 36.4048Z" fill="#FE3C3B"/>
<path d="M63.1524 71.8541C61.1849 70.0322 57.5899 68.8541 54.1174 67.7097C52.2679 67.1578 50.4587 66.4793 48.7024 65.6791C45.1486 63.8759 44.9524 60.5716 44.8124 58.1591C44.8124 58.1003 44.8055 58.0509 44.8017 57.9941C46.5583 56.9373 48.1784 55.6686 49.6255 54.2166C51.6552 52.142 53.172 49.6219 54.0549 46.8572C57.1217 46.7591 60.2167 43.4859 60.703 40.5397C60.7576 40.2184 60.7914 39.894 60.8042 39.5684C61.3606 39.3592 61.8323 38.9721 62.1461 38.4672C63.2642 36.6547 62.6461 34.4753 61.9936 32.1678L61.9536 32.0284C63.3111 27.1134 62.8055 16.7097 57.3911 9.21593C53.538 3.88655 44.4136 -1.6372 38.0005 1.08905C31.5867 -1.63782 22.463 3.88593 18.6099 9.21405C13.193 16.7103 12.6874 27.1141 14.0474 32.0266L14.0074 32.1659C13.3542 34.4734 12.7367 36.6528 13.8542 38.4653C14.1683 38.9699 14.6403 39.3566 15.1967 39.5653C15.2092 39.8894 15.2429 40.2124 15.2974 40.5322C15.7842 43.4834 18.8792 46.7572 21.9461 46.8553C22.8287 49.6207 24.3456 52.1415 26.3755 54.2166C27.8235 55.6686 29.4444 56.9373 31.2017 57.9941C31.198 58.0509 31.1942 58.1003 31.1911 58.1591C31.0486 60.5716 30.8542 63.8759 27.3011 65.6791C25.5448 66.4793 23.7355 67.1578 21.8861 67.7097C18.4111 68.8509 14.8186 70.0322 12.8511 71.8541C10.8985 73.697 9.38694 75.9569 8.42924 78.4653C8.33583 78.6953 8.33748 78.953 8.43382 79.1818C8.53017 79.4107 8.71334 79.5919 8.94316 79.6859C9.17298 79.7798 9.43067 79.7787 9.65971 79.6829C9.88874 79.5871 10.0704 79.4043 10.1649 79.1747C11.0214 76.9205 12.3752 74.8885 14.1255 73.2297C15.7924 71.6853 19.3411 70.5197 22.4711 69.4909C24.4116 68.9117 26.309 68.1968 28.1492 67.3516C32.2924 65.2491 32.8424 61.4978 33.0199 58.9303C34.267 59.4917 35.5689 59.9223 36.9049 60.2153C37.6274 60.3749 38.3761 60.3749 39.0986 60.2153C40.4353 59.9218 41.738 59.491 42.9861 58.9297C43.1636 61.4972 43.7136 65.2484 47.8567 67.3509C49.697 68.1961 51.5944 68.911 53.5349 69.4903C56.6649 70.5191 60.2136 71.6847 61.8805 73.2291C63.6308 74.8878 64.9846 76.9199 65.8411 79.1741C65.9356 79.4037 66.1172 79.5864 66.3463 79.6823C66.5753 79.7781 66.833 79.7792 67.0628 79.6852C67.2926 79.5913 67.4758 79.41 67.5722 79.1812C67.6685 78.9524 67.6701 78.6947 67.5767 78.4647C66.6182 75.9563 65.1058 73.6966 63.1524 71.8541ZM56.8574 38.1878C56.8129 38.1753 56.7676 38.1663 56.7217 38.1609C56.3977 38.1308 56.0709 38.1564 55.7555 38.2366C55.778 37.9241 55.7961 37.6116 55.8124 37.2928C56.1761 37.6103 56.5244 37.9086 56.8574 38.1878ZM54.6699 44.8941C55.034 43.5129 55.3114 42.1104 55.5005 40.6947C55.8861 39.9691 56.3755 40.0072 56.5399 40.0241C56.7872 40.0479 57.034 39.9726 57.2258 39.8146C57.4177 39.6566 57.539 39.4289 57.563 39.1816C57.5784 39.0134 57.5477 38.8442 57.4742 38.6922C57.6799 38.8566 57.8861 39.0228 58.0767 39.1684C58.3321 39.3634 58.619 39.5133 58.9249 39.6116C58.9128 39.8185 58.8896 40.0246 58.8555 40.2291C58.5436 42.1284 56.583 44.4009 54.668 44.8909L54.6699 44.8941ZM55.8717 10.3128C60.1455 16.2272 61.2242 24.5522 60.5205 29.6641C60.1435 29.1431 59.7216 28.656 59.2599 28.2084C59.0757 28.0513 58.8379 27.9715 58.5962 27.9858C58.3546 28 58.1278 28.1072 57.9634 28.2849C57.7989 28.4626 57.7096 28.697 57.7141 28.939C57.7186 29.181 57.8165 29.412 57.9874 29.5834C58.8342 30.4101 59.5507 31.3605 60.1124 32.4022C60.623 33.5703 61.2374 36.3709 60.5499 37.4822C60.4733 37.6016 60.3686 37.7004 60.2449 37.7698C60.1212 37.8393 59.9823 37.8772 59.8405 37.8803C59.6163 37.8798 59.3978 37.8095 59.2155 37.6791C58.528 37.1522 57.3324 36.1822 55.5674 34.5541C53.8355 32.9628 51.8749 31.0309 49.7392 28.8122C46.6011 25.5622 43.058 21.6659 39.208 17.2397C40.9886 14.6291 39.7036 11.9066 38.6492 9.68468C38.1371 8.78097 37.7846 7.79569 37.6074 6.77218C37.5449 5.52718 38.2692 3.71405 38.6867 2.83468C44.093 0.495303 52.5449 5.71218 55.8717 10.3128ZM15.8874 32.4028C16.4486 31.361 17.1651 30.4108 18.0124 29.5847C18.1832 29.4132 18.2812 29.1823 18.2856 28.9402C18.2901 28.6982 18.2008 28.4638 18.0364 28.2861C17.8719 28.1085 17.6452 28.0013 17.4035 27.987C17.1618 27.9728 16.924 28.0526 16.7399 28.2097C16.2781 28.6573 15.8563 29.1443 15.4792 29.6653C14.7755 24.5534 15.8542 16.2278 20.128 10.3141C22.8899 6.49593 29.1811 2.2503 34.3286 2.2503C35.1452 2.24275 35.9578 2.36381 36.7367 2.60905C36.1139 3.94383 35.7735 5.39284 35.7367 6.8653C35.9105 8.13883 36.3247 9.36773 36.9574 10.4866C38.1855 13.0734 38.8724 14.8997 37.3011 16.6472L37.2892 16.6597C33.2455 21.3303 29.5324 25.4184 26.2561 28.8128C24.1217 31.0303 22.1611 32.9622 20.4274 34.5553C18.6642 36.1834 17.4711 37.1534 16.778 37.6803C16.6044 37.8118 16.392 37.8819 16.1742 37.8797C16.0297 37.8784 15.8877 37.8413 15.7609 37.7717C15.6342 37.7021 15.5267 37.6022 15.448 37.4809C14.763 36.3753 15.3755 33.5703 15.8874 32.4028ZM20.188 37.2897C20.2042 37.6066 20.2224 37.9216 20.2449 38.2334C19.9295 38.1533 19.6026 38.1277 19.2786 38.1578C19.2328 38.1632 19.1874 38.1722 19.143 38.1847C19.4767 37.9072 19.8251 37.6088 20.188 37.2897ZM17.143 40.2234C17.1092 40.0208 17.0863 39.8166 17.0742 39.6116C17.3788 39.5149 17.6646 39.367 17.9192 39.1741C18.1111 39.0272 18.3186 38.8616 18.5249 38.6953C18.4526 38.8449 18.4217 39.0111 18.4353 39.1766C18.4488 39.3422 18.5064 39.5011 18.602 39.6369C18.6976 39.7727 18.8278 39.8805 18.9791 39.9492C19.1303 40.0178 19.2972 40.0447 19.4624 40.0272C19.6255 40.0097 20.1155 39.9722 20.5011 40.6978C20.6916 42.112 20.9697 43.513 21.3336 44.8928C19.4192 44.3972 17.4567 42.1253 17.143 40.2234ZM38.688 58.3853C38.2333 58.4859 37.7621 58.4859 37.3074 58.3853C32.813 57.3928 30.0224 55.1491 27.6767 52.8722C25.7345 50.8479 24.3094 48.3848 23.5224 45.6922C23.5128 45.6551 23.5007 45.6188 23.4861 45.5834C22.9445 43.8465 22.5571 42.0653 22.3286 40.2603C22.1335 38.7285 22.0263 37.1868 22.0074 35.6428C23.6561 34.1147 25.4911 32.3047 27.4786 30.2434C29.2123 30.2415 30.9445 30.3432 32.6661 30.5478L32.698 30.5541C32.8758 30.5876 33.0597 30.5551 33.2152 30.4627C33.3708 30.3703 33.4873 30.2243 33.5429 30.0522C33.5985 29.88 33.5894 29.6935 33.5172 29.5275C33.4451 29.3616 33.3149 29.2277 33.1511 29.1509C32.3253 28.7823 31.4443 28.5525 30.5436 28.4709C30.1076 28.4266 29.6694 28.4068 29.2311 28.4116C31.9149 25.5709 34.8561 22.3159 38.0017 18.7028C41.1492 22.3159 44.0899 25.5709 46.7724 28.4116C46.3341 28.4071 45.8959 28.4269 45.4599 28.4709C44.5592 28.5525 43.6782 28.7823 42.8524 29.1509C42.6884 29.2277 42.558 29.3616 42.4858 29.5277C42.4137 29.6937 42.4045 29.8804 42.4603 30.0527C42.516 30.2249 42.6327 30.3709 42.7884 30.4633C42.9442 30.5556 43.1282 30.5879 43.3061 30.5541L43.3374 30.5478C45.0589 30.3433 46.7912 30.2419 48.5249 30.2441C50.513 32.3066 52.3486 34.1191 53.9955 35.6428C53.9766 37.1864 53.8694 38.7277 53.6742 40.2591C53.4484 42.0373 53.0686 43.7927 52.5392 45.5053C52.5111 45.5695 52.4901 45.6365 52.4767 45.7053C51.6896 48.393 50.2662 50.8513 48.3274 52.8722C45.9767 55.1484 43.188 57.3922 38.688 58.3853Z" fill="#FE3C3B"/>
<path d="M19.369 22.3629C19.5072 22.363 19.6438 22.3327 19.7689 22.2739C19.894 22.2151 20.0046 22.1294 20.0927 22.0229C20.1702 21.9291 27.9133 12.6479 33.9977 12.6479C34.2463 12.6479 34.4848 12.5491 34.6606 12.3733C34.8364 12.1974 34.9352 11.959 34.9352 11.7104C34.9352 11.4617 34.8364 11.2233 34.6606 11.0474C34.4848 10.8716 34.2463 10.7729 33.9977 10.7729C27.0402 10.7729 18.9865 20.421 18.6471 20.831C18.5347 20.9681 18.4635 21.1342 18.4417 21.3102C18.4199 21.4861 18.4484 21.6646 18.524 21.825C18.5996 21.9854 18.7191 22.121 18.8686 22.2162C19.0182 22.3114 19.1917 22.3623 19.369 22.3629ZM42.0002 12.6447C48.0765 12.6447 55.8277 21.9291 55.9052 22.0197C55.9837 22.1146 56.0801 22.1932 56.1889 22.2509C56.2977 22.3085 56.4168 22.3442 56.5394 22.3558C56.662 22.3675 56.7857 22.3548 56.9034 22.3187C57.0211 22.2825 57.1306 22.2235 57.2255 22.145C57.3204 22.0666 57.399 21.9702 57.4566 21.8614C57.5143 21.7525 57.55 21.6334 57.5616 21.5108C57.5733 21.3882 57.5606 21.2645 57.5245 21.1468C57.4883 21.0291 57.4293 20.9196 57.3508 20.8247C57.0115 20.4147 48.9577 10.7666 42.0002 10.7666C41.7516 10.7666 41.5131 10.8654 41.3373 11.0412C41.1615 11.217 41.0627 11.4555 41.0627 11.7041C41.0627 11.9527 41.1615 12.1912 41.3373 12.367C41.5131 12.5428 41.7516 12.6416 42.0002 12.6416V12.6447Z" fill="#FE3C3B"/>
</svg>
