<svg width="70" height="70" viewBox="0 0 70 70" fill="none" xmlns="http://www.w3.org/2000/svg">
<path d="M68.6328 28.2325H57.4219V25.3385C57.4219 24.5834 56.8096 23.9714 56.0547 23.9714H26.5234C25.7685 23.9714 25.1562 24.5834 25.1562 25.3385C25.1562 26.0936 25.7685 26.7057 26.5234 26.7057H54.6875V37.1874C54.6875 46.3951 49.7715 54.9529 41.8335 59.6093H15.5884C7.65037 54.953 2.73438 46.3951 2.73438 37.1875V26.7059H11.8945C12.6495 26.7059 13.2617 26.0938 13.2617 25.3387C13.2617 24.5836 12.6495 23.9715 11.8945 23.9715H1.36719C0.612227 23.9715 0 24.5836 0 25.3387V37.1875C0 42.3555 1.38906 47.4229 4.01707 51.8415C5.78936 54.8215 8.08896 57.4531 10.7819 59.6094H1.36719C0.612227 59.6094 0 60.2215 0 60.9766C0 65.9522 4.04783 70 9.02344 70H51.6797C56.6553 70 60.7031 65.9522 60.7031 60.9766C60.7031 60.2215 60.0909 59.6094 59.3359 59.6094H46.64C49.125 57.6198 51.264 55.233 52.9703 52.5456H56.8295C64.0917 52.5456 70 46.6373 70 39.375V29.5997C70 28.8446 69.3879 28.2325 68.6328 28.2325ZM57.819 62.3438C57.1931 65.1564 54.6781 67.2657 51.6797 67.2657H9.02344C6.02506 67.2657 3.51012 65.1564 2.88408 62.3438H57.819ZM57.4219 37.1875V36.4356H61.7969V39.375C61.7969 42.1141 59.5685 44.3424 56.8295 44.3424H56.519C57.1187 42.0048 57.4221 39.6009 57.4219 37.1875ZM67.2656 39.375C67.2656 45.1295 62.584 49.8112 56.8295 49.8112H54.5025C54.9388 48.9206 55.3284 48.0079 55.6697 47.0768H56.8295C61.0764 47.0768 64.5312 43.6218 64.5312 39.375V35.0684C64.5312 34.3133 63.919 33.7012 63.1641 33.7012H57.4219V30.9668H67.2656V39.375ZM30.0165 7.56647L29.3051 6.67329C28.2609 5.36243 28.2594 3.52999 29.3014 2.21721C29.7709 1.62577 29.6719 0.765808 29.0805 0.296452C28.4889 -0.173177 27.6291 -0.0740555 27.1596 0.51739C25.3218 2.83286 25.3246 6.06475 27.1663 8.37694L27.8776 9.27012C29.2422 10.9832 29.2443 13.3778 27.8826 15.0935L27.1536 16.012C26.6841 16.6034 26.7831 17.4634 27.3745 17.9328C27.6158 18.1249 27.9151 18.2294 28.2235 18.2292C28.4297 18.2295 28.6332 18.1831 28.8188 18.0935C29.0045 18.0039 29.1674 17.8734 29.2954 17.7118L30.0244 16.7933C32.1818 14.0751 32.1787 10.2809 30.0165 7.56647ZM37.5946 10.6405L36.8833 9.74741C35.839 8.43641 35.8375 6.60397 36.8796 5.2912C37.3491 4.69975 37.2501 3.83979 36.6587 3.37044C36.0671 2.90081 35.2073 2.99993 34.7378 3.59137C32.9 5.90684 32.9027 9.13874 34.7445 11.4511L35.4558 12.3442C36.8203 14.0575 36.8223 16.4522 35.4606 18.1678L34.7318 19.0861C34.2623 19.6776 34.3613 20.5375 34.9527 21.0069C35.194 21.1989 35.4933 21.3034 35.8017 21.3032C36.0079 21.3034 36.2114 21.257 36.397 21.1674C36.5826 21.0778 36.7456 20.9474 36.8736 20.7858L37.6023 19.8675C39.7599 17.1494 39.7567 13.3551 37.5946 10.6405ZM22.4383 10.6406L21.7269 9.74754C20.6827 8.43669 20.6812 6.60411 21.7231 5.29133C22.1926 4.69989 22.0936 3.83993 21.5022 3.37044C20.9106 2.90094 20.0508 3.0002 19.5813 3.59137C17.7436 5.90684 17.7464 9.13887 19.5881 11.4511L20.2995 12.3442C21.6639 14.0575 21.666 16.4522 20.3044 18.1676L19.5754 19.086C19.1059 19.6774 19.2047 20.5374 19.7962 21.0069C20.0375 21.199 20.3368 21.3035 20.6452 21.3033C20.8513 21.3036 21.0548 21.2572 21.2404 21.1677C21.426 21.0781 21.589 20.9476 21.717 20.7861L22.4461 19.8676C24.6035 17.1495 24.6004 13.3553 22.4383 10.6406Z" fill="#FE3C3B"/>
<path d="M20.5467 24.3718C20.2924 24.1175 19.9396 23.9712 19.5801 23.9712C19.2205 23.9712 18.8678 24.1175 18.6135 24.3718C18.3593 24.6274 18.2129 24.9788 18.2129 25.3384C18.2129 25.6979 18.3592 26.0507 18.6135 26.3063C18.8678 26.5606 19.2205 26.7056 19.5801 26.7056C19.9396 26.7056 20.2924 26.5606 20.5467 26.3063C20.8027 26.0492 20.9467 25.7012 20.9473 25.3384C20.9473 24.9788 20.8022 24.6261 20.5467 24.3718ZM49.4928 35.8206C48.7378 35.8206 48.1256 36.4327 48.1256 37.1878C48.1256 42.2627 46.0671 47.25 42.478 50.871C41.9464 51.4072 41.9504 52.2729 42.4866 52.8045C42.7424 53.0587 43.0885 53.2012 43.4491 53.2007C43.6297 53.2009 43.8086 53.1652 43.9753 53.0957C44.142 53.0261 44.2933 52.9242 44.4202 52.7957C48.5128 48.6668 50.86 42.978 50.86 37.1878C50.86 36.4327 50.2477 35.8206 49.4928 35.8206ZM40.1802 54.5818C39.8091 53.9241 38.9753 53.6918 38.3177 54.0627L38.2865 54.0804C37.6287 54.4514 37.3964 55.2853 37.7674 55.9429C37.8555 56.0993 37.9736 56.2368 38.115 56.3476C38.2563 56.4584 38.4181 56.5402 38.591 56.5884C38.764 56.6366 38.9448 56.6503 39.123 56.6286C39.3013 56.6069 39.4735 56.5503 39.6299 56.462L39.6611 56.4444C40.3188 56.0733 40.5511 55.2395 40.1802 54.5818Z" fill="#FE3C3B"/>
</svg>
