<svg width="70" height="70" viewBox="0 0 70 70" fill="none" xmlns="http://www.w3.org/2000/svg">
<path d="M56.875 58.2422C56.1203 58.2422 55.5078 58.8547 55.5078 59.6094C55.5078 60.3641 56.1203 60.9766 56.875 60.9766C57.6297 60.9766 58.2422 60.3641 58.2422 59.6094C58.2422 58.8547 57.6297 58.2422 56.875 58.2422Z" fill="#FE3C3B"/>
<path d="M60.9766 6.48484V4.10156C60.9766 1.83996 59.1366 0 56.875 0H13.125C10.8634 0 9.02344 1.83996 9.02344 4.10156V6.48484C0.105684 22.9545 0.000410156 22.4655 0 23.2407V25.9766C0 28.3463 1.3702 30.5502 3.55469 31.8035V68.6328C3.55469 69.3878 4.16691 70 4.92188 70H65.0781C65.8331 70 66.4453 69.3878 66.4453 68.6328V31.8035C68.6078 30.5513 70 28.3214 70 25.9766V23.2407C69.9996 22.4571 69.8074 22.7939 60.9766 6.48484ZM66.3206 21.875H57.8605L53.3032 8.20312H58.8011L66.3206 21.875ZM47.3047 24.6094H55.5078V25.9766C55.5078 28.2382 53.6679 30.0781 51.4062 30.0781C49.1446 30.0781 47.3047 28.2382 47.3047 25.9766V24.6094ZM47.0956 21.875L44.8171 8.20312H50.4208L54.978 21.875H47.0956ZM11.7578 4.10156C11.7578 3.3477 12.3711 2.73438 13.125 2.73438H56.875C57.6289 2.73438 58.2422 3.3477 58.2422 4.10156V5.46875H11.7578V4.10156ZM44.5703 24.6094V25.9766C44.5703 28.2382 42.7304 30.0781 40.4688 30.0781C38.2071 30.0781 36.3672 28.2382 36.3672 25.9766V24.6094H44.5703ZM36.3672 21.875V8.20312H42.045L44.3237 21.875H36.3672ZM25.6765 21.875L27.9552 8.20312H33.6328V21.875H25.6765ZM33.6328 24.6094V25.9766C33.6328 28.2382 31.7929 30.0781 29.5312 30.0781C27.2696 30.0781 25.4297 28.2382 25.4297 25.9766V24.6094H33.6328ZM15.0218 21.875L19.5791 8.20312H25.1829L22.9042 21.875H15.0218ZM22.6953 24.6094V25.9766C22.6953 28.2382 20.8554 30.0781 18.5938 30.0781C16.3321 30.0781 14.4922 28.2382 14.4922 25.9766V24.6094H22.6953ZM11.1989 8.20312H16.6968L12.1395 21.875H3.67938L11.1989 8.20312ZM2.73438 25.9766V24.6094H11.7578V25.9766C11.7578 28.1232 9.60736 30.0781 7.24609 30.0781C6.65082 30.0781 6.03395 29.9489 5.45973 29.7032C3.82963 29.0099 2.73438 27.5122 2.73438 25.9766ZM28.1641 67.2656H14.4922V55.5078H28.1641V67.2656ZM28.1641 52.7734H14.4922V41.0156H28.1641V52.7734ZM63.7109 67.2656H30.8984V39.6484C30.8984 38.8935 30.2862 38.2812 29.5312 38.2812H13.125C12.37 38.2812 11.7578 38.8935 11.7578 39.6484V67.2656H6.28906V32.7456C6.60598 32.7887 6.92521 32.8125 7.24609 32.8125C9.04545 32.8125 10.8644 32.0996 12.2361 30.8566C12.5333 30.5871 12.8081 30.2939 13.0577 29.9798C14.3011 31.6944 16.3188 32.8125 18.5938 32.8125C20.8276 32.8125 22.8143 31.7354 24.0625 30.0733C25.3107 31.7354 27.2974 32.8125 29.5312 32.8125C31.7651 32.8125 33.7518 31.7354 35 30.0733C36.2482 31.7354 38.2349 32.8125 40.4688 32.8125C42.7026 32.8125 44.6893 31.7354 45.9375 30.0733C47.1857 31.7354 49.1724 32.8125 51.4062 32.8125C53.6813 32.8125 55.6989 31.6944 56.9423 29.9798C57.1919 30.2939 57.4667 30.5871 57.7639 30.8566C59.1356 32.0996 60.9546 32.8125 62.7539 32.8125C63.0741 32.8125 63.3933 32.7895 63.7109 32.7462V67.2656ZM67.2656 25.9766C67.2656 27.5554 66.1296 29.0704 64.4391 29.7466C63.8862 29.9667 63.3194 30.0781 62.7539 30.0781C60.3926 30.0781 58.2422 28.1232 58.2422 25.9766V24.6094H67.2656V25.9766Z" fill="#FE3C3B"/>
<path d="M59.6094 52.7734H58.2422V39.6484C58.2422 38.8935 57.63 38.2812 56.875 38.2812H40.4688C39.7138 38.2812 39.1016 38.8935 39.1016 39.6484V52.7734H37.7344C36.9794 52.7734 36.3672 53.3857 36.3672 54.1406C36.3672 54.8956 36.9794 55.5078 37.7344 55.5078H59.6094C60.3643 55.5078 60.9766 54.8956 60.9766 54.1406C60.9766 53.3857 60.3643 52.7734 59.6094 52.7734ZM55.5078 52.7734H41.8359V41.0156H55.5078V52.7734ZM51.4062 58.2422H40.4688C39.7138 58.2422 39.1016 58.8544 39.1016 59.6094C39.1016 60.3643 39.7138 60.9766 40.4688 60.9766H51.4062C52.1612 60.9766 52.7734 60.3643 52.7734 59.6094C52.7734 58.8544 52.1612 58.2422 51.4062 58.2422Z" fill="#FE3C3B"/>
</svg>
