<svg width="70" height="54" viewBox="0 0 70 54" fill="none" xmlns="http://www.w3.org/2000/svg">
<path d="M70.0001 14.1851C70.0045 13.3957 69.7261 12.6307 69.2152 12.0288C68.7043 11.4269 67.9948 11.0278 67.2151 10.9039L63.4676 10.2751C63.0226 10.2005 62.5665 10.2289 62.1342 10.358C61.7019 10.4872 61.305 10.7137 60.9738 11.0201L59.9388 7.40889C59.3403 5.3451 58.0895 3.53068 56.3736 2.23725C54.6576 0.943815 52.5689 0.240955 50.4201 0.233887H20.4901C18.3411 0.240685 16.2521 0.943422 14.5359 2.23687C12.8197 3.53033 11.5687 5.3449 10.9701 7.40889L9.6651 11.9651C9.37994 11.4013 8.92294 10.9427 8.36011 10.6555C7.79727 10.3684 7.15773 10.2676 6.53385 10.3676L2.7926 10.9964C2.02764 11.121 1.33011 11.5086 0.820205 12.0923C0.310303 12.6759 0.0199708 13.4192 -0.000760782 14.194C-0.0214923 14.9688 0.228676 15.7265 0.706633 16.3366C1.18459 16.9467 1.8604 17.371 2.6176 17.5364L6.2376 18.3239L5.0201 20.1539C3.69088 22.1493 2.98274 24.4938 2.9851 26.8914C2.99385 26.9389 2.9751 38.8864 2.9876 38.9289V49.7964C2.99025 50.8504 3.41091 51.8604 4.15729 52.6047C4.90366 53.3489 5.9148 53.7667 6.96885 53.7664H10.6788C11.7331 53.767 12.7446 53.3494 13.4912 52.6051C14.2379 51.8608 14.6587 50.8507 14.6613 49.7964V46.8389H56.2501V49.7964C56.2508 50.8489 56.6691 51.8581 57.4132 52.6024C58.1573 53.3468 59.1664 53.7654 60.2188 53.7664H63.9413C64.9956 53.767 66.0071 53.3494 66.7537 52.6051C67.5004 51.8608 67.9212 50.8507 67.9239 49.7964C67.9226 44.1114 67.9263 32.5964 67.9239 26.8914C68.0401 23.6201 66.3738 20.6364 64.5038 18.0714L67.3913 17.4414C68.1326 17.2781 68.7957 16.866 69.2703 16.2736C69.7449 15.6812 70.0024 14.9442 70.0001 14.1851ZM13.3726 8.09764C13.8206 6.55494 14.7561 5.19879 16.0391 4.23213C17.3221 3.26546 18.8837 2.74027 20.4901 2.73514H50.4201C52.0263 2.74054 53.5876 3.26586 54.8703 4.2325C56.1531 5.19914 57.0884 6.55515 57.5363 8.09764L59.0363 13.3314C59.5863 13.7689 11.7188 13.3376 11.8163 13.4851L13.3726 8.09764ZM3.1601 15.0951C2.97322 15.052 2.80693 14.9457 2.68926 14.7942C2.5716 14.6428 2.50976 14.4554 2.51416 14.2636C2.51857 14.0719 2.58895 13.8875 2.71344 13.7416C2.83794 13.5957 3.00893 13.4972 3.1976 13.4626L6.9526 12.8326C7.05665 12.8171 7.16289 12.8369 7.2544 12.8888C7.34592 12.9406 7.41745 13.0217 7.4576 13.1189L8.33635 15.1376C8.2876 15.2814 7.8051 15.9464 7.72385 16.0901L3.1601 15.0951ZM65.4251 38.8764C65.4244 40.3238 64.8496 41.7119 63.8266 42.736C62.8037 43.7601 61.4163 44.3366 59.9688 44.3389H10.9413C9.49291 44.3362 8.10474 43.7588 7.08171 42.7334C6.05868 41.7081 5.48443 40.3186 5.4851 38.8701V37.5464H65.4251V38.8764ZM12.1613 49.7964C12.1594 50.1878 12.0021 50.5625 11.7242 50.8381C11.4462 51.1137 11.0703 51.2677 10.6788 51.2664H6.96885C6.57764 51.2674 6.202 51.1132 5.92432 50.8376C5.64664 50.562 5.48958 50.1876 5.4876 49.7964V44.6589C6.38324 45.4725 7.44096 46.0872 8.59121 46.4628C9.74147 46.8383 10.9582 46.966 12.1613 46.8376V49.7964ZM63.9413 51.2664H60.2188C59.8293 51.2657 59.4559 51.1106 59.1806 50.835C58.9052 50.5595 58.7504 50.1859 58.7501 49.7964V46.8389C59.9534 46.9671 61.1703 46.839 62.3206 46.4631C63.4709 46.0871 64.5285 45.4718 65.4239 44.6576V49.7964C65.4219 50.1878 65.2646 50.5625 64.9867 50.8381C64.7087 51.1137 64.3328 51.2677 63.9413 51.2664ZM65.4251 35.0476H5.4851V26.8914C5.48287 24.9865 6.04578 23.1237 7.1026 21.5389C8.01385 20.1014 9.9276 17.4414 10.7188 15.9851H60.1913C60.3288 16.2276 60.4451 16.4826 60.6001 16.7164L63.8076 21.5389C64.8644 23.1237 65.4273 24.9865 65.4251 26.8914V35.0476ZM66.8501 15.0001L63.0188 15.8364C62.649 15.3137 62.3221 14.7619 62.0413 14.1864C62.3526 13.6064 62.4976 12.6114 63.0538 12.7401L66.8113 13.3701C66.9978 13.407 67.1661 13.5063 67.2885 13.6518C67.4108 13.7972 67.4799 13.9801 67.4842 14.1701C67.4886 14.3601 67.428 14.5459 67.3125 14.6968C67.197 14.8478 67.0347 14.9548 66.8501 15.0001Z" fill="#FE3C3B"/>
<path d="M18.375 24.2325C18.0742 23.7467 17.6595 23.3416 17.1668 23.0523C16.6741 22.7631 16.1183 22.5983 15.5475 22.5725L10.625 22.3475C9.94814 22.3165 9.28554 22.5485 8.77579 22.9949C8.26605 23.4413 7.94865 24.0675 7.88999 24.7425L7.67249 27.2312C7.61217 27.9069 7.81639 28.5796 8.24213 29.1077C8.66787 29.6358 9.28192 29.9781 9.95499 30.0625L20.41 31.3962C20.6445 31.4266 20.8828 31.3898 21.0972 31.2901C21.3116 31.1905 21.4934 31.032 21.6214 30.8332C21.7494 30.6344 21.8184 30.4034 21.8203 30.167C21.8223 29.9305 21.7572 29.6984 21.6325 29.4975L18.375 24.2325ZM10.2725 27.5825C10.2402 27.5787 10.2107 27.5625 10.1901 27.5373C10.1696 27.5121 10.1597 27.4799 10.1625 27.4475L10.38 24.96C10.3825 24.9277 10.3975 24.8977 10.4218 24.8762C10.446 24.8548 10.4776 24.8436 10.51 24.845L15.4337 25.07C15.5981 25.0775 15.7582 25.125 15.9 25.2084C16.0418 25.2919 16.1611 25.4087 16.2475 25.5487L18.1262 28.5837L10.2725 27.5825ZM60.2862 22.0962L55.3637 22.3212C54.7931 22.347 54.2373 22.5115 53.7446 22.8005C53.2519 23.0896 52.8371 23.4944 52.5362 23.98L49.2787 29.245C49.1646 29.4349 49.1026 29.6515 49.099 29.873C49.0953 30.0946 49.1501 30.3131 49.2579 30.5067C49.3656 30.7003 49.5225 30.862 49.7127 30.9756C49.9029 31.0892 50.1197 31.1506 50.3412 31.1537C50.3939 31.1538 50.4465 31.1504 50.4987 31.1437L60.9562 29.8112C61.6296 29.7265 62.2439 29.3838 62.6697 28.8552C63.0954 28.3266 63.2994 27.6535 63.2387 26.9775L63.0212 24.49C62.9608 23.8158 62.6428 23.1908 62.1335 22.745C61.6241 22.2992 60.9625 22.0668 60.2862 22.0962ZM60.64 27.3312L52.785 28.3312L54.6625 25.2962C54.749 25.1561 54.8685 25.0393 55.0106 24.9561C55.1526 24.8728 55.313 24.8257 55.4775 24.8187L60.4 24.5937C60.4315 24.5949 60.4618 24.6069 60.4856 24.6275C60.5095 24.6482 60.5256 24.6764 60.5312 24.7075L60.7487 27.195C60.7519 27.2274 60.7423 27.2597 60.722 27.2852C60.7017 27.3106 60.6723 27.3272 60.64 27.3312ZM46.16 23.3325C39.2388 24.8813 32.0615 24.8877 25.1375 23.3512C24.9185 23.2899 24.687 23.2895 24.4678 23.35C24.2486 23.4106 24.0501 23.5297 23.8936 23.6947C23.7371 23.8597 23.6286 24.0642 23.5797 24.2863C23.5308 24.5084 23.5435 24.7396 23.6162 24.955L25.7787 31.3462C25.8516 31.5612 25.9815 31.7523 26.1545 31.8991C26.3276 32.046 26.5373 32.1431 26.7612 32.18C30.4625 33.07 43.2337 32.445 44.4487 32.1887C44.6899 32.165 44.919 32.0716 45.1081 31.9201C45.2971 31.7685 45.4381 31.5652 45.5137 31.335L47.6112 24.945C47.6772 24.736 47.6875 24.5134 47.6411 24.2993C47.5947 24.0851 47.4931 23.8868 47.3465 23.7239C47.1999 23.561 47.0134 23.4392 46.8053 23.3706C46.5971 23.3019 46.3747 23.2888 46.16 23.3325ZM43.3962 29.7725C38.2427 30.2529 33.0564 30.2688 27.9 29.82L26.6925 26.2475C32.611 27.2579 38.6595 27.238 44.5712 26.1887L43.3962 29.7725Z" fill="#FE3C3B"/>
</svg>
