<svg width="76" height="70" viewBox="0 0 76 70" fill="none" xmlns="http://www.w3.org/2000/svg">
<path d="M74.25 27.5H73V13.75C73 13.4185 72.8683 13.1005 72.6339 12.8661C72.3995 12.6317 72.0815 12.5 71.75 12.5H65.5V8.75C65.5 8.41848 65.3683 8.10054 65.1339 7.86612C64.8995 7.6317 64.5815 7.5 64.25 7.5H41.75C41.4185 7.5 41.1005 7.6317 40.8661 7.86612C40.6317 8.10054 40.5 8.41848 40.5 8.75V23.75C40.5 24.0815 40.6317 24.3995 40.8661 24.6339C41.1005 24.8683 41.4185 25 41.75 25H49.7275L48.4775 27.5H35.5V26.25C35.5 21.425 31.575 17.5 26.75 17.5H19.25C14.425 17.5 10.5 21.425 10.5 26.25V27.5H1.75C1.41848 27.5 1.10054 27.6317 0.866116 27.8661C0.631696 28.1005 0.5 28.4185 0.5 28.75V33.75C0.5 34.0815 0.631696 34.3995 0.866116 34.6339C1.10054 34.8683 1.41848 35 1.75 35H5.5V67.5H4.25C3.91848 67.5 3.60054 67.6317 3.36612 67.8661C3.1317 68.1005 3 68.4185 3 68.75C3 69.0815 3.1317 69.3995 3.36612 69.6339C3.60054 69.8683 3.91848 70 4.25 70H71.75C72.0815 70 72.3995 69.8683 72.6339 69.6339C72.8683 69.3995 73 69.0815 73 68.75C73 68.4185 72.8683 68.1005 72.6339 67.8661C72.3995 67.6317 72.0815 67.5 71.75 67.5H70.5V35H74.25C74.5815 35 74.8995 34.8683 75.1339 34.6339C75.3683 34.3995 75.5 34.0815 75.5 33.75V28.75C75.5 28.4185 75.3683 28.1005 75.1339 27.8661C74.8995 27.6317 74.5815 27.5 74.25 27.5ZM70.5 15V27.5H65.5V15H70.5ZM57.5225 27.5L56.2725 25H63V27.5H57.5225ZM43 10H63V22.5H43V10ZM52.5225 25H53.4775L54.7275 27.5H51.2725L52.5225 25ZM13 26.25C13 22.8037 15.8038 20 19.25 20H26.75C30.1963 20 33 22.8037 33 26.25V27.5H29.25V25C29.25 24.6685 29.1183 24.3505 28.8839 24.1161C28.6495 23.8817 28.3315 23.75 28 23.75C27.6685 23.75 27.3505 23.8817 27.1161 24.1161C26.8817 24.3505 26.75 24.6685 26.75 25V27.5H19.25V25C19.25 24.6685 19.1183 24.3505 18.8839 24.1161C18.6495 23.8817 18.3315 23.75 18 23.75C17.6685 23.75 17.3505 23.8817 17.1161 24.1161C16.8817 24.3505 16.75 24.6685 16.75 25V27.5H13V26.25ZM68 67.5H8V35H68V67.5ZM73 32.5H3V30H73V32.5ZM34.25 55V58.75C34.25 59.0815 34.3817 59.3995 34.6161 59.6339C34.8505 59.8683 35.1685 60 35.5 60H40.5C40.8315 60 41.1495 59.8683 41.3839 59.6339C41.6183 59.3995 41.75 59.0815 41.75 58.75V55H45.5C45.8315 55 46.1495 54.8683 46.3839 54.6339C46.6183 54.3995 46.75 54.0815 46.75 53.75V48.75C46.75 48.4185 46.6183 48.1005 46.3839 47.8661C46.1495 47.6317 45.8315 47.5 45.5 47.5H41.75V43.75C41.75 43.4185 41.6183 43.1005 41.3839 42.8661C41.1495 42.6317 40.8315 42.5 40.5 42.5H35.5C35.1685 42.5 34.8505 42.6317 34.6161 42.8661C34.3817 43.1005 34.25 43.4185 34.25 43.75V47.5H30.5C30.1685 47.5 29.8505 47.6317 29.6161 47.8661C29.3817 48.1005 29.25 48.4185 29.25 48.75V53.75C29.25 54.0815 29.3817 54.3995 29.6161 54.6339C29.8505 54.8683 30.1685 55 30.5 55H34.25ZM31.75 50H35.5C35.8315 50 36.1495 49.8683 36.3839 49.6339C36.6183 49.3995 36.75 49.0815 36.75 48.75V45H39.25V48.75C39.25 49.0815 39.3817 49.3995 39.6161 49.6339C39.8505 49.8683 40.1685 50 40.5 50H44.25V52.5H40.5C40.1685 52.5 39.8505 52.6317 39.6161 52.8661C39.3817 53.1005 39.25 53.4185 39.25 53.75V57.5H36.75V53.75C36.75 53.4185 36.6183 53.1005 36.3839 52.8661C36.1495 52.6317 35.8315 52.5 35.5 52.5H31.75V50ZM38 65C45.5812 65 51.75 58.8312 51.75 51.25C51.75 43.6688 45.5812 37.5 38 37.5C30.4188 37.5 24.25 43.6688 24.25 51.25C24.25 58.8312 30.4188 65 38 65ZM38 40C44.2038 40 49.25 45.0462 49.25 51.25C49.25 57.4538 44.2038 62.5 38 62.5C31.7975 62.5 26.75 57.4538 26.75 51.25C26.75 45.0462 31.7975 40 38 40ZM23 15C27.1362 15 30.5 11.6362 30.5 7.5C30.5 3.36375 27.1362 0 23 0C18.8638 0 15.5 3.36375 15.5 7.5C15.5 11.6362 18.8638 15 23 15ZM23 2.5C25.7575 2.5 28 4.7425 28 7.5C28 10.2575 25.7575 12.5 23 12.5C20.2425 12.5 18 10.2575 18 7.5C18 4.7425 20.2425 2.5 23 2.5Z" fill="#FE3C3B"/>
</svg>
