<svg width="70" height="70" viewBox="0 0 70 70" fill="none" xmlns="http://www.w3.org/2000/svg">
<path d="M63.1982 52.7734C63.9529 52.7734 64.5654 52.1609 64.5654 51.4062C64.5654 50.6516 63.9529 50.0391 63.1982 50.0391C62.4436 50.0391 61.8311 50.6516 61.8311 51.4062C61.8311 52.1609 62.4436 52.7734 63.1982 52.7734Z" fill="#FE3C3B"/>
<path d="M4.10156 70H65.8984C68.1639 70 70 68.1639 70 65.8984V15.0391C70 14.284 69.3879 13.6719 68.6328 13.6719H59.0625C59.0625 6.1332 52.9293 0 45.3906 0C37.8358 0 31.7188 6.11133 31.7188 13.6719H21.3281C20.573 13.6719 19.9609 14.284 19.9609 15.0391V30.8984H1.36719C0.61209 30.8984 0 31.5105 0 32.2656V65.8984C0 68.1639 1.83613 70 4.10156 70ZM2.73438 65.8984V60.9766H34.4531V65.8984C34.4531 66.6535 33.841 67.2656 33.0859 67.2656H4.10156C3.34646 67.2656 2.73438 66.6535 2.73438 65.8984ZM65.8984 67.2656H36.9525C37.1082 66.8266 37.1877 66.3642 37.1875 65.8984V60.9766H67.2656V65.8984C67.2656 66.6535 66.6535 67.2656 65.8984 67.2656ZM45.4248 2.73438C51.4559 2.73438 56.3623 7.6408 56.3623 13.6719H34.4873C34.4873 7.62754 39.3766 2.73438 45.4248 2.73438ZM22.6953 16.4062H31.7188V22.6953H30.3494C29.7652 22.6953 29.2306 23.0612 29.0544 23.6187C28.7563 24.5618 29.4528 25.4297 30.3516 25.4297H35.8225C36.4067 25.4297 36.9413 25.0638 37.1175 24.5063C37.4155 23.5632 36.7191 22.6953 35.8203 22.6953H34.4531V16.4062H56.3281V22.6953H54.9588C54.3746 22.6953 53.84 23.0612 53.6637 23.6187C53.3657 24.5618 54.0621 25.4297 54.9609 25.4297H60.4319C61.0161 25.4297 61.5506 25.0638 61.7269 24.5063C62.0249 23.5632 61.3285 22.6953 60.4297 22.6953H59.0625V16.4062H67.2656V58.2422H37.1875V32.2656C37.1875 31.5105 36.5754 30.8984 35.8203 30.8984H22.6953V16.4062ZM34.4531 33.6328V58.2422H2.73438V33.6328H34.4531Z" fill="#FE3C3B"/>
<path d="M10.3909 41.8361V44.4503C10.3909 48.8477 13.8057 52.5568 18.1989 52.7646C22.9007 52.986 26.7971 49.2248 26.7971 44.5705V41.8361C27.6191 41.8361 28.2711 41.1115 28.15 40.266C28.0522 39.5878 27.4396 39.1017 26.7543 39.1017H24.1054C23.4203 39.1017 22.8077 39.5878 22.7099 40.266C22.5889 41.1113 23.2408 41.8361 24.0628 41.8361V44.4711C24.0628 47.3021 21.7577 49.8592 18.9321 50.0291C15.7582 50.2197 13.1253 47.7032 13.1253 44.5705V41.8361C13.9472 41.8361 14.5992 41.1115 14.4781 40.266C14.3803 39.5878 13.7677 39.1017 13.0826 39.1017H10.4334C9.74831 39.1017 9.13567 39.5878 9.03792 40.266C8.91706 41.1113 9.56893 41.8361 10.3909 41.8361ZM64.5315 45.895V35.0429C64.5315 34.3577 64.0455 33.7451 63.3672 33.6473C62.5219 33.5263 61.7971 34.1782 61.7971 35.0002V45.9377C61.7971 46.7596 62.5217 47.4116 63.3672 47.2905C64.0455 47.1927 64.5315 46.5801 64.5315 45.895Z" fill="#FE3C3B"/>
</svg>
