<svg width="68" height="56" viewBox="0 0 68 56" fill="none" xmlns="http://www.w3.org/2000/svg">
<path d="M66.2655 0.900391H25.4999C25.3235 0.900747 25.1492 0.938666 24.9887 1.01162C24.8281 1.08458 24.6849 1.1909 24.5686 1.32352L17.1011 9.49289C16.8908 9.72329 16.7742 10.024 16.7743 10.336V29.2441C15.4919 30.3761 14.3811 31.6886 13.4768 33.1404C13.233 33.5305 12.9615 33.9025 12.6643 34.2535C12.183 34.5741 11.6103 34.729 11.033 34.6948V33.0073C11.033 32.6757 10.9013 32.3578 10.6669 32.1234C10.4325 31.889 10.1145 31.7573 9.78301 31.7573H3.92176C2.30426 31.7573 2.30738 34.2573 3.92176 34.2573H8.53551V37.4866H1.73426C0.12551 37.4866 0.11676 39.9866 1.73426 39.9866H11.073V52.2204H1.73426C0.121135 52.2204 0.121135 54.7204 1.73426 54.7204H12.323C12.6545 54.7204 12.9725 54.5887 13.2069 54.3543C13.4413 54.1199 13.573 53.8019 13.573 53.4704V52.6385L18.0574 53.9016C20.6775 54.6281 23.3773 55.028 26.0955 55.0923C28.7775 55.104 31.4266 54.5024 33.8405 53.3335C37.1399 51.7929 45.778 46.7991 47.503 45.7985H66.2655C66.597 45.7985 66.915 45.6668 67.1494 45.4324C67.3838 45.198 67.5155 44.88 67.5155 44.5485V2.15039C67.5155 1.81887 67.3838 1.50093 67.1494 1.26651C66.915 1.03209 66.597 0.900391 66.2655 0.900391ZM42.4955 3.40039H49.2724V14.1504H42.4955V3.40039ZM24.2499 5.37227V33.7873C22.4548 34.6199 20.781 35.6921 19.2743 36.9748V10.8204L24.2499 5.37227ZM11.0355 37.4891V37.1916C12.2758 37.2397 13.4893 36.8221 14.4374 36.021C14.8552 35.5607 15.2299 35.063 15.5568 34.5341C15.9099 34.0085 16.3068 33.4185 16.7786 32.8248V39.0123C16.7786 39.0254 16.7824 39.0379 16.7824 39.0516C15.8464 39.8156 14.7506 40.3594 13.5761 40.6429V38.7391C13.5761 38.4076 13.4444 38.0897 13.21 37.8553C12.9756 37.6208 12.6577 37.4891 12.3261 37.4891H11.0355ZM32.7855 51.071C28.7049 52.9766 25.0124 53.0841 18.7061 51.4885L13.573 50.0441V43.1823C15.3584 42.874 17.0315 42.1017 18.4243 40.9429C18.8607 40.59 19.292 40.2308 19.718 39.8654C22.0199 37.9129 24.6293 35.7004 28.8386 34.9998C30.0855 34.7806 31.2936 34.3805 32.4249 33.8123C33.8732 33.0931 35.4033 32.5518 36.9818 32.2004C37.6818 32.0479 39.2674 31.6323 39.423 32.6923C39.5286 33.4098 38.298 34.2035 37.6386 34.6298C36.0705 35.6031 34.446 36.4826 32.7736 37.2635C32.0991 37.5928 31.5253 38.097 31.112 38.7237C30.6988 39.3503 30.4613 40.0763 30.4243 40.826C30.3833 41.5323 30.5354 42.2365 30.8645 42.8628C31.1935 43.4891 31.6869 44.014 32.2918 44.381C33.8205 45.3185 36.0524 45.7954 38.9255 45.7954H42.483C39.2174 47.661 34.8424 50.1091 32.783 51.071H32.7855ZM65.018 43.301H38.9261C36.5555 43.301 34.7143 42.9398 33.6005 42.256C33.3791 42.1211 33.1987 41.9282 33.0791 41.6982C32.9594 41.4682 32.905 41.2098 32.9218 40.951C32.9375 40.6483 33.034 40.3553 33.2013 40.1025C33.3685 39.8497 33.6005 39.6463 33.873 39.5135C35.6354 38.6904 37.3468 37.7623 38.998 36.7341C40.0499 36.0548 42.2393 34.641 41.8993 32.3323C41.8512 31.8988 41.7118 31.4804 41.4903 31.1046C41.2688 30.7289 40.9703 30.4043 40.6143 30.1523C39.6549 29.4885 38.2936 29.361 36.4524 29.7623C34.6772 30.1574 32.9563 30.7659 31.3274 31.5748C30.4146 32.0344 29.4398 32.3586 28.4336 32.5373C27.8474 32.6348 27.2899 32.7585 26.7555 32.9023V3.40039H39.9993V15.4004C39.9993 15.7319 40.131 16.0499 40.3654 16.2843C40.5998 16.5187 40.9177 16.6504 41.2493 16.6504H50.5224C50.8539 16.6504 51.1718 16.5187 51.4063 16.2843C51.6407 16.0499 51.7724 15.7319 51.7724 15.4004V3.40039H65.0155L65.018 43.301ZM61.4999 39.6804C61.4999 40.0119 61.3682 40.3299 61.1338 40.5643C60.8993 40.7987 60.5814 40.9304 60.2499 40.9304H48.8386C48.5071 40.9304 48.1892 40.7987 47.9548 40.5643C47.7203 40.3299 47.5886 40.0119 47.5886 39.6804C47.5886 39.3489 47.7203 39.0309 47.9548 38.7965C48.1892 38.5621 48.5071 38.4304 48.8386 38.4304H60.2499C60.5814 38.4304 60.8993 38.5621 61.1338 38.7965C61.3682 39.0309 61.4999 39.3489 61.4999 39.6804ZM55.9761 31.1135C55.7331 30.8881 55.5895 30.5755 55.577 30.2442C55.5644 29.913 55.684 29.5904 55.9093 29.3473L58.3093 26.7573C58.4291 26.6358 58.5718 26.5394 58.7292 26.4736C58.8866 26.4078 59.0555 26.3739 59.2261 26.3739C59.3967 26.3739 59.5656 26.4078 59.723 26.4736C59.8804 26.5394 60.0232 26.6358 60.143 26.7573L62.543 29.3473C62.7683 29.5904 62.8878 29.913 62.8753 30.2442C62.8628 30.5755 62.7192 30.8881 62.4761 31.1135C62.2313 31.3351 61.9094 31.4522 61.5794 31.4397C61.2494 31.4272 60.9373 31.2862 60.7099 31.0466L60.4761 30.7966V35.1941C60.4761 35.5257 60.3444 35.8436 60.11 36.078C59.8756 36.3124 59.5577 36.4441 59.2261 36.4441C58.8946 36.4441 58.5767 36.3124 58.3423 36.078C58.1078 35.8436 57.9761 35.5257 57.9761 35.1941V30.7948L57.7424 31.0448C57.5173 31.2881 57.2047 31.432 56.8735 31.4449C56.5423 31.4578 56.2195 31.3386 55.9761 31.1135ZM54.0549 29.3473C54.1665 29.4677 54.2532 29.6089 54.3103 29.7628C54.3673 29.9168 54.3934 30.0804 54.3872 30.2445C54.3809 30.4085 54.3424 30.5697 54.2739 30.7189C54.2053 30.868 54.1081 31.0022 53.9877 31.1138C53.8673 31.2254 53.7261 31.3122 53.5721 31.3692C53.4182 31.4262 53.2545 31.4523 53.0905 31.4461C52.9265 31.4399 52.7653 31.4014 52.6161 31.3328C52.4669 31.2643 52.3327 31.167 52.2211 31.0466L51.9874 30.7966V35.1941C51.9874 35.5257 51.8557 35.8436 51.6213 36.078C51.3868 36.3124 51.0689 36.4441 50.7374 36.4441C50.4059 36.4441 50.0879 36.3124 49.8535 36.078C49.6191 35.8436 49.4874 35.5257 49.4874 35.1941V30.7948L49.2536 31.0448C49.0283 31.2879 48.7156 31.4316 48.3843 31.4442C48.053 31.4568 47.7302 31.3373 47.4871 31.112C47.2439 30.8866 47.1002 30.5739 47.0876 30.2426C47.075 29.9113 47.1945 29.5886 47.4199 29.3454L49.8199 26.7554C49.9397 26.634 50.0825 26.5375 50.2399 26.4717C50.3973 26.4059 50.5662 26.372 50.7368 26.372C50.9074 26.372 51.0763 26.4059 51.2337 26.4717C51.3911 26.5375 51.5338 26.634 51.6536 26.7554L54.0549 29.3473Z" fill="#FE3C3B"/>
</svg>
