<svg width="74" height="74" viewBox="0 0 74 74" fill="none" xmlns="http://www.w3.org/2000/svg">
<path d="M29.2422 58.6162C27.7217 58.6162 26.2354 59.0671 24.9712 59.9118C23.707 60.7565 22.7217 61.9571 22.1399 63.3618C21.558 64.7665 21.4058 66.3122 21.7024 67.8035C21.999 69.2947 22.7312 70.6645 23.8063 71.7396C24.8814 72.8147 26.2512 73.5469 27.7424 73.8435C29.2337 74.1401 30.7794 73.9879 32.1841 73.406C33.5888 72.8242 34.7894 71.8389 35.6341 70.5747C36.4788 69.3105 36.9297 67.8242 36.9297 66.3037C36.9272 64.2656 36.1165 62.3117 34.6753 60.8706C33.2342 59.4294 31.2803 58.6187 29.2422 58.6162ZM29.2422 71.8037C28.1544 71.8037 27.091 71.4811 26.1866 70.8768C25.2821 70.2724 24.5771 69.4135 24.1609 68.4085C23.7446 67.4035 23.6357 66.2976 23.8479 65.2307C24.0601 64.1638 24.5839 63.1838 25.3531 62.4146C26.1223 61.6454 27.1023 61.1216 28.1692 60.9094C29.2361 60.6972 30.342 60.8061 31.3469 61.2224C32.3519 61.6387 33.2109 62.3436 33.8153 63.2481C34.4196 64.1525 34.7422 65.2159 34.7422 66.3037C34.7409 67.7622 34.161 69.1605 33.1299 70.192C32.0988 71.2235 30.7006 71.8038 29.2422 71.8056V71.8037Z" fill="#FE3C3B"/>
<path d="M29.2414 62.6225C28.5131 62.6226 27.8012 62.8387 27.1957 63.2434C26.5901 63.6482 26.1183 64.2234 25.8396 64.8963C25.561 65.5692 25.4882 66.3097 25.6305 67.024C25.7727 67.7383 26.1235 68.3944 26.6386 68.9093C27.1537 69.4242 27.8099 69.7749 28.5243 69.9168C29.2386 70.0588 29.979 69.9857 30.6519 69.7069C31.3247 69.4281 31.8998 68.956 32.3043 68.3503C32.7088 67.7447 32.9247 67.0327 32.9246 66.3043C32.9231 65.3281 32.5345 64.3923 31.8441 63.7021C31.1537 63.0119 30.2177 62.6236 29.2414 62.6225ZM29.2414 67.8C28.9458 67.7998 28.6569 67.7121 28.4111 67.5477C28.1654 67.3834 27.9738 67.1499 27.8608 66.8768C27.7477 66.6036 27.7181 66.3031 27.7758 66.0131C27.8335 65.7232 27.9759 65.4569 28.1849 65.2478C28.394 65.0388 28.6603 64.8964 28.9503 64.8387C29.2402 64.781 29.5407 64.8106 29.8139 64.9236C30.087 65.0367 30.3205 65.2282 30.4849 65.474C30.6492 65.7197 30.7369 66.0087 30.7371 66.3043C30.7367 66.7009 30.5791 67.0811 30.2986 67.3615C30.0182 67.6419 29.638 67.7996 29.2414 67.8ZM63.3214 58.6162C61.801 58.6162 60.3147 59.0671 59.0505 59.9118C57.7863 60.7565 56.801 61.9571 56.2191 63.3618C55.6373 64.7665 55.485 66.3122 55.7817 67.8035C56.0783 69.2947 56.8104 70.6645 57.8856 71.7396C58.9607 72.8147 60.3305 73.5469 61.8217 73.8435C63.3129 74.1401 64.8586 73.9879 66.2633 73.406C67.668 72.8242 68.8687 71.8389 69.7134 70.5747C70.5581 69.3105 71.0089 67.8242 71.0089 66.3037C71.0063 64.2657 70.1955 62.3119 68.7544 60.8707C67.3133 59.4296 65.3595 58.6189 63.3214 58.6162ZM63.3214 71.8037C62.2337 71.8037 61.1703 71.4811 60.2658 70.8768C59.3613 70.2724 58.6564 69.4135 58.2401 68.4085C57.8238 67.4035 57.7149 66.2976 57.9271 65.2307C58.1393 64.1638 58.6632 63.1838 59.4324 62.4146C60.2015 61.6454 61.1816 61.1216 62.2485 60.9094C63.3153 60.6972 64.4212 60.8061 65.4262 61.2224C66.4312 61.6387 67.2902 62.3436 67.8945 63.2481C68.4989 64.1525 68.8214 65.2159 68.8214 66.3037C68.8201 67.7622 68.2403 69.1605 67.2092 70.192C66.1781 71.2235 64.7799 71.8038 63.3214 71.8056V71.8037Z" fill="#FE3C3B"/>
<path d="M63.3219 62.6225C62.5935 62.6224 61.8815 62.8383 61.2758 63.2429C60.6701 63.6475 60.198 64.2226 59.9192 64.8955C59.6404 65.5684 59.5675 66.3089 59.7095 67.0233C59.8516 67.7377 60.2023 68.3939 60.7174 68.909C61.2324 69.424 61.8886 69.7747 62.603 69.9168C63.3174 70.0589 64.0579 69.9859 64.7308 69.7071C65.4037 69.4283 65.9789 68.9562 66.3834 68.3505C66.788 67.7449 67.0039 67.0328 67.0038 66.3044C67.0023 65.3284 66.6139 64.3927 65.9238 63.7026C65.2336 63.0124 64.298 62.624 63.3219 62.6225ZM63.3219 67.8C63.0262 67.8002 62.7372 67.7126 62.4912 67.5484C62.2453 67.3843 62.0536 67.1509 61.9403 66.8777C61.8271 66.6046 61.7973 66.304 61.8549 66.014C61.9125 65.724 62.0547 65.4575 62.2637 65.2484C62.4727 65.0392 62.739 64.8967 63.029 64.8389C63.319 64.7811 63.6196 64.8106 63.8928 64.9236C64.1661 65.0366 64.3996 65.2282 64.564 65.4739C64.7284 65.7197 64.8162 66.0087 64.8163 66.3044C64.8151 66.7005 64.6574 67.0801 64.3774 67.3603C64.0974 67.6405 63.718 67.7986 63.3219 67.8ZM73.9688 13.9619C74.0026 13.8026 74.0004 13.6378 73.9623 13.4795C73.9243 13.3211 73.8513 13.1733 73.7489 13.0467C73.6464 12.9202 73.5169 12.8181 73.37 12.748C73.223 12.6778 73.0623 12.6414 72.8994 12.6413H20.5488L18.7744 4.38191C18.5374 3.30093 17.9391 2.33294 17.0783 1.63742C16.2175 0.941913 15.1455 0.560373 14.0388 0.555664H1.64941C1.50576 0.555582 1.36349 0.583817 1.23076 0.638754C1.09802 0.693691 0.977413 0.774253 0.875833 0.875833C0.774253 0.977413 0.693691 1.09802 0.638754 1.23076C0.583817 1.36349 0.555582 1.50576 0.555664 1.64941V5.84254C0.555582 5.9862 0.583817 6.12846 0.638754 6.2612C0.693691 6.39393 0.774253 6.51454 0.875833 6.61612C0.977413 6.7177 1.09802 6.79826 1.23076 6.8532C1.36349 6.90814 1.50576 6.93637 1.64941 6.93629H12.7969L22.425 51.765C22.6619 52.8463 23.26 53.8145 24.1208 54.5103C24.9816 55.206 26.0538 55.5878 27.1607 55.5925H66.79C67.0801 55.5924 67.3582 55.4771 67.5633 55.272C67.7683 55.0669 67.8836 54.7888 67.8838 54.4988V50.3057C67.8838 50.0156 67.7686 49.7374 67.5634 49.5323C67.3583 49.3271 67.0801 49.2119 66.79 49.2119H28.4032L27.1275 43.2744H66.79C67.0402 43.2744 67.2828 43.1885 67.4773 43.0312C67.6718 42.8739 67.8064 42.6547 67.8588 42.41L73.9688 13.9619ZM69.9788 22.1207H59.7913L60.5744 14.8263H71.5469L69.9788 22.1207ZM67.9425 31.6025H58.7744L59.5575 24.3082H69.5119L67.9425 31.6025ZM47.3757 41.0869V33.7925H56.3369L55.5532 41.0869H47.3757ZM37.0107 41.0869L36.2275 33.7925H45.1882V41.0869H37.0107ZM23.055 24.3107H33.0088L33.7919 31.605H24.6213L23.055 24.3107ZM35.2094 24.3107H45.1882V31.605H35.9925L35.2094 24.3107ZM45.1882 22.1232H34.9744L34.1907 14.8288H45.1907L45.1882 22.1232ZM47.3757 14.8288H58.3757L57.5869 22.1232H47.3757V14.8288ZM47.3757 31.605V24.3107H57.355L56.5713 31.605H47.3757ZM31.9907 14.8288L32.7744 22.1232H22.5869L21.0182 14.8288H31.9907ZM65.6963 51.3994V53.405H27.1607C26.5537 53.4025 25.9658 53.1932 25.4937 52.8117C25.0216 52.4302 24.6936 51.8992 24.5638 51.3063L14.7513 5.61316C14.6988 5.3685 14.564 5.14922 14.3694 4.99192C14.1748 4.83462 13.9321 4.7488 13.6819 4.74879H2.74316V2.74316H14.0388C14.6456 2.74582 15.2335 2.95506 15.7055 3.33643C16.1775 3.7178 16.5056 4.24856 16.6357 4.84129L26.4482 50.535C26.5006 50.7801 26.6356 50.9997 26.8307 51.157C27.0257 51.3144 27.2688 51.3999 27.5194 51.3994H65.6963ZM25.0913 33.7925H34.0244L34.8107 41.0869H26.6582L25.0913 33.7925ZM65.9057 41.0869H57.7532L58.5369 33.7925H67.4744L65.9057 41.0869Z" fill="#FE3C3B"/>
</svg>
