<svg width="74" height="76" viewBox="0 0 74 76" fill="none" xmlns="http://www.w3.org/2000/svg">
<path d="M72 14.25H60.75V6.75C60.7482 5.09297 60.0891 3.50434 58.9174 2.33264C57.7457 1.16094 56.157 0.501861 54.5 0.5H44.5C44.1685 0.5 43.8506 0.631696 43.6161 0.866116C43.3817 1.10054 43.25 1.41848 43.25 1.75V6.75C43.25 7.08152 43.3817 7.39946 43.6161 7.63388C43.8506 7.8683 44.1685 8 44.5 8H53.25V14.25H40.75C40.4185 14.25 40.1006 14.3817 39.8661 14.6161C39.6317 14.8505 39.5 15.1685 39.5 15.5V20.5C39.5 20.8315 39.6317 21.1495 39.8661 21.3839C40.1006 21.6183 40.4185 21.75 40.75 21.75H40.8949L41.4105 30.5H30.75V24.25C30.75 23.9185 30.6183 23.6005 30.3839 23.3661C30.1495 23.1317 29.8315 23 29.5 23H25.75V20.5C25.75 20.1685 25.6183 19.8505 25.3839 19.6161C25.1495 19.3817 24.8315 19.25 24.5 19.25H19.5C19.1685 19.25 18.8505 19.3817 18.6161 19.6161C18.3817 19.8505 18.25 20.1685 18.25 20.5V23H15.75V20.5C15.75 20.1685 15.6183 19.8505 15.3839 19.6161C15.1495 19.3817 14.8315 19.25 14.5 19.25H9.50001C9.16849 19.25 8.85055 19.3817 8.61613 19.6161C8.38171 19.8505 8.25001 20.1685 8.25001 20.5V23H4.50001C4.16849 23 3.85055 23.1317 3.61613 23.3661C3.38171 23.6005 3.25001 23.9185 3.25001 24.25V36.75H2.00001C1.82586 36.75 1.65363 36.7864 1.49436 36.8568C1.33509 36.9273 1.1923 37.0302 1.07514 37.1591C0.957984 37.2879 0.869043 37.4399 0.814023 37.6051C0.759002 37.7703 0.739116 37.9452 0.755639 38.1186L3.25564 64.3686C3.28514 64.6782 3.42899 64.9657 3.6591 65.1749C3.8892 65.3841 4.18902 65.5 4.50001 65.5H19.5035C20.085 66.2761 20.8392 66.9061 21.7065 67.34C22.5738 67.774 23.5302 67.9999 24.5 68H48.0469C48.7415 69.5939 49.7612 71.0253 51.0405 72.2027C52.3199 73.3801 53.8309 74.2776 55.4769 74.8377C57.1228 75.3979 58.8676 75.6084 60.5996 75.4559C62.3316 75.3033 64.0127 74.791 65.5354 73.9517C67.0581 73.1124 68.3889 71.9646 69.4428 70.5817C70.4966 69.1988 71.2503 67.6112 71.6556 65.9204C72.0609 64.2296 72.109 62.4729 71.7967 60.7625C71.4844 59.0521 70.8186 57.4256 69.8419 55.9872L71.8553 21.75H72C72.3315 21.75 72.6495 21.6183 72.8839 21.3839C73.1183 21.1495 73.25 20.8315 73.25 20.5V15.5C73.25 15.1685 73.1183 14.8505 72.8839 14.6161C72.6495 14.3817 72.3315 14.25 72 14.25ZM54.5 5.5H45.75V3H54.5C55.4942 3.00116 56.4474 3.39662 57.1504 4.09963C57.8534 4.80264 58.2489 5.75579 58.25 6.75V14.25H55.75V6.75C55.75 6.41848 55.6183 6.10054 55.3839 5.86612C55.1495 5.6317 54.8315 5.5 54.5 5.5ZM42 16.75H70.75V19.25H42V16.75ZM59.5 50.5C58.228 50.4992 56.9633 50.6933 55.75 51.0755V49.2473C56.4955 48.6861 57.1069 47.966 57.5397 47.1392C57.7647 47.1567 57.9902 47.168 58.2156 47.168C60.059 47.1721 61.8555 46.5877 63.3438 45.5L68.1609 41.9967L67.4906 53.3955C65.2495 51.5223 62.4209 50.4973 59.5 50.5ZM18.4642 45.5H25.5358C25.2774 46.2313 24.7986 46.8645 24.1654 47.3123C23.5321 47.7602 22.7756 48.0007 22 48.0007C21.2244 48.0007 20.4679 47.7602 19.8346 47.3123C19.2014 46.8645 18.7226 46.2313 18.4642 45.5ZM20.75 55.5H35.75V58H20.75V55.5ZM38.25 55.5H49.5069C48.925 56.274 48.4351 57.1129 48.0469 58H38.25V55.5ZM52.0086 53H20.75V50.375C21.9101 50.6114 23.1135 50.5133 24.22 50.0922C25.3265 49.671 26.2906 48.9442 27 47.9964C27.5814 48.7738 28.336 49.405 29.2039 49.8397C30.0719 50.2744 31.0293 50.5008 32 50.5008C32.9708 50.5008 33.9281 50.2744 34.7961 49.8397C35.664 49.405 36.4187 48.7738 37 47.9964C37.5814 48.7738 38.336 49.405 39.2039 49.8397C40.0719 50.2744 41.0293 50.5008 42 50.5008C42.9708 50.5008 43.9281 50.2744 44.7961 49.8397C45.664 49.405 46.4187 48.7738 47 47.9964C47.7094 48.9442 48.6735 49.671 49.78 50.0922C50.8865 50.5133 52.0899 50.6114 53.25 50.375V52.1825C52.8204 52.4302 52.4059 52.7032 52.0086 53ZM28.4642 45.5H35.5358C35.2774 46.2313 34.7986 46.8645 34.1654 47.3123C33.5321 47.7602 32.7756 48.0007 32 48.0007C31.2244 48.0007 30.4679 47.7602 29.8346 47.3123C29.2014 46.8645 28.7226 46.2313 28.4642 45.5ZM38.4642 45.5H45.5358C45.2774 46.2313 44.7986 46.8645 44.1654 47.3123C43.5321 47.7602 42.7756 48.0007 42 48.0007C41.2244 48.0007 40.4679 47.7602 39.8346 47.3123C39.2014 46.8645 38.7226 46.2313 38.4642 45.5ZM55.5358 45.5C55.2774 46.2313 54.7986 46.8645 54.1654 47.3123C53.5321 47.7602 52.7756 48.0007 52 48.0007C51.2244 48.0007 50.4679 47.7602 49.8346 47.3123C49.2014 46.8645 48.7226 46.2313 48.4642 45.5H55.5358ZM68.3502 38.7675L61.8722 43.4784C60.8161 44.2499 59.5424 44.666 58.2345 44.6669C58.2438 44.5289 58.2502 44.3902 58.2502 44.25C58.2502 43.9185 58.1185 43.6005 57.8841 43.3661C57.6496 43.1317 57.3317 43 57.0002 43H55.7502V41.75C55.7521 39.3787 55.0005 37.0682 53.6039 35.1519C54.2352 35.1633 54.8611 35.2708 55.4602 35.4705C56.7765 35.909 58.1786 36.0271 59.5497 35.8148C60.9209 35.6025 62.2216 35.0661 63.3438 34.25L68.8522 30.2442L68.3502 38.7675ZM53.25 41.75V43H20.75V41.75C20.7526 39.4302 21.6753 37.2061 23.3157 35.5657C24.9561 33.9253 27.1802 33.0026 29.5 33H44.5C46.8199 33.0026 49.0439 33.9253 50.6843 35.5657C52.3247 37.2061 53.2474 39.4302 53.25 41.75ZM28.25 25.5V30.5711C27.3974 30.6657 26.5585 30.8583 25.75 31.145V25.5H28.25ZM20.75 21.75H23.25V32.4011C22.3067 33.0345 21.464 33.806 20.75 34.6898V21.75ZM18.25 25.5V42.8419C17.43 43.0528 16.57 43.0528 15.75 42.8419V25.5H18.25ZM10.75 21.75H13.25V41.3019C12.444 40.3909 11.9993 39.2164 12 38C12 37.6685 11.8683 37.3505 11.6339 37.1161C11.3995 36.8817 11.0815 36.75 10.75 36.75V21.75ZM5.75001 25.5H8.25001V36.75H5.75001V25.5ZM5.63658 63L3.37501 39.25H9.60423C9.86965 40.803 10.6163 42.2334 11.7387 43.339C12.8611 44.4447 14.3026 45.1697 15.8594 45.4117C16.1508 46.9431 17.0033 48.3106 18.25 49.2466V61.75C18.2499 62.1698 18.292 62.5886 18.3758 63H5.63658ZM24.5 65.5C23.5058 65.4988 22.5527 65.1034 21.8496 64.4004C21.1466 63.6974 20.7512 62.7442 20.75 61.75V60.5H47.2516C46.9162 62.1498 46.9162 63.8502 47.2516 65.5H24.5ZM59.5 53C61.72 52.9984 63.8767 53.7394 65.6269 55.1052L51.6052 69.1269C50.4562 67.6499 49.7451 65.8799 49.5528 64.0186C49.3606 62.1572 49.6948 60.2793 50.5176 58.5986C51.3404 56.9179 52.6186 55.502 54.2066 54.5122C55.7947 53.5224 57.6288 52.9985 59.5 53ZM59.5 73C57.28 73.0016 55.1233 72.2606 53.3731 70.8948L67.3949 56.8731C68.5438 58.3501 69.2549 60.1201 69.4472 61.9814C69.6395 63.8428 69.3052 65.7207 68.4824 67.4014C67.6597 69.0821 66.3815 70.498 64.7934 71.4878C63.2054 72.4776 61.3713 73.0015 59.5 73ZM69.0413 27.0156L61.8722 32.2289C61.0718 32.8108 60.144 33.1933 59.166 33.3446C58.1881 33.4959 57.1881 33.4116 56.2492 33.0988C54.6947 32.5772 53.0239 32.5081 51.4316 32.8994C49.4562 31.3436 47.0145 30.4984 44.5 30.5H43.9145L43.3989 21.75H69.351L69.0413 27.0156Z" fill="#FE3C3B"/>
<path d="M33.25 40.5C33.9404 40.5 34.5 39.9404 34.5 39.25C34.5 38.5596 33.9404 38 33.25 38C32.5596 38 32 38.5596 32 39.25C32 39.9404 32.5596 40.5 33.25 40.5Z" fill="#FE3C3B"/>
<path d="M29.5 38C30.1904 38 30.75 37.4404 30.75 36.75C30.75 36.0596 30.1904 35.5 29.5 35.5C28.8096 35.5 28.25 36.0596 28.25 36.75C28.25 37.4404 28.8096 38 29.5 38Z" fill="#FE3C3B"/>
<path d="M37 38C37.6904 38 38.25 37.4404 38.25 36.75C38.25 36.0596 37.6904 35.5 37 35.5C36.3096 35.5 35.75 36.0596 35.75 36.75C35.75 37.4404 36.3096 38 37 38Z" fill="#FE3C3B"/>
<path d="M40.75 40.5C41.4404 40.5 42 39.9404 42 39.25C42 38.5596 41.4404 38 40.75 38C40.0596 38 39.5 38.5596 39.5 39.25C39.5 39.9404 40.0596 40.5 40.75 40.5Z" fill="#FE3C3B"/>
<path d="M44.5 38C45.1904 38 45.75 37.4404 45.75 36.75C45.75 36.0596 45.1904 35.5 44.5 35.5C43.8096 35.5 43.25 36.0596 43.25 36.75C43.25 37.4404 43.8096 38 44.5 38Z" fill="#FE3C3B"/>
</svg>
