<svg width="78" height="78" viewBox="0 0 78 78" fill="none" xmlns="http://www.w3.org/2000/svg">
<path fill-rule="evenodd" clip-rule="evenodd" d="M76.0938 70.0625H74.0625V66.2188C74.0625 65.9287 73.9473 65.6505 73.7421 65.4454C73.537 65.2402 73.2588 65.125 72.9688 65.125H70.5497V19.548H73.75C74.0401 19.548 74.3183 19.4327 74.5234 19.2276C74.7285 19.0225 74.8438 18.7443 74.8438 18.4542V13.5167C74.8438 13.2266 74.7285 12.9484 74.5234 12.7433C74.3183 12.5382 74.0401 12.423 73.75 12.423H70.5497V1.09375C70.5497 0.803669 70.4345 0.52547 70.2293 0.320352C70.0242 0.115234 69.746 0 69.4559 0H7.73156C7.44148 0 7.16328 0.115234 6.95816 0.320352C6.75305 0.52547 6.63781 0.803669 6.63781 1.09375V12.423H3.4375C3.14742 12.423 2.86922 12.5382 2.6641 12.7433C2.45898 12.9484 2.34375 13.2266 2.34375 13.5167V18.4542C2.34375 18.7443 2.45898 19.0225 2.6641 19.2276C2.86922 19.4327 3.14742 19.548 3.4375 19.548H6.63781V65.125H4.21875C3.92867 65.125 3.65047 65.2402 3.44535 65.4454C3.24023 65.6505 3.125 65.9287 3.125 66.2188V70.0625H1.09375C0.803669 70.0625 0.52547 70.1777 0.320352 70.3829C0.115234 70.588 0 70.8662 0 71.1562V76.0938C0 76.3838 0.115234 76.662 0.320352 76.8671C0.52547 77.0723 0.803669 77.1875 1.09375 77.1875H76.0938C76.3838 77.1875 76.662 77.0723 76.8671 76.8671C77.0723 76.662 77.1875 76.3838 77.1875 76.0938V71.1562C77.1875 70.8662 77.0723 70.588 76.8671 70.3829C76.662 70.1777 76.3838 70.0625 76.0938 70.0625ZM72.6562 17.3605H50.1094C50.2219 16.4473 50.2219 15.5237 50.1094 14.6105H72.6562V17.3605ZM8.82531 2.1875H68.3622V12.423H49.6317C48.8785 10.0879 47.4043 8.05192 45.4209 6.60767C43.4375 5.16342 41.0472 4.38535 38.5938 4.38535C36.1403 4.38535 33.75 5.16342 31.7666 6.60767C29.7832 8.05192 28.309 10.0879 27.5558 12.423H8.82531V2.1875ZM48.0062 15.9856C48.0062 17.8472 47.4542 19.667 46.4199 21.2149C45.3856 22.7627 43.9156 23.9691 42.1956 24.6815C40.4757 25.3939 38.5832 25.5803 36.7574 25.2171C34.9315 24.8539 33.2544 23.9574 31.9381 22.6411C30.6217 21.3247 29.7253 19.6475 29.3621 17.8217C28.9989 15.9959 29.1853 14.1033 29.8977 12.3834C30.6102 10.6635 31.8166 9.1935 33.3645 8.15925C34.9123 7.125 36.7321 6.57297 38.5938 6.57297C41.0893 6.57578 43.4818 7.56838 45.2463 9.33299C47.0109 11.0976 48.0035 13.4901 48.0062 15.9856ZM4.53125 14.6105H27.0781C26.9656 15.5237 26.9656 16.4473 27.0781 17.3605H4.53125V14.6105ZM8.82516 19.548H27.5558C28.309 21.883 29.7832 23.919 31.7666 25.3633C33.75 26.8075 36.1403 27.5856 38.5938 27.5856C41.0472 27.5856 43.4375 26.8075 45.4209 25.3633C47.4043 23.919 48.8785 21.883 49.6317 19.548H68.3622V65.125H49.8116V32.5019C49.8116 32.2118 49.6963 31.9336 49.4912 31.7285C49.2861 31.5234 49.0079 31.4081 48.7178 31.4081H28.4697C28.1796 31.4081 27.9014 31.5234 27.6963 31.7285C27.4912 31.9336 27.3759 32.2118 27.3759 32.5019V65.125H8.82531L8.82516 19.548ZM47.6241 65.125H29.5634V33.5956H47.6241V65.125ZM5.3125 67.3125H71.875V70.0625H5.3125V67.3125ZM75 75H2.1875V72.25H75V75ZM42.0156 12.5637V9.97C42.0156 9.67992 41.9004 9.40172 41.6953 9.1966C41.4902 8.99148 41.212 8.87625 40.9219 8.87625H36.2656C35.9755 8.87625 35.6973 8.99148 35.4922 9.1966C35.2871 9.40172 35.1719 9.67992 35.1719 9.97V12.5637H32.5781C32.288 12.5637 32.0098 12.679 31.8047 12.8841C31.5996 13.0892 31.4844 13.3674 31.4844 13.6575V18.3137C31.4844 18.6038 31.5996 18.882 31.8047 19.0871C32.0098 19.2923 32.288 19.4075 32.5781 19.4075H35.1719V22.0012C35.1719 22.2913 35.2871 22.5695 35.4922 22.7746C35.6973 22.9798 35.9755 23.095 36.2656 23.095H40.9219C41.212 23.095 41.4902 22.9798 41.6953 22.7746C41.9004 22.5695 42.0156 22.2913 42.0156 22.0012V19.4075H44.6094C44.8995 19.4075 45.1777 19.2923 45.3828 19.0871C45.5879 18.882 45.7031 18.6038 45.7031 18.3137V13.6575C45.7031 13.3674 45.5879 13.0892 45.3828 12.8841C45.1777 12.679 44.8995 12.5637 44.6094 12.5637H42.0156ZM43.5156 17.22H40.9219C40.6318 17.22 40.3536 17.3352 40.1485 17.5404C39.9434 17.7455 39.8281 18.0237 39.8281 18.3137V20.9075H37.3594V18.3137C37.3594 18.0237 37.2441 17.7455 37.039 17.5404C36.8339 17.3352 36.5557 17.22 36.2656 17.22H33.6719V14.7512H36.2656C36.5557 14.7512 36.8339 14.636 37.039 14.4309C37.2441 14.2258 37.3594 13.9476 37.3594 13.6575V11.0637H39.8281V13.6575C39.8281 13.9476 39.9434 14.2258 40.1485 14.4309C40.3536 14.636 40.6318 14.7512 40.9219 14.7512H43.5156V17.22ZM53.5247 52.1202H64.6497C64.9398 52.1202 65.218 52.0049 65.4231 51.7998C65.6282 51.5947 65.7434 51.3165 65.7434 51.0264V32.5019C65.7434 32.2118 65.6282 31.9336 65.4231 31.7285C65.218 31.5234 64.9398 31.4081 64.6497 31.4081H53.5247C53.2346 31.4081 52.9564 31.5234 52.7513 31.7285C52.5462 31.9336 52.4309 32.2118 52.4309 32.5019V51.0262C52.4309 51.3163 52.5462 51.5945 52.7513 51.7997C52.9564 52.0048 53.2346 52.12 53.5247 52.12V52.1202ZM54.6184 33.5958H63.5559V49.9325H54.6184V33.5958ZM23.663 31.4083H12.538C12.2479 31.4083 11.9697 31.5235 11.7646 31.7286C11.5595 31.9338 11.4442 32.212 11.4442 32.502V51.0262C11.4442 51.3163 11.5595 51.5945 11.7646 51.7997C11.9697 52.0048 12.2479 52.12 12.538 52.12H23.663C23.953 52.12 24.2312 52.0048 24.4364 51.7997C24.6415 51.5945 24.7567 51.3163 24.7567 51.0262V32.5019C24.7567 32.2118 24.6415 31.9336 24.4364 31.7285C24.2312 31.5234 23.953 31.4081 23.663 31.4081V31.4083ZM22.5692 49.9327H13.6317V33.5956H22.5692V49.9327ZM44.222 49.3605C44.222 49.1109 44.296 48.8669 44.4346 48.6594C44.5733 48.4518 44.7703 48.2901 45.0009 48.1945C45.2315 48.099 45.4852 48.074 45.73 48.1227C45.9748 48.1713 46.1996 48.2915 46.3761 48.468C46.5526 48.6444 46.6728 48.8693 46.7215 49.1141C46.7702 49.3589 46.7452 49.6126 46.6497 49.8432C46.5542 50.0738 46.3925 50.2708 46.185 50.4095C45.9775 50.5482 45.7335 50.6222 45.4839 50.6222C45.1494 50.6215 44.8289 50.4884 44.5924 50.2519C44.3559 50.0154 44.2227 49.6948 44.222 49.3603V49.3605Z" fill="#FE3C3B"/>
</svg>
