<svg width="50" height="50" viewBox="0 0 50 50" fill="none" xmlns="http://www.w3.org/2000/svg">
<g clip-path="url(#clip0_191_4565)">
<mask id="mask0_191_4565" style="mask-type:luminance" maskUnits="userSpaceOnUse" x="0" y="0" width="50" height="50">
<path d="M50 0H0V50H50V0Z" fill="white"/>
</mask>
<g mask="url(#mask0_191_4565)">
<path d="M28.1374 12.5527H20.2923C19.4833 12.5527 18.8274 13.2086 18.8274 14.0176V25.1048H17.1543C16.3453 25.1048 15.6895 25.7607 15.6895 26.5696C15.6895 27.3786 16.3453 28.0345 17.1543 28.0345H18.8274V31.3809H17.1543C16.3453 31.3809 15.6895 32.0367 15.6895 32.8457C15.6895 33.6547 16.3453 34.3106 17.1543 34.3106H18.8274V37.5527C18.8274 38.3617 19.4833 39.0176 20.2923 39.0176C21.1013 39.0176 21.7571 38.3617 21.7571 37.5527V34.3106H28.1374C28.9464 34.3106 29.6022 33.6547 29.6022 32.8457C29.6022 32.0367 28.9464 31.3809 28.1374 31.3809H21.7571V28.0345H28.1374C32.4058 28.0345 35.8783 24.5619 35.8783 20.2936C35.8782 15.9197 32.3154 12.5527 28.1374 12.5527ZM28.1374 25.1048H21.7571V15.4824H28.1374C30.7743 15.4824 32.9486 17.6094 32.9486 20.2937C32.9485 22.9466 30.7903 25.1048 28.1374 25.1048Z" fill="#FE3C3B"/>
<path d="M25 0C11.2149 0 0 11.2149 0 25C0 38.7851 11.2149 50 25 50C38.7851 50 50 38.7851 50 25C50 11.2149 38.7851 0 25 0ZM25 47.0703C12.8304 47.0703 2.92969 37.1696 2.92969 25C2.92969 12.8304 12.8304 2.92969 25 2.92969C37.1696 2.92969 47.0703 12.8304 47.0703 25C47.0703 37.1696 37.1696 47.0703 25 47.0703Z" fill="#FE3C3B"/>
</g>
</g>
<defs>
<clipPath id="clip0_191_4565">
<rect width="50" height="50" fill="white"/>
</clipPath>
</defs>
</svg>
