<svg width="52" height="52" viewBox="0 0 52 52" fill="none" xmlns="http://www.w3.org/2000/svg">
<g clip-path="url(#clip0_160_5076)">
<path d="M42.7494 20.8537C43.8902 20.2323 44.856 19.3333 45.5576 18.24C46.2593 17.1467 46.6741 15.8941 46.7638 14.5981C47.2791 14.4234 47.7268 14.0918 48.0442 13.6497C48.3616 13.2077 48.5327 12.6775 48.5335 12.1333V8.66667C48.531 6.3689 47.6171 4.16596 45.9923 2.54119C44.3675 0.916426 42.1646 0.00252338 39.8668 0L38.1335 0C35.8357 0.00252338 33.6328 0.916426 32.008 2.54119C30.3833 4.16596 29.4694 6.3689 29.4668 8.66667V12.1333C29.4677 12.6775 29.6388 13.2077 29.9561 13.6497C30.2735 14.0918 30.7212 14.4234 31.2366 14.5981C31.3261 15.8939 31.7406 17.1461 32.442 18.2393C33.1433 19.3325 34.1088 20.2314 35.2492 20.8529C34.6125 20.9047 33.9803 21.0017 33.3573 21.1432C32.547 20.2192 31.5489 19.4788 30.4297 18.9712C29.3104 18.4637 28.0958 18.2008 26.8668 18.2H25.1335C24.3276 18.2019 23.526 18.3166 22.7519 18.5406C21.9283 16.8149 21.555 14.9089 21.6668 13V9.53333C21.6668 7.00494 20.6624 4.5801 18.8746 2.79225C17.0867 1.0044 14.6619 0 12.1335 0C9.6051 0 7.18026 1.0044 5.39241 2.79225C3.60457 4.5801 2.60016 7.00494 2.60016 9.53333V13C2.60016 17.2779 1.41976 18.9635 0.722963 19.5867C0.296856 19.9772 0.0388024 20.5177 0.00308109 21.0946C-0.0326402 21.6715 0.156755 22.2397 0.53143 22.6798C1.14791 23.2909 1.89323 23.7564 2.71283 24.0422C1.1719 25.4479 0.000162821 27.6657 0.000162821 31.2V32.0667C0.000162821 32.7562 0.274091 33.4175 0.761685 33.9051C1.24928 34.3927 1.9106 34.6667 2.60016 34.6667H18.6335C18.909 35.6048 19.372 36.4772 19.9944 37.2313C20.6167 37.9853 21.3856 38.6053 22.2544 39.0537C17.7521 39.4333 13.0002 42.0524 13.0002 48.5333V49.4C13.0002 50.0896 13.2741 50.7509 13.7617 51.2385C14.2493 51.7261 14.9106 52 15.6002 52H36.4002C37.0897 52 37.751 51.7261 38.2386 51.2385C38.7262 50.7509 39.0002 50.0896 39.0002 49.4V48.5333C39.0002 42.0524 34.2482 39.429 29.7494 39.0537C30.6176 38.605 31.3857 37.9848 32.0075 37.2308C32.6293 36.4767 33.0917 35.6045 33.3668 34.6667H49.4002C50.0897 34.6667 50.7511 34.3927 51.2386 33.9051C51.7262 33.4175 52.0002 32.7562 52.0002 32.0667V30.3333C52.0002 23.8524 47.2482 21.2333 42.7494 20.8537ZM31.2002 8.66667C31.2022 6.82847 31.9334 5.06614 33.2332 3.76634C34.533 2.46653 36.2953 1.7354 38.1335 1.73333H39.8668C41.705 1.7354 43.4674 2.46653 44.7672 3.76634C46.067 5.06614 46.7981 6.82847 46.8002 8.66667V9.6876C46.7716 9.6772 46.7447 9.66247 46.7135 9.6538C46.5493 8.94755 46.1617 8.3131 45.6082 7.8447C45.0547 7.3763 44.3649 7.09893 43.6412 7.0538C42.1496 7.0203 40.7196 6.4526 39.6112 5.45393C39.4486 5.29146 39.2282 5.20019 38.9984 5.20019C38.7686 5.20019 38.5482 5.29146 38.3857 5.45393C37.2775 6.45293 35.8473 7.02068 34.3557 7.0538C33.6321 7.09907 32.9423 7.37648 32.3888 7.84486C31.8354 8.31324 31.4477 8.94761 31.2834 9.6538C31.2539 9.66247 31.227 9.6772 31.1967 9.6876L31.2002 8.66667ZM32.9335 13.8667C32.9335 13.6368 32.8422 13.4164 32.6797 13.2538C32.5171 13.0913 32.2967 13 32.0668 13C31.837 13 31.6165 12.9087 31.454 12.7462C31.2915 12.5836 31.2002 12.3632 31.2002 12.1333C31.2002 11.9035 31.2915 11.683 31.454 11.5205C31.6165 11.358 31.837 11.2667 32.0668 11.2667C32.2967 11.2667 32.5171 11.1754 32.6797 11.0128C32.8422 10.8503 32.9335 10.6299 32.9335 10.4C32.9359 9.98636 33.0955 9.58913 33.3801 9.28894C33.6647 8.98874 34.0528 8.8081 34.4658 8.78367C36.0999 8.72736 37.6796 8.18179 39.0002 7.2176C40.3208 8.18179 41.9004 8.72736 43.5346 8.78367C43.9475 8.8081 44.3356 8.98874 44.6202 9.28894C44.9048 9.58913 45.0645 9.98636 45.0668 10.4C45.0668 10.6299 45.1581 10.8503 45.3207 11.0128C45.4832 11.1754 45.7036 11.2667 45.9335 11.2667C46.1634 11.2667 46.3838 11.358 46.5463 11.5205C46.7089 11.683 46.8002 11.9035 46.8002 12.1333C46.8002 12.3632 46.7089 12.5836 46.5463 12.7462C46.3838 12.9087 46.1634 13 45.9335 13C45.7036 13 45.4832 13.0913 45.3207 13.2538C45.1581 13.4164 45.0668 13.6368 45.0668 13.8667C45.0668 14.1145 44.9654 19.9333 39.0002 19.9333C33.0349 19.9333 32.9335 14.1119 32.9335 13.8667ZM40.7335 21.5115V21.6667C40.7335 22.1264 40.5509 22.5673 40.2258 22.8923C39.9008 23.2174 39.4599 23.4 39.0002 23.4C38.5405 23.4 38.0996 23.2174 37.7745 22.8923C37.4495 22.5673 37.2668 22.1264 37.2668 21.6667V21.5089C38.4128 21.7192 39.5875 21.7192 40.7335 21.5089V21.5115ZM25.1335 19.9333H26.8668C28.705 19.9354 30.4674 20.6665 31.7672 21.9663C33.067 23.2661 33.7981 25.0285 33.8002 26.8667V27.8876C33.7716 27.8772 33.7447 27.8625 33.7135 27.8538C33.5493 27.1474 33.1615 26.5129 32.6078 26.0445C32.0542 25.576 31.3641 25.2987 30.6403 25.2538C29.1489 25.2206 27.7191 24.6529 26.6112 23.6539C26.4486 23.4915 26.2282 23.4002 25.9984 23.4002C25.7686 23.4002 25.5482 23.4915 25.3857 23.6539C24.2779 24.653 22.848 25.2208 21.3566 25.2538C20.6328 25.2989 19.9428 25.5762 19.3892 26.0446C18.8355 26.513 18.4477 27.1475 18.2834 27.8538C18.2539 27.8625 18.227 27.8772 18.1967 27.8876V26.8667C18.1988 25.0279 18.9304 23.265 20.2309 21.9651C21.5315 20.6652 23.2947 19.9345 25.1335 19.9333ZM21.1347 19.1854C19.8358 19.8644 18.7288 20.8596 17.9159 22.0792C17.1587 21.875 16.3829 21.7478 15.6002 21.6996V21.2663H15.5672C17.369 19.7016 18.7774 17.7351 19.6787 15.5255C19.812 15.4926 19.9424 15.4491 20.0687 15.3955C20.1932 16.7126 20.5543 17.9965 21.1347 19.1854ZM4.3335 9.53333C4.3335 7.46464 5.15528 5.48068 6.61806 4.0179C8.08085 2.55512 10.0648 1.73333 12.1335 1.73333C14.2022 1.73333 16.1861 2.55512 17.6489 4.0179C19.1117 5.48068 19.9335 7.46464 19.9335 9.53333V10.5543C19.9092 10.5456 19.8867 10.5326 19.8616 10.5248C19.4596 9.06097 18.5372 7.79412 17.2676 6.96193C16.8365 6.64968 16.3288 6.46005 15.7985 6.4132C15.2682 6.36636 14.7352 6.46404 14.256 6.69587C12.2668 7.47351 10.1517 7.8792 8.01596 7.89273L7.49596 7.92307C6.77224 7.96676 6.08195 8.2429 5.52777 8.71041C4.97359 9.17793 4.58513 9.81184 4.42016 10.5179C4.38983 10.5274 4.3647 10.5456 4.3335 10.556V9.53333ZM4.59956 12.3821C4.67782 12.3024 4.77134 12.2393 4.87454 12.1965C4.97773 12.1538 5.08848 12.1323 5.20016 12.1333C5.43002 12.1333 5.65046 12.042 5.81299 11.8795C5.97552 11.717 6.06683 11.4965 6.06683 11.2667C6.06933 10.8522 6.23006 10.4543 6.51616 10.1543C6.80225 9.85437 7.19211 9.67502 7.60603 9.65293L8.10956 9.62347C10.469 9.60403 12.8039 9.14281 14.9935 8.26367C15.1679 8.18171 15.3581 8.13882 15.5508 8.138C15.7982 8.13605 16.0397 8.21351 16.2398 8.359C16.9721 8.89807 18.2002 9.9918 18.2002 11.2667C18.2002 11.4965 18.2915 11.717 18.454 11.8795C18.6165 12.042 18.837 12.1333 19.0668 12.1333C19.2967 12.1333 19.5171 12.2246 19.6797 12.3872C19.8422 12.5497 19.9335 12.7701 19.9335 13C19.9335 13.2299 19.8422 13.4503 19.6797 13.6128C19.5171 13.7754 19.2967 13.8667 19.0668 13.8667C18.8904 13.8665 18.7181 13.9202 18.573 14.0205C18.4279 14.1209 18.3169 14.2631 18.2548 14.4283C17.5935 16.2006 15.1954 20.8 12.1335 20.8C9.07156 20.8 6.6787 16.2006 6.01223 14.4283C5.95013 14.2631 5.8391 14.1209 5.69399 14.0205C5.54888 13.9202 5.3766 13.8665 5.20016 13.8667C4.97031 13.8667 4.74987 13.7754 4.58734 13.6128C4.42481 13.4503 4.3335 13.2299 4.3335 13C4.33327 12.8843 4.35676 12.7698 4.40252 12.6635C4.44828 12.5572 4.51535 12.4614 4.59956 12.3821ZM13.8668 22.2101V22.5333C13.8824 22.765 13.8483 22.9973 13.7667 23.2147C13.6851 23.4321 13.558 23.6295 13.3938 23.7936C13.2296 23.9578 13.0322 24.085 12.8148 24.1666C12.5975 24.2481 12.3652 24.2823 12.1335 24.2667C11.9018 24.2823 11.6695 24.2481 11.4522 24.1666C11.2348 24.085 11.0374 23.9578 10.8732 23.7936C10.709 23.6295 10.5819 23.4321 10.5003 23.2147C10.4187 22.9973 10.3846 22.765 10.4002 22.5333V22.2101C11.5155 22.6411 12.7515 22.6411 13.8668 22.2101ZM1.84616 21.5445C1.77001 21.4503 1.73021 21.3319 1.73403 21.2108C1.73785 21.0898 1.78502 20.9741 1.86696 20.8849C2.78043 20.0737 3.83603 18.4851 4.2009 15.3981C4.3264 15.4513 4.45594 15.4945 4.5883 15.5272C5.48955 17.7368 6.89798 19.7034 8.69976 21.268H8.66683V21.7013C7.21754 21.7949 5.80067 22.1718 4.49643 22.8107C3.52104 22.6168 2.60982 22.1815 1.84616 21.5445ZM2.60016 32.9333C2.37031 32.9333 2.14987 32.842 1.98734 32.6795C1.82481 32.517 1.7335 32.2965 1.7335 32.0667V31.2C1.7335 24.9773 5.83803 23.6123 8.7665 23.4277C8.9144 24.0872 9.2654 24.6838 9.7701 25.1333C10.4251 25.7021 11.2661 26.0105 12.1335 26C12.9036 26.022 13.6579 25.7784 14.2696 25.31C14.8812 24.8416 15.3131 24.177 15.4927 23.4277C16.0303 23.4622 16.5644 23.539 17.09 23.6574C16.6793 24.6776 16.4678 25.7669 16.4668 26.8667V30.3333C16.4677 30.8775 16.6388 31.4077 16.9561 31.8497C17.2735 32.2918 17.7212 32.6234 18.2366 32.7981C18.2366 32.8415 18.2487 32.8848 18.2539 32.9333H2.60016ZM22.9729 40.7411L24.7747 43.1435L23.3456 44.1636L21.6894 40.8573C22.115 40.7969 22.5434 40.7581 22.9729 40.7411ZM26.0002 41.8886L24.3778 39.7263C25.4513 39.9134 26.5491 39.9134 27.6226 39.7263L26.0002 41.8886ZM27.2248 45.2729L27.0584 45.9333H24.942L24.7756 45.2721L26.0002 44.3985L27.2248 45.2729ZM22.6895 50.2667H15.6002C15.3703 50.2667 15.1499 50.1754 14.9873 50.0128C14.8248 49.8503 14.7335 49.6299 14.7335 49.4V48.5333C14.7335 43.8993 17.4522 42.0073 19.9422 41.2421L21.8358 45.0207C21.9436 45.2365 22.0974 45.4259 22.2864 45.5757C22.4753 45.7254 22.6949 45.8318 22.9296 45.8874C23.0022 45.9017 23.0758 45.9104 23.1497 45.9134L23.3785 46.8225L22.6895 50.2667ZM24.4575 50.2667L24.9775 47.6667H27.0228L27.5428 50.2667H24.4575ZM37.2668 48.5333V49.4C37.2668 49.6299 37.1755 49.8503 37.013 50.0128C36.8505 50.1754 36.63 50.2667 36.4002 50.2667H29.3108L28.6175 46.8225L28.8463 45.916C28.9203 45.9116 28.9938 45.9021 29.0664 45.8874C29.3011 45.8318 29.5207 45.7254 29.7096 45.5757C29.8986 45.4259 30.0524 45.2365 30.1602 45.0207L32.0538 41.2412C34.5481 42.0073 37.2668 43.8993 37.2668 48.5333ZM30.311 40.8573L28.6548 44.1636L27.2256 43.1435L29.0274 40.7411C29.457 40.7581 29.8854 40.7969 30.311 40.8573ZM32.9335 31.2C32.7036 31.2 32.4832 31.2913 32.3207 31.4538C32.1581 31.6164 32.0668 31.8368 32.0668 32.0667C32.0668 32.3145 31.9654 38.1333 26.0002 38.1333C20.0349 38.1333 19.9335 32.3119 19.9335 32.0667C19.9335 31.8368 19.8422 31.6164 19.6797 31.4538C19.5171 31.2913 19.2967 31.2 19.0668 31.2C18.837 31.2 18.6165 31.1087 18.454 30.9462C18.2915 30.7836 18.2002 30.5632 18.2002 30.3333C18.2002 30.1035 18.2915 29.883 18.454 29.7205C18.6165 29.558 18.837 29.4667 19.0668 29.4667C19.2967 29.4667 19.5171 29.3754 19.6797 29.2128C19.8422 29.0503 19.9335 28.8299 19.9335 28.6C19.9359 28.1864 20.0955 27.7891 20.3801 27.4889C20.6647 27.1887 21.0528 27.0081 21.4658 26.9837C23.1 26.9279 24.6798 26.3823 26.0002 25.4176C27.3206 26.3821 28.9003 26.9277 30.5346 26.9837C30.9475 27.0081 31.3356 27.1887 31.6202 27.4889C31.9048 27.7891 32.0645 28.1864 32.0668 28.6C32.0668 28.8299 32.1581 29.0503 32.3207 29.2128C32.4832 29.3754 32.7036 29.4667 32.9335 29.4667C33.1634 29.4667 33.3838 29.558 33.5463 29.7205C33.7089 29.883 33.8002 30.1035 33.8002 30.3333C33.8002 30.5632 33.7089 30.7836 33.5463 30.9462C33.3838 31.1087 33.1634 31.2 32.9335 31.2ZM50.2668 32.0667C50.2668 32.2965 50.1755 32.517 50.013 32.6795C49.8505 32.842 49.63 32.9333 49.4002 32.9333H33.7464C33.7516 32.8891 33.7594 32.8415 33.7638 32.7981C34.2791 32.6234 34.7268 32.2918 35.0442 31.8497C35.3616 31.4077 35.5327 30.8775 35.5335 30.3333V26.8667C35.5344 25.4071 35.1646 23.9713 34.4588 22.6937C34.8428 22.6321 35.2388 22.5836 35.6323 22.5585C35.7797 23.2191 36.1311 23.8167 36.6368 24.2667C37.2917 24.8354 38.1328 25.1438 39.0002 25.1333C39.7704 25.1553 40.5247 24.9115 41.1364 24.443C41.7482 23.9744 42.18 23.3096 42.3594 22.5602C44.9212 22.7197 50.2668 23.8333 50.2668 30.3333V32.0667Z" fill="#FE3C3B"/>
</g>
<defs>
<clipPath id="clip0_160_5076">
<rect width="52" height="52" fill="white"/>
</clipPath>
</defs>
</svg>
