<svg width="50" height="50" viewBox="0 0 50 50" fill="none" xmlns="http://www.w3.org/2000/svg">
<path d="M25 0.394531L4.00391 8.03056V25.0027C4.00391 44.1808 24.378 49.3974 24.5831 49.4486L25 49.5494L25.4169 49.4486C25.622 49.3974 45.9961 44.1808 45.9961 25.0027V8.03056L25 0.394531ZM42.4967 25.0027C42.4967 40.1877 27.7834 45.136 25.0068 45.9339C22.3294 45.1411 7.50326 40.0578 7.50326 25.0027V10.4808L25 4.11942L42.4967 10.4808V25.0027Z" fill="#FE3C3B"/>
<path d="M15.7398 23.7663L13.2656 26.2404L21.5014 34.4762L36.7359 19.2417L34.2617 16.7676L21.5014 29.5279L15.7398 23.7663Z" fill="#FE3C3B"/>
</svg>
