<svg width="52" height="52" viewBox="0 0 52 52" fill="none" xmlns="http://www.w3.org/2000/svg">
<path d="M45.4161 6.76227H44.7991C45.9752 4.84755 45.5409 2.27696 43.6534 0.876538C41.6197 -0.632245 38.7296 -0.146584 37.3103 1.97441L34.1065 6.76237H6.58383C4.32157 6.76237 2.48109 8.60285 2.48109 10.8651V37.0956C2.48109 39.3578 4.32157 41.1983 6.58383 41.1983H22.5201L21.316 46.2557H18.7171C17.0234 46.2557 15.6455 47.6336 15.6455 49.3273V49.9686H12.4418C11.8808 49.9686 11.4261 50.4234 11.4261 50.9843C11.4261 51.5451 11.8808 51.9998 12.4418 51.9998H39.5583C40.1192 51.9998 40.5739 51.5451 40.5739 50.9843C40.5739 50.4234 40.1192 49.9686 39.5583 49.9686H36.3546V49.3273C36.3546 47.6336 34.9766 46.2557 33.2829 46.2557H30.6841L29.4799 41.1983H45.4162C47.6785 41.1983 49.5189 39.3578 49.5189 37.0956V31.3238V10.8651C49.5189 8.60275 47.6785 6.76227 45.4161 6.76227ZM30.8643 24.6165C29.2764 25.7281 26.3016 24.2172 23.4608 25.7331C22.7676 22.1322 23.2047 18.7457 26.8126 17.9982C27.2789 17.901 27.7808 17.8571 28.2082 17.8656C29.4294 18.7716 30.6646 19.688 31.8822 20.5916C32.4153 22.1422 32.2153 23.6709 30.8643 24.6165ZM31.8879 13.7304L34.7627 15.8634L32.5518 18.559C31.6417 17.8837 30.8592 17.3032 29.9491 16.6278C30.1381 16.3453 31.7151 13.9885 31.8879 13.7304ZM38.9985 3.10406C39.7677 1.9543 41.3365 1.68678 42.4431 2.50791C43.5502 3.32913 43.7484 4.90799 42.8712 5.97751C41.3148 7.87497 37.6146 12.3864 36.0522 14.2912L33.0186 12.0403L38.9985 3.10406ZM34.3233 49.3273V49.9686H17.6767V49.3273C17.6767 48.7537 18.1434 48.2869 18.7171 48.2869H33.2828C33.8565 48.2869 34.3233 48.7537 34.3233 49.3273ZM28.5959 46.2557H23.404L24.608 41.1983H27.3919L28.5959 46.2557ZM47.4877 37.0956C47.4877 38.2378 46.5585 39.1671 45.4162 39.1671C43.804 39.1671 8.39658 39.1671 6.58393 39.1671C5.44168 39.1671 4.5124 38.2378 4.5124 37.0956V32.3395H7.4146C7.97551 32.3395 8.4302 31.8847 8.4302 31.3238C8.4302 30.763 7.97551 30.3083 7.4146 30.3083H4.5122V10.8651C4.5122 9.72279 5.44147 8.79346 6.58373 8.79346H32.7473C31.7743 10.2476 28.9357 14.4895 28.0367 15.833C26.0464 15.851 24.0594 16.5444 22.7586 18.0629C20.9885 20.1292 20.6775 23.3758 21.8343 27.7127C22.032 28.4543 22.9573 28.7199 23.5173 28.1851C26.1433 25.6759 29.4139 28.413 32.3428 26.0423C34.1307 24.595 34.5538 22.2943 33.8797 20.1429C34.791 19.0318 42.2751 9.90721 43.1885 8.79346H45.416C46.5583 8.79346 47.4875 9.72279 47.4875 10.8651V30.3082H15.5392C14.9783 30.3082 14.5236 30.7629 14.5236 31.3238C14.5236 31.8846 14.9783 32.3394 15.5392 32.3394H47.4877V37.0956Z" fill="#FE3C3B"/>
<path d="M11.2809 30.3284C10.792 30.4285 10.4643 30.851 10.4643 31.3249C10.4643 31.9602 11.0451 32.4467 11.678 32.3202C12.2404 32.2061 12.5829 31.6642 12.4752 31.1259C12.3622 30.5703 11.8233 30.2193 11.2809 30.3284Z" fill="#FE3C3B"/>
</svg>
