<svg width="52" height="52" viewBox="0 0 52 52" fill="none" xmlns="http://www.w3.org/2000/svg">
<g clip-path="url(#clip0_160_5075)">
<path d="M20.1357 3.9178L3.8541 43.22C2.51615 46.4501 4.06069 50.1781 7.29032 51.5165C10.5204 52.8545 14.2485 51.3095 15.5869 48.0794L17.8674 42.5744H34.1317L36.4131 48.0813C37.7511 51.3109 41.4791 52.8554 44.7088 51.518C47.9389 50.1805 49.4834 46.4519 48.1455 43.2218V43.2209L31.8676 3.91874C30.8908 1.56 28.5813 0 26.0366 0C23.4918 0 21.0755 1.56937 20.1357 3.9178ZM26.0267 1.81438C27.7666 1.79751 29.4915 2.92465 30.1914 4.61301L46.4697 43.9156C46.6995 44.4657 46.8182 45.0557 46.8191 45.6517C46.82 46.2478 46.703 46.8382 46.4748 47.3889C46.2467 47.9395 45.9119 48.4397 45.4898 48.8605C45.0676 49.2813 44.5664 49.6145 44.015 49.8408C43.465 50.0706 42.8751 50.1893 42.279 50.1902C41.683 50.1911 41.0927 50.0742 40.5421 49.8461C39.9914 49.6181 39.4913 49.2834 39.0704 48.8614C38.6496 48.4394 38.3163 47.9383 38.0898 47.387L35.5755 41.3199C35.5068 41.1542 35.3905 41.0125 35.2413 40.9129C35.0922 40.8133 34.9168 40.7601 34.7374 40.76H17.2621C16.8949 40.76 16.5641 40.9807 16.4236 41.3199L13.9102 47.3851C13.6839 47.9365 13.3507 48.4377 12.9299 48.8599C12.5091 49.2821 12.0089 49.6169 11.4583 49.845C10.9076 50.0731 10.3172 50.1901 9.72115 50.1893C9.12508 50.1884 8.53506 50.0697 7.98505 49.8399C7.43368 49.6135 6.93252 49.2803 6.51039 48.8595C6.08826 48.4386 5.7535 47.9385 5.52536 47.3878C5.29722 46.8372 5.18021 46.2468 5.18105 45.6508C5.1819 45.0547 5.30058 44.4647 5.53028 43.9147L21.8119 4.61301V4.61207C22.6514 2.71009 24.2864 1.83077 26.0267 1.81438ZM25.9733 19.6644C25.7987 19.6698 25.6293 19.7255 25.4855 19.8248C25.3417 19.9241 25.2297 20.0628 25.1629 20.2243L20.9326 30.4345C20.8756 30.5724 20.8535 30.7222 20.8682 30.8706C20.8829 31.019 20.9339 31.1616 21.0169 31.2856C21.0998 31.4096 21.212 31.5112 21.3435 31.5815C21.4751 31.6518 21.622 31.6886 21.7711 31.6886H30.2298C30.379 31.6886 30.5259 31.6518 30.6574 31.5815C30.789 31.5112 30.9012 31.4096 30.9841 31.2856C31.067 31.1616 31.1181 31.019 31.1328 30.8706C31.1475 30.7222 31.1254 30.5724 31.0684 30.4345L26.8386 20.2238C26.7681 20.0537 26.6476 19.909 26.4929 19.809C26.3383 19.709 26.1569 19.6584 25.9728 19.664L25.9733 19.6644ZM26.0014 22.9418L28.8717 29.8742H23.1283L26.0014 22.9418Z" fill="#FE3C3B"/>
</g>
<defs>
<clipPath id="clip0_160_5075">
<rect width="52" height="52" fill="white"/>
</clipPath>
</defs>
</svg>
