<svg width="52" height="52" viewBox="0 0 52 52" fill="none" xmlns="http://www.w3.org/2000/svg">
<path d="M26 46.7188H6.5C5.53063 46.7177 4.60128 46.3321 3.91583 45.6467C3.23038 44.9612 2.84483 44.0319 2.84375 43.0625V12.3825C2.84375 11.4221 3.23375 10.4788 3.91625 9.79875L9.79875 3.91625C10.4852 3.23248 11.4136 2.84708 12.3825 2.84375H36.5625C38.5783 2.84375 40.2188 4.48419 40.2188 6.5V25.1875C40.2188 25.5107 40.0903 25.8207 39.8618 26.0493C39.6332 26.2778 39.3232 26.4062 39 26.4062C38.6768 26.4062 38.3668 26.2778 38.1382 26.0493C37.9097 25.8207 37.7812 25.5107 37.7812 25.1875V6.5C37.7812 5.82806 37.2344 5.28125 36.5625 5.28125H12.3825C12.0632 5.28125 11.7488 5.41125 11.5212 5.63875L5.63875 11.5212C5.41125 11.7488 5.28125 12.0632 5.28125 12.3825V43.0625C5.28125 43.7344 5.82806 44.2812 6.5 44.2812H26C26.3232 44.2812 26.6332 44.4097 26.8618 44.6382C27.0903 44.8668 27.2188 45.1768 27.2188 45.5C27.2188 45.8232 27.0903 46.1332 26.8618 46.3618C26.6332 46.5903 26.3232 46.7188 26 46.7188Z" fill="#FE3C3B"/>
<path d="M10.5625 14.2188H4.0625C3.73927 14.2188 3.42927 14.0903 3.20071 13.8618C2.97215 13.6332 2.84375 13.3232 2.84375 13C2.84375 12.6768 2.97215 12.3668 3.20071 12.1382C3.42927 11.9097 3.73927 11.7812 4.0625 11.7812H10.5625C11.2344 11.7812 11.7812 11.2344 11.7812 10.5625V4.0625C11.7812 3.73927 11.9097 3.42927 12.1382 3.20071C12.3668 2.97215 12.6768 2.84375 13 2.84375C13.3232 2.84375 13.6332 2.97215 13.8618 3.20071C14.0903 3.42927 14.2188 3.73927 14.2188 4.0625V10.5625C14.2188 12.5783 12.5783 14.2188 10.5625 14.2188ZM25.1875 12.5938H17.0625C16.7393 12.5938 16.4293 12.4653 16.2007 12.2368C15.9722 12.0082 15.8438 11.6982 15.8438 11.375C15.8438 11.0518 15.9722 10.7418 16.2007 10.5132C16.4293 10.2847 16.7393 10.1562 17.0625 10.1562H25.1875C25.5107 10.1562 25.8207 10.2847 26.0493 10.5132C26.2778 10.7418 26.4062 11.0518 26.4062 11.375C26.4062 11.6982 26.2778 12.0082 26.0493 12.2368C25.8207 12.4653 25.5107 12.5938 25.1875 12.5938ZM33.3125 18.2812H9.75C9.42677 18.2812 9.11677 18.1528 8.88821 17.9243C8.65965 17.6957 8.53125 17.3857 8.53125 17.0625C8.53125 16.7393 8.65965 16.4293 8.88821 16.2007C9.11677 15.9722 9.42677 15.8438 9.75 15.8438H33.3125C33.6357 15.8438 33.9457 15.9722 34.1743 16.2007C34.4028 16.4293 34.5312 16.7393 34.5312 17.0625C34.5312 17.3857 34.4028 17.6957 34.1743 17.9243C33.9457 18.1528 33.6357 18.2812 33.3125 18.2812ZM33.3125 23.9688H9.75C9.42677 23.9688 9.11677 23.8403 8.88821 23.6118C8.65965 23.3832 8.53125 23.0732 8.53125 22.75C8.53125 22.4268 8.65965 22.1168 8.88821 21.8882C9.11677 21.6597 9.42677 21.5312 9.75 21.5312H33.3125C33.6357 21.5312 33.9457 21.6597 34.1743 21.8882C34.4028 22.1168 34.5312 22.4268 34.5312 22.75C34.5312 23.0732 34.4028 23.3832 34.1743 23.6118C33.9457 23.8403 33.6357 23.9688 33.3125 23.9688ZM25.1875 29.6562H9.75C9.42677 29.6562 9.11677 29.5278 8.88821 29.2993C8.65965 29.0707 8.53125 28.7607 8.53125 28.4375C8.53125 28.1143 8.65965 27.8043 8.88821 27.5757C9.11677 27.3472 9.42677 27.2188 9.75 27.2188H25.1875C25.5107 27.2188 25.8207 27.3472 26.0493 27.5757C26.2778 27.8043 26.4062 28.1143 26.4062 28.4375C26.4062 28.7607 26.2778 29.0707 26.0493 29.2993C25.8207 29.5278 25.5107 29.6562 25.1875 29.6562ZM16.25 39.4062H9.75C9.42677 39.4062 9.11677 39.2778 8.88821 39.0493C8.65965 38.8207 8.53125 38.5107 8.53125 38.1875C8.53125 37.8643 8.65965 37.5543 8.88821 37.3257C9.11677 37.0972 9.42677 36.9688 9.75 36.9688H16.25C16.5732 36.9688 16.8832 37.0972 17.1118 37.3257C17.3403 37.5543 17.4688 37.8643 17.4688 38.1875C17.4688 38.5107 17.3403 38.8207 17.1118 39.0493C16.8832 39.2778 16.5732 39.4062 16.25 39.4062ZM39 49.1562C38.7993 49.1562 38.5986 49.1059 38.4166 49.0068L32.0198 45.5179C31.0585 44.994 30.2561 44.2206 29.6972 43.2792C29.1383 42.3378 28.8435 41.2632 28.8438 40.1684V27.8525C28.8438 27.5901 28.9285 27.3348 29.0853 27.1245C29.2421 26.9141 29.4625 26.76 29.7139 26.6849L38.6514 24.0199C38.8692 23.9533 39.1016 23.9517 39.3209 24.0118L48.2584 26.4485C48.5163 26.5189 48.7439 26.6721 48.9061 26.8846C49.0684 27.097 49.1562 27.3569 49.1562 27.6242V40.1692C49.1564 41.2638 48.8616 42.3382 48.3028 43.2794C47.7441 44.2206 46.942 44.9939 45.981 45.5179L39.5834 49.0068C39.4014 49.1059 39.2015 49.1562 39 49.1562ZM31.2812 28.7609V40.1684C31.2811 40.8255 31.4581 41.4705 31.7935 42.0356C32.1289 42.6006 32.6104 43.0648 33.1874 43.3794L39 46.5481L44.8134 43.3786C45.3902 43.0639 45.8716 42.5997 46.2069 42.0346C46.5422 41.4696 46.719 40.8246 46.7188 40.1676V28.5553L39.0154 26.455L31.2812 28.7609Z" fill="#FE3C3B"/>
<path d="M38.1875 39.4064C37.9316 39.4064 37.674 39.326 37.4562 39.1627L34.2062 36.7252C33.9607 36.5266 33.8018 36.2406 33.7629 35.9273C33.7239 35.6139 33.808 35.2977 33.9975 35.0451C34.1869 34.7925 34.4669 34.6233 34.7786 34.5729C35.0903 34.5226 35.4094 34.5951 35.6688 34.7752L38.0738 36.5789L42.2012 32.4498C42.3137 32.3334 42.4483 32.2406 42.597 32.1768C42.7457 32.113 42.9056 32.0795 43.0675 32.0782C43.2293 32.0768 43.3898 32.1078 43.5395 32.1691C43.6893 32.2305 43.8253 32.321 43.9397 32.4355C44.054 32.55 44.1445 32.6861 44.2057 32.8359C44.2669 32.9857 44.2977 33.1462 44.2962 33.308C44.2947 33.4699 44.261 33.6298 44.1971 33.7784C44.1331 33.9271 44.0402 34.0615 43.9238 34.1739L39.0488 39.0489C38.8131 39.2862 38.5011 39.4064 38.1875 39.4064Z" fill="#FE3C3B"/>
</svg>
