<svg width="28" height="28" viewBox="0 0 28 28" fill="none" xmlns="http://www.w3.org/2000/svg">
<g clip-path="url(#clip0_149_5446)">
<path d="M14.3828 6.99414C13.1865 6.99421 12.0128 7.32011 10.9876 7.93685C9.96253 8.5536 9.12476 9.4379 8.56425 10.4948C8.00375 11.5517 7.7417 12.7413 7.80622 13.9359C7.87074 15.1305 8.2594 16.285 8.93048 17.2754L8.28686 19.7585L10.8747 19.1547C11.7387 19.6983 12.7172 20.0337 13.733 20.1343C14.7489 20.2349 15.7742 20.0981 16.728 19.7345C17.6818 19.3709 18.5381 18.7906 19.2293 18.0394C19.9204 17.2882 20.4274 16.3866 20.7104 15.4058C20.9933 14.425 21.0444 13.3919 20.8596 12.388C20.6748 11.384 20.2592 10.4368 19.6455 9.62107C19.0319 8.80531 18.2371 8.14336 17.3237 7.68747C16.4104 7.23158 15.4036 6.99422 14.3828 6.99414ZM17.6214 17.1762C16.7002 17.6082 14.7769 17.3828 12.7507 15.6488C10.7244 13.9147 10.2047 12.0492 10.4891 11.0724C10.7734 10.0956 11.8907 9.91511 12.1015 9.96176C12.3122 10.0084 13.3662 11.6793 13.2226 11.8742C13.079 12.0691 12.3853 12.7629 12.3853 12.7629C12.3853 12.7629 12.3561 13.4727 13.6586 14.5874C14.9611 15.7022 15.658 15.5637 15.658 15.5637C15.658 15.5637 16.2362 14.7707 16.4066 14.599C16.5769 14.4274 18.3907 15.2105 18.4693 15.4115C18.5479 15.6126 18.5423 16.7443 17.6211 17.1762H17.6214Z" fill="#64D35A"/>
<path d="M14 0C6.26801 0 0 6.26801 0 14C0 21.732 6.26801 28 14 28C21.732 28 28 21.732 28 14C28 6.26801 21.732 0 14 0ZM14.3828 21.5442C13.0686 21.5461 11.7746 21.2213 10.617 20.5991L6.38203 21.6562L7.45473 17.5109C6.59034 15.9882 6.25177 14.2231 6.49138 12.4886C6.73099 10.7541 7.53543 9.14687 8.78029 7.91551C10.0251 6.68416 11.641 5.89728 13.378 5.67659C15.115 5.4559 16.8764 5.8137 18.3896 6.69464C19.9028 7.57557 21.0836 8.93057 21.7494 10.55C22.4151 12.1695 22.5287 13.9632 22.0725 15.6537C21.6164 17.3442 20.6159 18.8374 19.2259 19.9021C17.8359 20.9669 16.1338 21.544 14.3828 21.5442Z" fill="#64D35A"/>
</g>
<defs>
<clipPath id="clip0_149_5446">
<rect width="28" height="28" fill="white"/>
</clipPath>
</defs>
</svg>
