<svg width="97" height="107" viewBox="0 0 97 107" fill="none" xmlns="http://www.w3.org/2000/svg">
<path d="M42.8224 31.7188V32.1621L38.8284 59.6498H51.5503L47.4082 31.7188H42.8224ZM47.4082 52.5562V39.9946L49.1834 52.4084L47.4082 52.5562ZM43.858 32.901H46.3727V52.8518L40.1597 57.8764L43.858 32.901ZM40.8994 58.6153L47.1124 53.5907H49.4793L50.2189 58.6153H40.8994Z" fill="#FE3C3B"/>
<path d="M96.5207 98.8126L77.4379 0.241211H28.0296L20.1893 7.33481L20.3373 7.48259L0.958557 106.202H33.0592V105.758L36.4615 81.8176H53.4734L57.0236 106.202H89.1242V106.054L89.2722 106.202L96.5207 98.8126ZM28.4734 1.27569H75.5148L69.1538 7.33481H21.8165L28.4734 1.27569ZM58.0592 105.02L54.5089 80.6353H35.7219L32.1716 105.02H2.28992L21.2248 8.36929H69.0059L87.9408 105.02H58.0592ZM70.0414 8.07372L76.5503 1.86683L95.3373 98.5171L89.1242 105.167L70.0414 8.07372Z" fill="#FE3C3B"/>
</svg>
