<svg width="200" height="120" viewBox="0 0 200 120" fill="none" xmlns="http://www.w3.org/2000/svg">
<path d="M94.8232 38.7191V39.1625L90.8291 66.6501H103.551L99.409 38.7191H94.8232ZM99.409 59.5566V46.995L101.184 59.4088L99.409 59.5566ZM95.8587 39.9014H98.3735V59.8521L92.1605 64.8768L95.8587 39.9014ZM92.9001 65.6157L99.1131 60.591H101.48L102.22 65.6157H92.9001Z" fill="#FE3C3B"/>
<path d="M148.521 105.813L129.438 7.24133H80.03L72.1898 14.3349L72.3377 14.4827L52.959 113.202H85.0596V112.759L88.4619 88.8177H105.474L109.024 113.202H141.125V113.054L141.273 113.202L148.521 105.813ZM80.4738 8.27582H127.515L121.154 14.3349H73.817L80.4738 8.27582ZM110.06 112.02L106.509 87.6354H87.7223L84.172 112.02H54.2903L73.2253 15.3694H121.006L139.941 112.02H110.06ZM122.042 15.0738L128.551 8.86695L147.338 105.517L141.125 112.167L122.042 15.0738Z" fill="#FE3C3B"/>
</svg>
