<svg width="200" height="120" viewBox="0 0 200 120" fill="none" xmlns="http://www.w3.org/2000/svg">
<path d="M153.55 7.53699H55.7689L47.9287 15.0739H47.6328V113.054H145.71V112.759L153.55 105.222V7.53699ZM56.2127 8.71925H151.627L145.266 15.0739H49.408L56.2127 8.71925ZM48.6683 16.2562H144.526V112.02H48.6683V16.2562ZM145.562 111.281V16.2562L152.367 9.45817V104.778L145.562 111.281Z" fill="#FE3C3B"/>
<path d="M123.52 66.207C122.189 63.3991 120.266 61.1823 117.751 59.4089C115.384 57.6355 112.574 56.4533 109.319 55.7144C106.065 54.9754 102.662 54.5321 98.9641 54.5321H91.2718V46.6996H117.899L122.041 27.7833H68.3428V100.049H68.9345H98.9641C102.662 100.049 106.213 99.7538 109.319 99.0149C112.574 98.2759 115.384 96.9459 117.751 95.1725C120.118 93.3991 122.041 90.8868 123.52 87.9311C124.852 84.9754 125.591 81.1331 125.591 76.8474C125.591 72.4139 124.852 69.0149 123.52 66.207ZM122.485 87.1922C121.153 90.0001 119.378 92.3646 117.159 93.9902C114.94 95.7636 112.278 96.9459 109.171 97.6848C106.065 98.4237 102.662 98.7193 98.9641 98.7193H69.5262V28.8178H120.562L116.863 45.5173H90.0883V55.5666H98.9641C102.662 55.5666 106.065 56.0099 109.171 56.7488C112.278 57.4878 114.94 58.67 117.307 60.2956C119.526 61.9213 121.301 63.9902 122.633 66.6503C123.964 69.3104 124.556 72.5617 124.556 76.5518C124.408 80.8375 123.816 84.3843 122.485 87.1922Z" fill="#FE3C3B"/>
<path d="M94.5267 70.4927H90.0889V70.936V82.9065H94.5267C97.4853 82.9065 99.7043 82.3153 101.036 81.1331C102.367 79.9508 102.959 78.3252 102.959 76.404C102.959 74.7784 102.219 73.3006 101.036 72.1183C99.7043 70.936 97.4853 70.4927 94.5267 70.4927ZM100.296 80.3942C99.2605 81.2809 97.3374 81.872 94.5267 81.872H91.1244V71.5272H94.5267C97.3374 71.5272 99.2605 72.1183 100.296 73.005C101.331 74.0395 101.923 75.074 101.923 76.5518C101.923 78.3252 101.331 79.5075 100.296 80.3942Z" fill="#FE3C3B"/>
</svg>
