<svg width="107" height="107" viewBox="0 0 107 107" fill="none" xmlns="http://www.w3.org/2000/svg">
<path d="M106.55 0.537109H8.76891L0.928672 8.07406H0.632812V106.054H98.7097V105.759L106.55 98.2218V0.537109ZM9.21269 1.71938H104.627L98.2659 8.07406H2.40796L9.21269 1.71938ZM1.66832 9.25632H97.5263V105.02H1.66832V9.25632ZM98.5618 104.281V9.25632L105.367 2.45829V97.7785L98.5618 104.281Z" fill="#FE3C3B"/>
<path d="M76.5213 59.2068C75.1899 56.399 73.2668 54.1822 70.752 52.4088C68.3852 50.6354 65.5745 49.4532 62.3201 48.7142C59.0656 47.9753 55.6633 47.532 51.9651 47.532H44.2727V39.6995H70.9L75.042 20.7832H21.3438V93.0492H21.9355H51.9651C55.6633 93.0492 59.2136 92.7536 62.3201 92.0147C65.5745 91.2758 68.3852 89.9458 70.752 88.1724C73.1189 86.399 75.042 83.8867 76.5213 80.931C77.8526 77.9753 78.5923 74.133 78.5923 69.8472C78.5923 65.4137 77.8526 62.0147 76.5213 59.2068ZM75.4858 80.1921C74.1544 83 72.3792 85.3645 70.1603 86.9901C67.9414 88.7635 65.2787 89.9458 62.1722 90.6847C59.0656 91.4236 55.6633 91.7192 51.9651 91.7192H22.5272V21.8177H73.5627L69.8645 38.5172H43.0893V48.5665H51.9651C55.6633 48.5665 59.0656 49.0098 62.1722 49.7487C65.2787 50.4876 67.9414 51.6699 70.3083 53.2955C72.5272 54.9211 74.3023 56.9901 75.6337 59.6502C76.9651 62.3103 77.5568 65.5615 77.5568 69.5517C77.4088 73.8374 76.8171 77.3842 75.4858 80.1921Z" fill="#FE3C3B"/>
<path d="M47.5258 63.4927H43.0879V63.936V75.9065H47.5258C50.4843 75.9065 52.7033 75.3153 54.0346 74.1331C55.366 72.9508 55.9577 71.3252 55.9577 69.404C55.9577 67.7784 55.2181 66.3006 54.0346 65.1183C52.7033 63.936 50.4843 63.4927 47.5258 63.4927ZM53.295 73.3942C52.2595 74.2809 50.3364 74.872 47.5258 74.872H44.1234V64.5272H47.5258C50.3364 64.5272 52.2595 65.1183 53.295 66.005C54.3305 67.0395 54.9222 68.074 54.9222 69.5518C54.9222 71.3252 54.3305 72.5075 53.295 73.3942Z" fill="#FE3C3B"/>
</svg>
