<svg width="200" height="120" viewBox="0 0 200 120" fill="none" xmlns="http://www.w3.org/2000/svg">
<path d="M80.7221 33.9289C83.0776 33.9289 84.9871 32.0194 84.9871 29.6638C84.9871 27.3083 83.0776 25.3988 80.7221 25.3988C78.3666 25.3988 76.457 27.3083 76.457 29.6638C76.457 32.0194 78.3666 33.9289 80.7221 33.9289Z" fill="#FE3C3B"/>
<path d="M94.0814 110C96.437 110 98.3465 108.09 98.3465 105.735C98.3465 103.379 96.437 101.47 94.0814 101.47C91.7259 101.47 89.8164 103.379 89.8164 105.735C89.8164 108.09 91.7259 110 94.0814 110Z" fill="#FE3C3B"/>
<path d="M108.684 10H85.5125C85.4251 10 85.3474 10.0194 85.2697 10.0291C76.0012 10.1652 68.501 17.7334 68.501 27.031V100.994C68.501 105.171 71.9013 108.562 76.0692 108.562C80.2371 108.562 83.6375 105.162 83.6375 100.994V29.6638C83.6375 28.0511 82.3356 26.7492 80.7229 26.7492C79.1101 26.7492 77.8083 28.0511 77.8083 29.6638V100.994C77.8083 101.956 77.031 102.733 76.0692 102.733C75.1074 102.733 74.3302 101.956 74.3302 100.994V27.031C74.3302 20.8618 79.3433 15.8486 85.5125 15.8486C85.5514 15.8486 85.5903 15.8389 85.6388 15.8389H108.684C118.38 15.8389 126.259 23.7278 126.259 33.414V34.1912C126.259 43.8871 118.37 51.7662 108.684 51.7662H94.9656C90.788 51.7662 87.3973 55.1666 87.3973 59.3345C87.3973 63.5024 90.7977 66.9027 94.9656 66.9027H108.684C118.38 66.9027 126.259 74.7916 126.259 84.4778V85.3716C126.259 94.9995 118.428 102.84 108.81 102.84L94.0912 102.733H94.0718C92.4687 102.733 91.1669 104.025 91.1572 105.628C91.1541 106.011 91.2266 106.391 91.3705 106.746C91.5144 107.1 91.727 107.423 91.9959 107.696C92.2649 107.968 92.5849 108.185 92.9378 108.334C93.2907 108.483 93.6694 108.56 94.0523 108.562L108.79 108.669C121.634 108.669 132.088 98.2153 132.088 85.3716V84.4778C132.088 71.5661 121.586 61.0735 108.684 61.0735H94.9753C94.0135 61.0735 93.2362 60.2963 93.2362 59.3345C93.2362 58.3727 94.0135 57.5954 94.9753 57.5954H108.684C121.595 57.5954 132.088 47.0932 132.088 34.1912V33.414C132.098 20.5023 121.595 10 108.684 10Z" fill="#FE3C3B"/>
<path d="M94.9653 56.1383H108.683C120.789 56.1383 130.63 46.2869 130.63 34.1913V33.4141C130.63 21.3088 120.789 11.4672 108.683 11.4672H85.5123C85.4248 11.4672 85.3471 11.4769 85.2694 11.4963C76.8073 11.6323 69.958 18.5496 69.958 27.0409V101.004C69.958 104.375 72.6977 107.115 76.069 107.115C79.4402 107.115 82.1799 104.375 82.1799 101.004V31.2767C82.6268 30.8784 82.9086 30.3052 82.9086 29.6543C82.9086 28.4496 81.9273 27.4683 80.7226 27.4683C79.5179 27.4683 78.5367 28.4496 78.5367 29.6543C78.5367 30.2955 78.8184 30.8687 79.2653 31.2767V100.984C79.2653 102.752 77.8274 104.181 76.069 104.181C74.3105 104.181 72.8726 102.743 72.8726 100.984V27.0311C72.8726 20.0652 78.5464 14.3915 85.5123 14.3915C85.5511 14.3915 85.59 14.3818 85.6386 14.3818H108.683C119.176 14.3818 127.716 22.9215 127.716 33.4141V34.1913C127.716 44.6839 119.176 53.2237 108.683 53.2237H94.9653C91.5941 53.2237 88.8543 55.9634 88.8543 59.3346C88.8543 62.7059 91.5941 65.4456 94.9653 65.4456H108.683C119.176 65.4456 127.716 73.9854 127.716 84.4779V85.3718C127.716 95.806 119.224 104.297 108.8 104.297L95.7037 104.2C95.3053 103.753 94.7224 103.462 94.0715 103.462C92.8668 103.462 91.8855 104.443 91.8855 105.648C91.8855 106.852 92.8668 107.834 94.0715 107.834C94.7127 107.834 95.2762 107.552 95.6842 107.115L108.79 107.212C120.828 107.212 130.63 97.4188 130.63 85.3718V84.4779C130.63 72.3726 120.789 62.531 108.683 62.531H94.975C94.1273 62.5323 93.3138 62.1968 92.7134 61.5982C92.1131 60.9997 91.7751 60.1872 91.7738 59.3395C91.7725 58.4918 92.108 57.6783 92.7066 57.0779C93.3051 56.4776 94.1176 56.1396 94.9653 56.1383Z" fill="#FF9393"/>
</svg>
