<svg width="65" height="100" viewBox="0 0 65 100" fill="none" xmlns="http://www.w3.org/2000/svg">
<path d="M12.7201 23.929C15.0756 23.929 16.9851 22.0195 16.9851 19.664C16.9851 17.3084 15.0756 15.3989 12.7201 15.3989C10.3646 15.3989 8.45508 17.3084 8.45508 19.664C8.45508 22.0195 10.3646 23.929 12.7201 23.929Z" fill="#FE3C3B"/>
<path d="M26.0814 99.9998C28.437 99.9998 30.3465 98.0903 30.3465 95.7348C30.3465 93.3792 28.437 91.4697 26.0814 91.4697C23.7259 91.4697 21.8164 93.3792 21.8164 95.7348C21.8164 98.0903 23.7259 99.9998 26.0814 99.9998Z" fill="#FE3C3B"/>
<path d="M40.6826 0H17.5116C17.4241 0 17.3464 0.0194313 17.2687 0.0291467C8.00024 0.165161 0.5 7.73341 0.5 17.031V90.9939C0.5 95.1715 3.90037 98.5621 8.06825 98.5621C12.2361 98.5621 15.6365 95.1618 15.6365 90.9939V19.6638C15.6365 18.0511 14.3346 16.7492 12.7219 16.7492C11.1092 16.7492 9.8073 18.0511 9.8073 19.6638V90.9939C9.8073 91.9557 9.03007 92.7329 8.06825 92.7329C7.10643 92.7329 6.3292 91.9557 6.3292 90.9939V17.031C6.3292 10.8618 11.3423 5.84864 17.5116 5.84864C17.5504 5.84864 17.5893 5.83892 17.6379 5.83892H40.6826C50.3786 5.83892 58.2577 13.7278 58.2577 23.414V24.1912C58.2577 33.8871 50.3688 41.7662 40.6826 41.7662H26.9646C22.787 41.7662 19.3963 45.1666 19.3963 49.3345C19.3963 53.5024 22.7967 56.9027 26.9646 56.9027H40.6826C50.3786 56.9027 58.2577 64.7916 58.2577 74.4778V75.3716C58.2577 84.9995 50.4271 92.8398 40.8089 92.8398L26.0902 92.7329H26.0708C24.4677 92.7329 23.1659 94.0251 23.1562 95.6281C23.1531 96.011 23.2256 96.3907 23.3695 96.7456C23.5135 97.1004 23.726 97.4233 23.9949 97.6959C24.2639 97.9684 24.584 98.1852 24.9368 98.3339C25.2897 98.4825 25.6684 98.5601 26.0513 98.5621L40.7895 98.669C53.6332 98.669 64.0869 88.2153 64.0869 75.3716V74.4778C64.0869 61.5661 53.5846 51.0735 40.6826 51.0735H26.9743C26.0125 51.0735 25.2353 50.2963 25.2353 49.3345C25.2353 48.3727 26.0125 47.5954 26.9743 47.5954H40.6826C53.5943 47.5954 64.0869 37.0932 64.0869 24.1912V23.414C64.0966 10.5023 53.5943 0 40.6826 0Z" fill="#FE3C3B"/>
<path d="M26.9643 46.1384H40.6824C52.7877 46.1384 62.6293 36.2871 62.6293 24.1915V23.4142C62.6293 11.3089 52.7877 1.46729 40.6824 1.46729H17.5113C17.4239 1.46729 17.3461 1.477 17.2684 1.49643C8.80635 1.63245 1.95703 8.54977 1.95703 17.041V91.0039C1.95703 94.3751 4.69676 97.1148 8.06798 97.1148C11.4392 97.1148 14.1789 94.3751 14.1789 91.0039V21.2769C14.6258 20.8785 14.9076 20.3053 14.9076 19.6544C14.9076 18.4497 13.9263 17.4685 12.7216 17.4685C11.5169 17.4685 10.5357 18.4497 10.5357 19.6544C10.5357 20.2956 10.8174 20.8688 11.2643 21.2769V90.9844C11.2643 92.7526 9.82646 94.1808 8.06798 94.1808C6.3095 94.1808 4.87163 92.7429 4.87163 90.9844V17.0313C4.87163 10.0654 10.5454 4.3916 17.5113 4.3916C17.5502 4.3916 17.589 4.38189 17.6376 4.38189H40.6824C51.1749 4.38189 59.7147 12.9217 59.7147 23.4142V24.1915C59.7147 34.684 51.1749 43.2238 40.6824 43.2238H26.9643C23.5931 43.2238 20.8534 45.9635 20.8534 49.3348C20.8534 52.706 23.5931 55.4457 26.9643 55.4457H40.6824C51.1749 55.4457 59.7147 63.9855 59.7147 74.4781V75.3719C59.7147 85.8062 51.2235 94.2974 40.799 94.2974L27.7027 94.2002C27.3044 93.7533 26.7214 93.4618 26.0705 93.4618C24.8658 93.4618 23.8846 94.4431 23.8846 95.6478C23.8846 96.8525 24.8658 97.8337 26.0705 97.8337C26.7117 97.8337 27.2752 97.552 27.6833 97.1148L40.7892 97.212C52.8266 97.212 62.6293 87.4189 62.6293 75.3719V74.4781C62.6293 62.3727 52.7877 52.5311 40.6824 52.5311H26.974C26.1263 52.5324 25.3128 52.1969 24.7125 51.5984C24.1121 50.9998 23.7741 50.1873 23.7728 49.3396C23.7715 48.4919 24.1071 47.6784 24.7056 47.078C25.3041 46.4777 26.1166 46.1397 26.9643 46.1384Z" fill="#FF9393"/>
</svg>
