<svg width="200" height="120" viewBox="0 0 200 120" fill="none" xmlns="http://www.w3.org/2000/svg">
<path d="M37.7832 28.8176V95.6157H161.182V95.0245V28.8176H37.7832ZM38.8177 29.8521H160V94.4334H38.8177V29.8521Z" fill="#FE3C3B"/>
<path d="M172.414 17.8818H31.5764L29.0641 20.6897H28.7686V103.448H169.902V103.153L172.414 100.345V17.8818ZM32.0198 19.0641H170.493L168.719 20.8375H30.3942L32.0198 19.0641ZM29.803 21.872H168.719V102.266H29.803V21.872ZM169.754 101.379V21.2808L171.232 19.803V99.7538L169.754 101.379Z" fill="#FE3C3B"/>
<path d="M56.4045 57.4877C56.1089 57.0443 55.6656 56.7488 55.0744 56.601C54.6311 56.4532 54.0399 56.3054 53.5966 56.3054C53.1532 56.3054 52.5621 56.4532 52.1188 56.601C51.6754 56.7488 51.2321 57.0443 50.7887 57.4877C50.4931 57.931 50.1976 58.3744 49.902 58.8177C49.6064 59.4089 49.6064 60 49.6064 60.7389C49.6064 61.4778 49.7542 62.069 49.902 62.6601C50.0498 63.2512 50.3454 63.6946 50.7887 63.9902C51.0843 64.4335 51.5276 64.7291 52.1188 64.8769C52.5621 65.0246 53.1532 65.1724 53.5966 65.1724C54.0399 65.1724 54.6311 65.0246 55.0744 64.8769C55.5178 64.7291 55.9611 64.4335 56.4045 63.9902C56.7 63.5468 56.9956 63.1035 57.2912 62.6601C57.5867 62.069 57.5867 61.4778 57.5867 60.7389C57.5867 60 57.439 59.4089 57.2912 58.8177C57.1434 58.2266 56.8478 57.7833 56.4045 57.4877ZM56.2567 62.2168C56.1089 62.6601 55.8133 62.9557 55.6656 63.2512C55.37 63.5468 55.0744 63.6946 54.7789 63.8424C54.4833 63.9902 54.0399 63.9902 53.7444 63.9902C53.4488 63.9902 53.0055 63.9902 52.7099 63.8424C52.4143 63.6946 52.1188 63.5468 51.8232 63.2512C51.5276 62.9557 51.3798 62.6601 51.2321 62.2168C51.0843 61.7734 50.9365 61.3301 50.9365 60.7389C50.9365 60.1478 51.0843 59.7044 51.2321 59.2611C51.3798 58.8177 51.6754 58.5222 51.8232 58.2266C52.1188 57.931 52.4143 57.7833 52.7099 57.6355C53.0055 57.4877 53.4488 57.4877 53.7444 57.4877C54.1877 57.4877 54.4833 57.4877 54.7789 57.6355C55.0744 57.7833 55.37 57.931 55.6656 58.2266C55.9611 58.5222 56.1089 58.8177 56.2567 59.2611C56.4045 59.7044 56.5523 60.1478 56.5523 60.7389C56.5523 61.3301 56.4045 61.7734 56.2567 62.2168Z" fill="#FE3C3B"/>
<path d="M61.7246 57.0444C61.2812 56.0099 60.5423 55.1232 59.8034 54.3843C58.9167 53.6454 58.03 53.0543 56.9955 52.6109C55.961 52.1676 54.7788 52.0198 53.5965 52.0198C52.4142 52.0198 51.232 52.1676 50.1975 52.6109C49.163 53.0543 48.1285 53.6454 47.3896 54.3843C46.5029 55.1232 45.9118 56.0099 45.4684 57.0444C45.0251 58.0789 44.7295 59.2612 44.7295 60.5912C44.7295 61.9213 45.0251 63.1035 45.4684 64.138C45.9118 65.1725 46.6507 66.0592 47.3896 66.7981C48.2763 67.537 49.163 68.1282 50.1975 68.5715C51.232 69.0149 52.4142 69.1626 53.5965 69.1626C54.7788 69.1626 55.961 69.0149 56.9955 68.5715C58.03 68.1282 59.0645 67.537 59.8034 66.7981C60.6901 66.0592 61.2812 65.1725 61.7246 64.138C62.1679 63.1035 62.4635 61.9213 62.4635 60.5912C62.4635 59.4089 62.3157 58.2267 61.8723 57.34H65.4191V68.8671H71.3305V68.2759V57.34H74.1384L75.1728 52.3153H62.7591L61.7246 57.0444ZM60.8379 63.8424C60.3945 64.7291 59.8034 65.6158 59.2122 66.207C58.4733 66.7981 57.7344 67.3892 56.6999 67.6848C55.8132 67.9804 54.7788 68.2759 53.7443 68.2759C52.7098 68.2759 51.6753 68.1281 50.7886 67.6848C49.9019 67.3892 49.0152 66.7981 48.2763 66.207C47.5374 65.6158 46.9462 64.7291 46.6507 63.8424C46.2073 62.9557 46.0595 61.9213 46.0595 60.739C46.0595 59.5567 46.3551 58.5222 46.6507 57.6355C47.094 56.7488 47.6852 55.8621 48.2763 55.271C49.0152 54.6799 49.7541 54.0887 50.7886 53.7932C51.6753 53.4976 52.7098 53.202 53.7443 53.202C54.7788 53.202 55.8132 53.3498 56.6999 53.7932C57.5866 54.0887 58.4733 54.6799 59.2122 55.271C59.9512 55.8621 60.5423 56.7488 60.8379 57.6355C61.2812 58.5222 61.429 59.5567 61.429 60.739C61.429 61.9213 61.2812 62.9557 60.8379 63.8424ZM63.6457 53.4976H73.8428L73.2517 56.3055H70.296V67.8326H66.6014V56.3055H63.0546L63.6457 53.4976Z" fill="#FE3C3B"/>
<path d="M102.66 56.3055C102.364 55.5666 101.921 54.8277 101.33 54.2365C100.739 53.6454 99.9998 53.202 99.1131 52.9065C98.2264 52.6109 97.3397 52.4631 96.3052 52.4631H90.2461V68.7193L85.2215 60.2956L89.9505 52.4631H83.3003L81.3791 56.4533V52.4631H75.4678V69.0149H76.0589H81.3791V64.5814L83.4481 69.0149H90.2461H90.3939H90.8372H96.0096V65.1725H96.3052C97.4875 65.1725 98.522 65.0247 99.4087 64.7291C100.295 64.4336 101.034 63.9902 101.478 63.3991C102.069 62.808 102.364 62.069 102.66 61.3301C102.955 60.5912 102.955 59.7045 102.955 58.9656C103.103 57.9311 102.955 57.0444 102.66 56.3055ZM84.0392 67.8326L81.0835 61.6257H80.6402H80.0491V67.8326H76.5023V53.4976H80.0491V59.1134H80.6402H80.9358L83.7436 53.4976H87.7338L83.5959 60.1479L88.1771 67.6848H84.0392V67.8326ZM101.773 60.8868C101.625 61.4779 101.33 62.069 100.886 62.5124C100.443 62.9557 99.852 63.3991 99.1131 63.5469C98.3742 63.8424 97.4875 63.9902 96.453 63.9902H95.5663H94.9752V67.8326H91.4284V53.4976H96.3052C97.1919 53.4976 98.0786 53.6454 98.8175 53.941C99.5564 54.2365 100.148 54.5321 100.591 54.9755C101.034 55.4188 101.478 56.0099 101.625 56.6011C101.921 57.1922 102.069 57.9311 102.069 58.67C102.069 59.5567 101.921 60.1479 101.773 60.8868Z" fill="#FE3C3B"/>
<path d="M97.7838 56.8966C97.3404 56.4532 96.7493 56.3054 96.1582 56.3054H95.4193H94.8281V56.8966V61.3301H96.1582C96.7493 61.3301 97.3404 61.1823 97.7838 60.7389C98.2271 60.2956 98.3749 59.5567 98.3749 58.8177C98.5227 57.931 98.3749 57.3399 97.7838 56.8966ZM97.0449 59.8522C96.8971 60 96.6015 60.1478 96.1582 60.1478H96.0104V57.3399H96.1582C96.6015 57.3399 96.8971 57.4877 97.0449 57.6355C97.1927 57.7833 97.3404 58.0788 97.3404 58.67C97.3404 59.4089 97.1927 59.7044 97.0449 59.8522Z" fill="#FE3C3B"/>
<path d="M117.143 69.0149H117.734H122.906V52.4631H117.143V69.0149ZM121.872 53.4976V67.8326H118.325V53.4976H121.872Z" fill="#FE3C3B"/>
<path d="M116.551 61.0346C116.256 60.4434 115.813 59.8523 115.221 59.4089C114.63 58.9656 114.039 58.67 113.3 58.5222C112.561 58.3745 111.822 58.2267 110.936 58.2267H109.901V52.4631H104.138V69.0149H104.729H111.084C111.97 69.0149 112.709 68.8671 113.448 68.7193C114.187 68.5715 114.926 68.2759 115.517 67.8326C116.108 67.3892 116.551 66.7981 116.847 66.0592C117.143 65.3203 117.29 64.4336 117.29 63.3991C116.995 62.5124 116.847 61.7735 116.551 61.0346ZM115.517 65.6158C115.221 66.207 114.926 66.6503 114.483 66.9459C114.039 67.2415 113.596 67.537 112.857 67.6848C112.266 67.8326 111.527 67.8326 110.788 67.8326H105.024V53.4976H108.571V59.2612H110.788C111.527 59.2612 112.266 59.4089 112.857 59.5567C113.448 59.7045 114.039 60.0001 114.483 60.2956C114.926 60.5912 115.221 61.0346 115.517 61.4779C115.813 61.9213 115.96 62.6602 115.96 63.3991C115.96 64.2858 115.813 65.0247 115.517 65.6158Z" fill="#FE3C3B"/>
<path d="M109.902 61.7734H109.311H108.72V62.3646V65.468H109.902C110.641 65.468 111.232 65.3202 111.528 65.0247C111.971 64.7291 112.119 64.138 112.119 63.6946C112.119 63.2513 111.971 62.8079 111.528 62.5124C111.084 61.7734 110.641 61.7734 109.902 61.7734ZM110.789 63.9902C110.641 64.138 110.345 64.138 109.902 64.138H109.754V62.8079H109.902C110.493 62.8079 110.789 62.9557 110.789 62.9557C110.936 63.1035 110.936 63.2513 110.936 63.3991C111.084 63.6946 110.936 63.8424 110.789 63.9902Z" fill="#FE3C3B"/>
<path d="M124.384 52.4631L123.35 57.4878H127.192V69.0149H133.103V68.4237V57.4878H135.911L136.946 52.4631H124.384ZM134.877 56.3055H131.921V67.8326H128.226V56.3055H124.68L125.271 53.4976H135.468L134.877 56.3055Z" fill="#FE3C3B"/>
<path d="M150.985 54.3843C150.098 53.6454 149.212 53.0543 148.177 52.6109C147.143 52.1676 145.96 52.0198 144.778 52.0198C143.596 52.0198 142.414 52.1676 141.379 52.6109C140.345 53.0543 139.31 53.6454 138.571 54.3843C137.685 55.1232 137.093 56.0099 136.65 57.0444C136.207 58.0789 135.911 59.2612 135.911 60.5912C135.911 61.9213 136.207 63.1035 136.65 64.138C137.093 65.1725 137.832 66.0592 138.571 66.7981C139.458 67.537 140.345 68.1282 141.379 68.5715C142.414 69.0149 143.596 69.1626 144.778 69.1626C145.96 69.1626 147.143 69.0149 148.177 68.5715C149.212 68.1282 150.246 67.537 150.985 66.7981C151.872 66.0592 152.463 65.1725 152.906 64.138C153.35 63.1035 153.645 61.9213 153.645 60.5912C153.645 59.2612 153.35 58.0789 152.906 57.0444C152.463 56.0099 151.872 55.1232 150.985 54.3843ZM152.02 63.8424C151.576 64.7291 150.985 65.6158 150.394 66.207C149.655 66.7981 148.916 67.3892 147.882 67.6848C146.995 67.9804 145.96 68.2759 144.926 68.2759C143.891 68.2759 142.857 68.1281 141.97 67.6848C141.084 67.3892 140.197 66.7981 139.458 66.207C138.719 65.6158 138.128 64.7291 137.832 63.8424C137.389 62.9557 137.241 61.9213 137.241 60.739C137.241 59.5567 137.537 58.5222 137.832 57.6355C138.276 56.7488 138.867 55.8621 139.458 55.271C140.197 54.6799 140.936 54.0887 141.97 53.7932C142.857 53.4976 143.891 53.202 144.926 53.202C145.96 53.202 146.995 53.3498 147.882 53.7932C148.768 54.0887 149.655 54.6799 150.394 55.271C151.133 55.8621 151.724 56.7488 152.02 57.6355C152.463 58.5222 152.611 59.5567 152.611 60.739C152.611 61.9213 152.463 62.9557 152.02 63.8424Z" fill="#FE3C3B"/>
<path d="M147.586 57.4877C147.291 57.0443 146.847 56.7488 146.256 56.601C145.813 56.4532 145.222 56.3054 144.778 56.3054C144.335 56.3054 143.744 56.4532 143.3 56.601C142.857 56.7488 142.414 57.0443 141.97 57.4877C141.675 57.931 141.379 58.3744 141.084 58.8177C140.788 59.4089 140.788 60 140.788 60.7389C140.788 61.4778 140.936 62.069 141.084 62.6601C141.231 63.2512 141.527 63.6946 141.97 63.9902C142.266 64.4335 142.709 64.7291 143.3 64.8769C143.744 65.0246 144.335 65.1724 144.778 65.1724C145.222 65.1724 145.813 65.0246 146.256 64.8769C146.699 64.7291 147.143 64.4335 147.586 63.9902C147.882 63.5468 148.177 63.1035 148.473 62.6601C148.768 62.069 148.768 61.4778 148.768 60.7389C148.768 60 148.621 59.4089 148.473 58.8177C148.325 58.2266 148.029 57.7833 147.586 57.4877ZM147.438 62.2168C147.291 62.6601 146.995 62.9557 146.847 63.2512C146.552 63.5468 146.256 63.6946 145.96 63.8424C145.665 63.9902 145.222 63.9902 144.926 63.9902C144.63 63.9902 144.187 63.9902 143.892 63.8424C143.596 63.6946 143.3 63.5468 143.005 63.2512C142.709 62.9557 142.561 62.6601 142.414 62.2168C142.266 61.7734 142.118 61.3301 142.118 60.7389C142.118 60.1478 142.266 59.7044 142.414 59.2611C142.561 58.8177 142.857 58.5222 143.005 58.2266C143.3 57.931 143.596 57.7833 143.892 57.6355C144.187 57.4877 144.63 57.4877 144.926 57.4877C145.369 57.4877 145.665 57.4877 145.96 57.6355C146.256 57.7833 146.552 57.931 146.847 58.2266C147.143 58.5222 147.291 58.8177 147.438 59.2611C147.586 59.7044 147.734 60.1478 147.734 60.7389C147.734 61.3301 147.586 61.7734 147.438 62.2168Z" fill="#FE3C3B"/>

</svg>
