<svg width="200" height="120" viewBox="0 0 200 120" fill="none" xmlns="http://www.w3.org/2000/svg">
<path d="M132.956 81.4286L132.66 60.7389L117.291 52.0197V42.7094L144.631 42.5616L145.37 42.8572L144.631 17.734L116.257 8.27588H116.109L55.9609 17.5862L56.4043 43.1527L56.9954 43.0049H105.616V54.6798L83.3008 60.4434L83.4486 81.8719L84.0398 81.7242L105.616 81.5764V80.3941L89.36 80.5419L105.764 77.1429V86.1577L105.912 113.645H107.094L106.946 79.803V76.9951L116.404 74.9261V83.4976L116.552 113.645H117.734L117.587 81.2808L132.365 81.133L132.956 81.4286ZM117.291 41.6749V33.2512L141.527 41.5271L117.291 41.6749ZM116.109 9.31036L143.596 18.4729L144.188 41.0838L116.404 31.6256L57.5866 41.8227L57.1432 18.4729L116.109 9.31036ZM63.4979 41.9705L105.616 34.7291V41.9705H63.4979ZM106.651 34.5813L116.109 32.9557L116.257 52.0197L106.798 54.3843L106.651 34.5813ZM116.7 52.9064L131.626 61.4779L131.922 79.803L116.995 73.5961L84.6309 80.5419L84.4831 61.3301L116.7 52.9064ZM117.587 80.0985V78.1774V75.0739L129.705 80.0985H117.587Z" fill="#FE3C3B"/>
</svg>
