<svg width="202" height="120" viewBox="0 0 202 120" fill="none" xmlns="http://www.w3.org/2000/svg">
<g clip-path="url(#clip0_457_47603)">
<path d="M162.217 64.4336H167.998L167.849 63.6947L162.217 43.3006H150.952V32.6602H162.217V32.069V6.7981H41.4136V32.6602H52.0858V43.3006H41.5618L35.6328 64.4336H41.4136V113.793H81.879V113.941H83.0648V113.793H162.365L162.217 64.4336ZM146.505 43.3006V32.808H149.914V43.3006H146.505ZM145.319 43.3006H57.7183V32.6602H145.319V43.3006ZM42.5994 31.6257V7.98036H161.179V31.6257H57.7183H52.0858H42.5994ZM56.6807 32.808V43.3006H53.2716V32.808H56.6807ZM42.4512 44.4828H145.319H150.952H161.327L166.515 63.3991H37.2633L42.4512 44.4828ZM59.3488 112.759V70.4927H82.0272V112.759H59.3488ZM58.3112 69.3104V112.611H42.7476V64.4336H161.179L161.327 112.759H83.213V69.3104H58.3112Z" fill="#FE3C3B"/>
<path d="M77.2841 86.3054C76.0983 86.3054 75.209 87.1921 75.209 88.3744C75.209 89.5566 76.0983 90.4433 77.2841 90.4433C78.4699 90.4433 79.3593 89.5566 79.3593 88.3744C79.3593 87.3399 78.4699 86.3054 77.2841 86.3054ZM77.2841 89.4089C76.6912 89.4089 76.3948 88.9655 76.3948 88.5222C76.3948 87.931 76.8395 87.6355 77.2841 87.6355C77.877 87.6355 78.1735 88.0788 78.1735 88.5222C78.3217 88.9655 77.877 89.4089 77.2841 89.4089Z" fill="#FE3C3B"/>
<path d="M147.246 96.3547V69.1626H89.7344V96.9459H147.246V96.3547ZM146.06 95.7636H114.636V70.1971H146.06V95.7636ZM113.599 95.7636H102.778V70.1971H113.599V95.7636ZM90.9202 70.1971H101.592V95.7636H90.772V70.1971H90.9202Z" fill="#FE3C3B"/>
<path d="M65.5745 18.6206C65.871 18.3251 66.0192 17.8817 66.0192 17.4384C66.0192 17.1428 66.0192 16.995 65.871 16.6994C65.7227 16.4039 65.5745 16.2561 65.2781 16.1083C64.9816 15.9605 64.5369 15.8127 64.0923 15.8127H63.4994H63.0547V16.4039V19.064H64.0923C64.6852 19.064 65.1298 18.9162 65.5745 18.6206ZM64.9816 17.4384C64.9816 17.7339 64.9816 17.7339 64.8334 17.7339C64.8334 17.7339 64.5369 17.8817 64.2405 17.8817V16.8472C64.5369 16.8472 64.6852 16.8472 64.8334 16.995C64.9816 17.1428 64.9816 17.2906 64.9816 17.4384Z" fill="#FE3C3B"/>
<path d="M65.871 23.2019C66.1674 22.9064 66.4639 22.463 66.3156 22.0197C66.3156 21.5763 66.1674 21.133 65.871 20.8374C65.4263 20.5418 64.9816 20.394 64.3887 20.394H63.6476H63.0547V20.9852V23.6453H64.3887C64.9816 23.6453 65.4263 23.4975 65.871 23.2019ZM64.2405 21.5763H64.3887C64.8334 21.5763 65.1298 21.7241 65.1298 21.7241L65.2781 22.0197C65.2781 22.1674 65.2781 22.3152 65.1298 22.3152C65.1298 22.3152 64.8334 22.463 64.3887 22.463H64.2405V21.5763Z" fill="#FE3C3B"/>
<path d="M64.833 26.7488C65.5741 26.7488 66.3152 26.7488 67.0563 26.601C67.7975 26.4532 68.3904 26.1577 68.835 25.8621C69.2797 25.5665 69.7244 24.9754 70.0208 24.5321C70.3173 23.9409 70.4655 23.202 70.4655 22.4631C70.4655 22.1675 70.4655 21.7242 70.3173 21.4286C70.169 21.133 70.0208 20.6897 69.8726 20.3941C69.7244 20.0986 69.4279 19.803 69.1315 19.5074C69.4279 19.3596 69.5761 19.0641 69.7244 18.7685C70.0208 18.1774 70.169 17.5862 70.169 16.9951C70.169 16.2562 70.0208 15.6651 69.7244 15.0739C69.4279 14.4828 68.9832 14.1872 68.5386 13.7439C68.0939 13.4483 67.501 13.1527 66.9081 13.005C66.3152 12.8572 65.7223 12.8572 64.9812 12.8572H59.3486V26.7488H59.9415H64.833ZM64.833 13.8917C65.4259 13.8917 66.0187 13.8917 66.4634 14.0394C66.9081 14.1872 67.3528 14.335 67.7975 14.6306C68.0939 14.9261 68.3903 15.2217 68.6868 15.5173C68.835 15.8128 68.9832 16.2562 68.9832 16.8473C68.9832 17.2907 68.835 17.734 68.6868 18.0296C68.5386 18.4729 68.2421 18.6207 67.7975 18.7685L66.167 19.3596L67.9457 19.803C68.2421 19.803 68.3903 19.9508 68.6868 20.0986C68.835 20.2463 69.1315 20.3941 69.2797 20.6897C69.4279 20.8375 69.5761 21.133 69.5761 21.4286C69.7244 21.7242 69.7244 21.872 69.7244 22.1675C69.7244 22.7587 69.5761 23.3498 69.4279 23.6454C69.2797 24.0887 68.9832 24.3843 68.5386 24.6798C68.0939 24.9754 67.6492 25.1232 67.2045 25.271C66.6116 25.4188 66.0188 25.4188 65.2776 25.4188H60.6827V13.8917H64.833Z" fill="#FE3C3B"/>
<path d="M77.5802 23.2019C77.8766 22.9064 78.0248 22.463 78.0248 22.0197C78.0248 21.5763 77.8766 21.133 77.5802 20.8374C77.1355 20.5418 76.6908 20.394 76.0979 20.394H75.505H74.9121V20.9852V23.6453H75.9497C76.6908 23.6453 77.1355 23.4975 77.5802 23.2019ZM76.839 21.7241L76.9873 22.0197C76.9873 22.1674 76.9873 22.3152 76.839 22.3152C76.839 22.3152 76.5426 22.463 76.0979 22.463V21.5763C76.5426 21.5763 76.839 21.7241 76.839 21.7241Z" fill="#FE3C3B"/>
<path d="M76.8394 26.7488C77.5805 26.7488 78.1734 26.7488 78.7663 26.601C79.3592 26.4532 79.9521 26.1577 80.3968 25.8621C80.8414 25.4188 81.2861 24.9754 81.5826 24.3843C81.879 23.9409 81.879 23.3498 82.0272 22.7587V26.8966H82.6201H87.0669V12.8572H82.0272V21.5764C82.0272 20.9853 81.879 20.3941 81.5826 19.9508C81.2861 19.3596 80.8414 18.9163 80.3968 18.6207C79.9521 18.3252 79.3592 18.0296 78.7663 17.8818C78.1734 17.734 77.4323 17.734 76.8394 17.734H76.0982V12.8572H71.0586V26.7488H71.6515H76.8394ZM86.0293 13.8917V25.5665H83.213V13.8917H86.0293ZM75.0607 13.8917V18.7685H76.9876C77.5805 18.7685 78.1734 18.7685 78.7663 18.9163C79.211 19.0641 79.6556 19.2119 80.1003 19.5074C80.3968 19.803 80.6932 20.0986 80.9897 20.5419C81.1379 20.9853 81.2861 21.4286 81.2861 22.1675C81.2861 22.9064 81.1379 23.4976 80.9897 23.9409C80.8414 24.3843 80.545 24.6798 80.1003 24.9754C79.8039 25.271 79.3592 25.4188 78.7663 25.5665C78.1734 25.7143 77.7287 25.7143 76.9876 25.7143H72.2444V13.8917H75.0607Z" fill="#FE3C3B"/>
<path d="M94.1816 26.7488C94.9227 26.7488 95.6638 26.7488 96.405 26.601C97.1461 26.4532 97.739 26.1577 98.1837 25.8621C98.6283 25.5665 99.073 24.9754 99.3695 24.5321C99.6659 23.9409 99.8141 23.202 99.8141 22.4631C99.8141 22.1675 99.8141 21.7242 99.6659 21.4286C99.5177 21.133 99.3695 20.6897 99.2212 20.3941C99.073 20.0986 98.7766 19.803 98.4801 19.5074C98.7766 19.3596 98.9248 19.0641 99.073 18.7685C99.3695 18.1774 99.5177 17.5862 99.5177 16.9951C99.5177 16.2562 99.3695 15.6651 99.073 15.0739C98.7766 14.4828 98.3319 14.1872 97.8872 13.7439C97.4425 13.4483 96.8496 13.1527 96.2567 13.005C95.6638 12.8572 95.0709 12.8572 94.3298 12.8572H88.6973V26.7488H89.2902H94.1816ZM94.1816 13.8917C94.7745 13.8917 95.3674 13.8917 95.8121 14.0394C96.2567 14.1872 96.7014 14.335 97.1461 14.6306C97.4425 14.9261 97.739 15.2217 98.0354 15.5173C98.1837 15.8128 98.3319 16.2562 98.3319 16.8473C98.3319 17.2907 98.1837 17.734 98.0354 18.0296C97.8872 18.4729 97.5908 18.6207 97.1461 18.7685L95.5156 19.3596L97.2943 19.803C97.5908 19.803 97.739 19.9508 98.0354 20.0986C98.1837 20.2463 98.4801 20.3941 98.6283 20.6897C98.7766 20.8375 98.9248 21.133 98.9248 21.4286C99.073 21.7242 99.073 21.872 99.073 22.1675C99.073 22.7587 98.9248 23.3498 98.7766 23.6454C98.6283 24.0887 98.3319 24.3843 97.8872 24.6798C97.4425 24.9754 96.9979 25.1232 96.5532 25.271C95.9603 25.4188 95.3674 25.4188 94.6263 25.4188H89.7348V13.8917H94.1816Z" fill="#FE3C3B"/>
<path d="M95.2186 23.2019C95.5151 22.9064 95.8115 22.463 95.6633 22.0197C95.6633 21.5763 95.5151 21.133 95.2186 20.8374C94.7739 20.5418 94.3293 20.394 93.7364 20.394H92.9952H92.4023V20.9852V23.6453H93.7364C94.3293 23.6453 94.7739 23.4975 95.2186 23.2019ZM93.5881 21.5763H93.7364C94.181 21.5763 94.4775 21.7241 94.4775 21.7241L94.6257 22.0197C94.6257 22.1674 94.6257 22.3152 94.4775 22.3152C94.4775 22.3152 94.181 22.463 93.7364 22.463H93.5881V21.5763Z" fill="#FE3C3B"/>
<path d="M94.9229 18.6206C95.2194 18.3251 95.3676 17.8817 95.3676 17.4384C95.3676 17.1428 95.3676 16.995 95.2194 16.6994C95.0712 16.4039 94.9229 16.2561 94.6265 16.1083C94.33 15.9605 93.8854 15.8127 93.4407 15.8127H92.8478H92.2549V16.4039V19.064H93.2925C94.0336 19.064 94.4783 18.9162 94.9229 18.6206ZM94.33 17.4384C94.33 17.7339 94.33 17.7339 94.1818 17.7339C94.1818 17.7339 93.8854 17.8817 93.5889 17.8817V16.8472C93.8854 16.8472 94.0336 16.8472 94.1818 16.995C94.33 17.1428 94.33 17.2906 94.33 17.4384Z" fill="#FE3C3B"/>
<path d="M109.449 26.7487L110.338 22.6108V22.7586C110.783 23.6453 111.228 24.3842 111.969 24.9753C112.71 25.5664 113.451 26.1576 114.34 26.4531C115.23 26.7487 116.119 26.8965 117.157 26.8965C118.194 26.8965 119.084 26.7487 119.973 26.4531C120.862 26.1576 121.603 25.5664 122.345 24.9753L122.641 24.6798L119.528 20.6896L119.084 21.2807C118.787 21.5763 118.639 21.8719 118.342 22.0197C118.046 22.1674 117.601 22.3152 117.157 22.3152C116.86 22.3152 116.564 22.3152 116.267 22.1674C115.971 22.0197 115.823 21.8719 115.526 21.7241C115.378 21.5763 115.081 21.2807 115.081 20.8374C114.933 20.5418 114.933 20.0985 114.933 19.6551C114.933 19.2118 114.933 18.7684 115.081 18.4729C115.23 18.1773 115.378 17.8817 115.526 17.5862C115.674 17.4384 115.971 17.1428 116.267 17.1428C116.564 16.995 116.86 16.995 117.157 16.995C117.601 16.995 117.898 17.1428 118.194 17.2906C118.491 17.5862 118.787 17.7339 119.084 18.0295L119.528 18.4729L122.641 15.0738L122.345 14.9261C121.752 14.1871 121.01 13.596 120.121 13.1527C119.232 12.7093 118.194 12.5615 117.157 12.5615C116.119 12.5615 115.23 12.7093 114.34 13.0049C113.451 13.3004 112.71 13.7438 111.969 14.4827C111.228 15.0738 110.783 15.8128 110.338 16.6995C109.894 17.5862 109.745 18.6206 109.745 19.8029C109.745 20.6896 109.894 21.5763 110.19 22.463H105.447V21.7241H108.411L109.301 17.5862H105.447V17.1428H109.301L110.19 12.8571H100.407V26.7487H101H109.449ZM111.376 17.1428C111.672 16.4039 112.117 15.8128 112.71 15.2216C113.303 14.6305 114.044 14.3349 114.785 14.0394C115.526 13.7438 116.416 13.596 117.157 13.596C118.046 13.596 118.935 13.7438 119.676 14.1871C120.269 14.4827 120.714 14.9261 121.159 15.3694L119.528 17.1428C119.38 16.995 119.084 16.6995 118.787 16.5517C118.342 16.2561 117.75 16.1083 117.157 16.1083C116.712 16.1083 116.267 16.2561 115.971 16.4039C115.526 16.5517 115.23 16.8472 114.933 17.1428C114.637 17.4384 114.34 17.8817 114.192 18.3251C114.044 18.7684 113.896 19.3596 113.896 19.9507C113.896 20.5418 114.044 20.9852 114.192 21.5763C114.34 22.0197 114.637 22.463 114.933 22.7586C115.23 23.0541 115.674 23.3497 115.971 23.4975C116.416 23.6453 116.86 23.7931 117.157 23.7931C117.75 23.7931 118.342 23.6453 118.787 23.3497C119.084 23.2019 119.232 23.0541 119.528 22.7586L121.159 24.6798C120.714 25.1231 120.269 25.4187 119.676 25.5664C118.935 25.862 118.194 26.0098 117.305 26.0098C116.416 26.0098 115.674 25.862 114.785 25.5664C114.044 25.2709 113.303 24.8275 112.71 24.3842C112.117 23.7931 111.672 23.2019 111.376 22.463C111.079 21.7241 110.783 20.8374 110.783 19.9507C110.783 18.7684 111.079 17.8817 111.376 17.1428ZM109.004 13.8916L108.56 15.9605H104.409V18.6206H107.967L107.522 20.5418H104.409V23.4975H109.004L108.56 25.5664H101.593V13.8916H109.004Z" fill="#FE3C3B"/>
<path d="M127.68 26.7487V23.4975L129.163 26.7487H133.313H135.24H138.649V26.3054L139.094 23.6453H140.428L140.872 26.8965H146.06L143.392 13.0049H136.129L133.906 24.532L130.941 19.6551L134.943 13.0049H129.163L127.68 15.9605V13.0049H122.641V26.8965H123.234H127.68V26.7487ZM137.018 13.8916H142.503L144.726 25.5665H141.762L141.317 22.3152H138.056L137.611 25.5665H134.647L137.018 13.8916ZM126.643 13.8916V18.6206H127.236H127.532L129.904 13.8916H133.016L129.755 19.3596L133.461 25.5665H130.052L127.68 20.394H127.236H126.643V25.5665H123.826V13.8916H126.643Z" fill="#FE3C3B"/>
<path d="M140.428 15.9607H139.539H139.094V16.404L138.501 20.542H141.317L140.428 15.9607ZM139.687 19.5075L139.835 18.7686L139.983 19.5075H139.687Z" fill="#FE3C3B"/>
</g>
<defs>
<clipPath id="clip0_457_47603">
<rect width="200.4" height="120" fill="white" transform="translate(0.799805)"/>
</clipPath>
</defs>
</svg>
