<svg width="200" height="120" viewBox="0 0 200 120" fill="none" xmlns="http://www.w3.org/2000/svg">
<g clip-path="url(#clip0_457_47640)">
<path d="M168.128 24.532H41.3302L33.0544 33.8423H32.7588V96.3546H159.852V96.0591L168.128 86.7487V24.532ZM41.9213 25.7142H166.355L159.113 33.8423H34.68L41.9213 25.7142ZM33.9411 35.0246H158.818V95.3202H33.9411V35.0246ZM159.852 94.4335V34.5812L166.946 26.6009V86.3054L159.852 94.4335Z" fill="#FE3C3B"/>
<path d="M54.4831 66.6503C54.3353 66.207 54.1875 65.7636 53.892 65.3203C53.5964 64.8769 53.3008 64.5813 52.8575 64.2858C52.8575 64.2858 52.7097 64.138 52.5619 64.138C52.8575 63.8424 53.153 63.5469 53.4486 63.1035C53.892 62.3646 54.0397 61.6257 54.0397 60.8868C54.0397 60.0001 53.892 59.2612 53.4486 58.5222C53.153 57.9311 52.5619 57.34 51.9708 56.8966C51.3796 56.4533 50.6407 56.1577 49.9018 56.0099C49.1629 55.8621 48.2762 55.7144 47.3895 55.7144H40.2959V73.3006H40.887H47.3895C48.424 73.3006 49.3107 73.1528 50.1974 73.005C51.0841 72.8572 51.823 72.5616 52.4141 72.1183C53.0053 71.6749 53.5964 71.0838 53.892 70.3449C54.1875 69.606 54.4831 68.7193 54.4831 67.8326C54.6309 67.537 54.6309 67.0937 54.4831 66.6503ZM53.153 70.0493C52.8575 70.6405 52.5619 71.0838 51.9708 71.3794C51.5274 71.6749 50.7885 71.9705 50.1974 72.1183C49.4585 72.2661 48.5718 72.4139 47.6851 72.4139H41.6259V57.0444H47.5373C48.2762 57.0444 49.0151 57.1922 49.754 57.34C50.4929 57.4878 50.9363 57.7833 51.5274 58.0789C51.9708 58.3745 52.4141 58.8178 52.7097 59.2612C53.0053 59.7045 53.153 60.2956 53.153 61.0346C53.153 61.6257 53.0053 62.2168 52.7097 62.6602C52.4141 63.2513 51.9708 63.5469 51.3796 63.6946L49.754 64.2858L51.5274 64.7291C51.823 64.8769 52.1186 65.0247 52.4141 65.1725C52.7097 65.3203 53.0053 65.6158 53.153 65.9114C53.3008 66.207 53.4486 66.5025 53.5964 66.7981C53.7442 67.0937 53.7442 67.537 53.7442 67.8326C53.5964 68.8671 53.4486 69.606 53.153 70.0493Z" fill="#FE3C3B"/>
<path d="M48.4234 63.2512C48.8668 62.9557 49.0146 62.3645 49.0146 61.7734C49.0146 61.4778 49.0146 61.1823 48.8668 60.8867C48.719 60.5911 48.5712 60.4434 48.2757 60.2956C47.8323 60 47.389 60 46.7978 60H46.0589H45.4678V60.5911V63.8424H46.65C47.389 63.6946 47.9801 63.5468 48.4234 63.2512ZM46.65 61.0345C47.2412 61.0345 47.5367 61.1823 47.6845 61.1823L47.8323 61.3301C47.8323 61.4778 47.8323 61.4778 47.8323 61.7734C47.8323 62.069 47.6845 62.2168 47.6845 62.3645C47.6845 62.5123 47.2412 62.5123 46.65 62.5123V61.0345Z" fill="#FE3C3B"/>
<path d="M47.0931 65.9114H46.2064H45.6152V66.5025V69.7537H47.0931C47.832 69.7537 48.4231 69.606 48.8665 69.3104C49.3098 69.0148 49.4576 68.4237 49.4576 67.8326C49.4576 67.3892 49.3098 66.7981 48.8665 66.5025C48.4231 65.9114 47.6842 65.9114 47.0931 65.9114ZM48.1276 68.2759C47.9798 68.4237 47.6842 68.5715 47.0931 68.4237H46.7975V66.9459H47.0931C47.6842 66.9459 47.9798 67.0936 48.1276 67.2414C48.2753 67.3892 48.4231 67.537 48.4231 67.6848C48.2753 67.9803 48.2753 68.1281 48.1276 68.2759Z" fill="#FE3C3B"/>
<path d="M70 73.596H70.5911H76.2069V56.0098H70.1478V73.596H70ZM75.0246 57.0442V72.4137H71.0345V57.0442H75.0246Z" fill="#FE3C3B"/>
<path d="M69.2614 65.0246C68.9659 64.2857 68.3747 63.6946 67.7836 63.2512C67.1925 62.8079 66.4536 62.5123 65.7146 62.3645C64.9757 62.2167 64.089 62.069 63.2023 62.069H62.0201V55.8621H55.9609V73.4483H56.5521H63.2023C64.089 73.4483 64.9757 73.3005 65.7146 73.1527C66.4536 73.0049 67.1925 72.7094 67.7836 72.1182C68.3747 71.6749 68.8181 71.0837 69.2614 70.3448C69.557 69.6059 69.8526 68.7192 69.8526 67.5369C69.7048 66.6502 69.557 65.7635 69.2614 65.0246ZM68.2269 70.0493C67.9314 70.6404 67.6358 71.0837 67.0447 71.5271C66.6013 71.8227 66.0102 72.1182 65.4191 72.266C64.6802 72.4138 63.9412 72.5616 63.2023 72.5616H56.9954V57.0443H60.8378V63.2512H63.0545C63.9412 63.2512 64.6801 63.399 65.2713 63.5468C66.0102 63.6946 66.4535 63.9901 67.0447 64.2857C67.488 64.5813 67.9314 65.0246 68.0792 65.6158C68.3747 66.2069 68.5225 66.798 68.5225 67.6847C68.6703 68.5714 68.5225 69.4581 68.2269 70.0493Z" fill="#FE3C3B"/>
<path d="M62.167 65.9114H61.428H60.8369V66.5025V69.7537H62.167C62.9059 69.7537 63.497 69.606 63.9404 69.3104C64.3837 69.0148 64.5315 68.4237 64.5315 67.8326C64.5315 67.3892 64.3837 66.7981 63.9404 66.5025C63.497 65.9114 62.9059 65.9114 62.167 65.9114ZM63.2014 68.2759C63.0537 68.4237 62.7581 68.5715 62.167 68.5715H62.0192V67.0936H62.167C62.7581 67.0936 63.0537 67.2414 63.2014 67.3892C63.3492 67.537 63.497 67.6848 63.497 67.8326C63.3492 67.9803 63.3492 68.1281 63.2014 68.2759Z" fill="#FE3C3B"/>
<path d="M84.7786 65.9114H83.8919H83.3008V66.5025V69.7537H84.7786C85.5175 69.7537 86.1087 69.606 86.552 69.3104C86.9954 69.0148 87.1431 68.4237 87.1431 67.8326C87.1431 67.3892 86.9954 66.7981 86.552 66.5025C86.1087 65.9114 85.5175 65.9114 84.7786 65.9114ZM85.8131 68.2759C85.6653 68.4237 85.3697 68.5715 84.7786 68.4237H84.3353V66.9459H84.6308C85.222 66.9459 85.5175 67.0936 85.6653 67.2414C85.8131 67.3892 85.9609 67.537 85.9609 67.6848C85.9609 67.9803 85.9609 68.1281 85.8131 68.2759Z" fill="#FE3C3B"/>
<path d="M86.2564 63.2512C86.6998 62.9557 86.8476 62.3645 86.8476 61.7734C86.8476 61.4778 86.8476 61.1823 86.6998 60.8867C86.552 60.5911 86.4042 60.4434 86.1087 60.2956C85.6653 60 85.222 60 84.6308 60H83.8919H83.3008V60.5911V63.8424H84.483C85.222 63.6946 85.8131 63.5468 86.2564 63.2512ZM84.3353 61.0345C84.9264 61.0345 85.222 61.1823 85.3697 61.1823L85.5175 61.3301C85.5175 61.4778 85.5175 61.4778 85.5175 61.7734C85.5175 62.069 85.3697 62.2168 85.3697 62.3645C85.3697 62.5123 84.9264 62.5123 84.3353 62.5123V61.0345Z" fill="#FE3C3B"/>
<path d="M92.1677 66.6503C92.0199 66.207 91.8721 65.7636 91.5765 65.3203C91.281 64.8769 90.9854 64.5813 90.542 64.2858C90.3943 64.2858 90.3943 64.138 90.2465 64.138C90.542 63.8424 90.8376 63.5469 91.1332 63.1035C91.5765 62.3646 91.7243 61.6257 91.7243 60.8868C91.7243 60.0001 91.5765 59.2612 91.1332 58.5222C90.8376 57.9311 90.2465 57.34 89.6553 56.8966C89.0642 56.4533 88.3253 56.1577 87.5864 56.0099C86.8475 55.8621 85.9608 55.7144 85.0741 55.7144H77.9805V73.3006H78.5716H85.0741C86.1085 73.3006 86.9952 73.1528 87.8819 73.005C88.7686 72.8572 89.5076 72.5616 90.0987 72.1183C90.6898 71.6749 91.281 71.0838 91.5765 70.3449C91.8721 69.606 92.1677 68.7193 92.1677 67.8326C92.4632 67.537 92.3154 67.0937 92.1677 66.6503ZM90.8376 70.0493C90.542 70.6405 90.2465 71.0838 89.6553 71.3794C89.212 71.6749 88.4731 71.9705 87.8819 72.1183C87.143 72.2661 86.2563 72.4139 85.3696 72.4139H79.3105V57.0444H85.2218C85.9608 57.0444 86.6997 57.1922 87.4386 57.34C88.1775 57.4878 88.6209 57.7833 89.212 58.0789C89.6553 58.3745 90.0987 58.8178 90.3943 59.2612C90.6898 59.7045 90.8376 60.2956 90.8376 61.0346C90.8376 61.6257 90.6898 62.2168 90.3943 62.6602C90.0987 63.2513 89.6553 63.5469 89.0642 63.6946L87.2908 64.4336L89.0642 64.8769C89.3598 65.0247 89.6553 65.1725 89.9509 65.3203C90.2465 65.4681 90.542 65.7636 90.6898 66.0592C90.8376 66.3547 90.9854 66.6503 91.1332 66.9459C91.281 67.2414 91.281 67.6848 91.281 67.9804C91.281 68.8671 91.1332 69.606 90.8376 70.0493Z" fill="#FE3C3B"/>
<path d="M99.7046 67.0935H103.547L104.581 62.0689H99.7046V61.1822H104.729L105.912 56.0098H93.6455V73.596H94.2366H104.877L106.059 68.4236H99.8524V67.0935H99.7046ZM104.581 69.458L103.99 72.4137H94.68V57.0442H104.434L103.843 59.9999H98.5224V63.1034H103.104L102.513 65.9112H98.5224V69.458H104.581Z" fill="#FE3C3B"/>
<path d="M117.586 66.9458C117.29 67.3891 116.847 67.6847 116.551 67.9803C116.108 68.1281 115.664 68.2758 115.073 68.2758C114.63 68.2758 114.334 68.2758 113.891 67.9803C113.596 67.8325 113.152 67.6847 112.857 67.3891C112.561 67.0936 112.413 66.798 112.118 66.2069C111.97 65.7635 111.822 65.3202 111.822 64.5813C111.822 63.9901 111.97 63.399 112.118 62.9556C112.265 62.5123 112.561 62.0689 112.857 61.7734C113.152 61.4778 113.448 61.33 113.891 61.1823C114.334 61.0345 114.63 60.8867 115.073 60.8867C115.664 60.8867 116.108 61.0345 116.551 61.33C116.995 61.6256 117.438 61.9212 117.733 62.3645L118.177 62.8079L121.871 58.6699L121.576 58.3744C120.837 57.3399 119.95 56.601 118.768 56.1576C117.586 55.5665 116.403 55.4187 114.926 55.4187C113.743 55.4187 112.561 55.5665 111.379 56.0098C110.197 56.4532 109.162 57.0443 108.423 57.7832C107.536 58.5221 106.798 59.5566 106.354 60.7389C105.763 61.9212 105.615 63.1034 105.615 64.5813C105.615 66.0591 105.911 67.2414 106.354 68.4236C106.798 69.6059 107.536 70.4926 108.423 71.3793C109.31 72.1182 110.344 72.8571 111.379 73.1527C112.561 73.596 113.743 73.7438 114.926 73.7438C116.108 73.7438 117.29 73.596 118.472 73.1527C119.655 72.7093 120.541 72.1182 121.428 71.2315L121.724 70.9359L117.881 66.2069L117.586 66.9458ZM118.177 72.266C117.142 72.7093 116.108 72.8571 115.073 72.8571C113.891 72.8571 112.857 72.7093 111.822 72.266C110.788 71.8226 109.901 71.3793 109.162 70.6404C108.423 69.9015 107.832 69.1625 107.389 68.1281C106.945 67.0936 106.65 66.0591 106.65 64.729C106.65 63.399 106.945 62.3645 107.389 61.33C107.832 60.2955 108.423 59.5566 109.162 58.8177C109.901 58.0788 110.788 57.6355 111.822 57.1921C112.857 56.7488 113.891 56.601 115.073 56.601C116.256 56.601 117.438 56.8965 118.325 57.3399C119.211 57.7832 119.802 58.2266 120.394 58.9655L118.177 61.4778C117.881 61.1822 117.586 60.8867 117.142 60.7389C116.551 60.2955 115.812 60.1478 115.073 60.1478C114.482 60.1478 114.039 60.2956 113.448 60.4433C113.004 60.5911 112.413 60.8867 112.118 61.33C111.674 61.7734 111.379 62.2167 111.231 62.8079C110.935 63.399 110.935 63.9901 110.935 64.729C110.935 65.468 111.083 66.0591 111.231 66.6502C111.527 67.2414 111.822 67.6847 112.118 68.1281C112.561 68.5714 113.004 68.867 113.448 69.0148C113.891 69.1625 114.482 69.3103 115.073 69.3103C115.812 69.3103 116.551 69.1625 117.142 68.867C117.586 68.7192 117.881 68.4236 118.177 68.1281L120.394 70.9359C119.655 71.5271 118.916 71.9704 118.177 72.266Z" fill="#FE3C3B"/>
<path d="M148.472 56.0098H139.31L136.354 71.0837L132.364 64.2856L137.389 56.0098H130.295L128.226 60.2955V56.0098H122.167V73.596H122.758H128.374V68.7191L130.591 73.596H136.059H137.98H142.413V73.1526L143.004 69.458H144.926L145.517 73.596H151.871L148.472 56.0098ZM131.182 72.4137L128.078 65.7635H127.635H127.192V72.4137H123.349V57.0442H127.192V63.1034H127.783H128.078L131.034 57.0442H135.467L131.034 64.2856L136.059 72.4137H131.182ZM145.96 68.2758H141.97L141.379 72.4137H137.389L140.344 57.0442H147.586L150.541 72.4137H146.551L145.96 68.2758Z" fill="#FE3C3B"/>
<path d="M143.596 60H143.153V60.4434L142.414 65.6158H145.665L144.779 60H143.596ZM143.596 64.5813L143.892 62.3645L144.187 64.5813H143.596Z" fill="#FE3C3B"/>
</g>
<defs>
<clipPath id="clip0_457_47640">
<rect width="199.803" height="120" fill="white" transform="translate(0.0986328)"/>
</clipPath>
</defs>
</svg>
