<svg width="53" height="60" viewBox="0 0 53 60" fill="none" xmlns="http://www.w3.org/2000/svg">
<g clip-path="url(#clip0_445_46566)">
<path d="M46.875 26.25H44.0625V17.8125C44.0625 7.99219 36.0703 0 26.25 0C16.4297 0 8.4375 7.99219 8.4375 17.8125V26.25H5.625C2.51953 26.25 0 28.7695 0 31.875V54.375C0 57.4805 2.51953 60 5.625 60H46.875C49.9805 60 52.5 57.4805 52.5 54.375V31.875C52.5 28.7695 49.9805 26.25 46.875 26.25ZM34.6875 26.25H17.8125V17.8125C17.8125 13.1602 21.5977 9.375 26.25 9.375C30.9023 9.375 34.6875 13.1602 34.6875 17.8125V26.25Z" fill="#CBD3DA"/>
</g>
<defs>
<clipPath id="clip0_445_46566">
<rect width="52.5" height="60" fill="white"/>
</clipPath>
</defs>
</svg>
