<svg width="214" height="60" viewBox="0 0 214 60" fill="none" xmlns="http://www.w3.org/2000/svg">
<path d="M72.5965 38V22.6H78.9985C80.6265 22.6 81.9025 22.9373 82.8265 23.612C83.7652 24.272 84.2345 25.2473 84.2345 26.538C84.2345 27.814 83.7872 28.782 82.8925 29.442C81.9978 30.0873 80.8245 30.41 79.3725 30.41L79.7465 29.86C81.4625 29.86 82.7678 30.1973 83.6625 30.872C84.5572 31.5467 85.0045 32.5367 85.0045 33.842C85.0045 35.162 84.5352 36.1887 83.5965 36.922C82.6725 37.6407 81.2792 38 79.4165 38H72.5965ZM74.2025 36.702H79.4165C80.7218 36.702 81.7118 36.46 82.3865 35.976C83.0612 35.492 83.3985 34.744 83.3985 33.732C83.3985 32.7347 83.0612 32.0013 82.3865 31.532C81.7118 31.0627 80.7218 30.828 79.4165 30.828H74.2025V36.702ZM74.2025 29.574H78.9105C80.0985 29.574 81.0078 29.3393 81.6385 28.87C82.2838 28.386 82.6065 27.6747 82.6065 26.736C82.6065 25.7973 82.2838 25.0933 81.6385 24.624C81.0078 24.14 80.0985 23.898 78.9105 23.898H74.2025V29.574ZM89.735 38V22.6H91.341V35.36L101.197 22.6H102.671V38H101.065V25.262L91.209 38H89.735ZM118.521 37.23V24.008H111.151L111.019 27.748C110.975 28.9067 110.902 30.0213 110.799 31.092C110.711 32.148 110.565 33.1013 110.359 33.952C110.169 34.788 109.905 35.47 109.567 35.998C109.245 36.526 108.819 36.834 108.291 36.922L106.509 36.592C107.096 36.6213 107.58 36.4087 107.961 35.954C108.357 35.4993 108.658 34.8613 108.863 34.04C109.083 33.2187 109.245 32.258 109.347 31.158C109.45 30.058 109.523 28.87 109.567 27.594L109.743 22.6H120.127V37.23H118.521ZM105.937 41.454L105.959 36.592H122.437V41.454H120.919V38H107.477L107.455 41.454H105.937ZM124.605 32.72V31.356H130.369V32.72H124.605ZM134.942 38V22.6H144.732V24.008H136.108L136.526 23.59L136.548 38H134.942ZM148.191 38V22.6H153.955C155.261 22.6 156.383 22.8127 157.321 23.238C158.26 23.6487 158.979 24.25 159.477 25.042C159.991 25.8193 160.247 26.7653 160.247 27.88C160.247 28.9653 159.991 29.904 159.477 30.696C158.979 31.4733 158.26 32.0747 157.321 32.5C156.383 32.9253 155.261 33.138 153.955 33.138H149.093L149.819 32.368V38H148.191ZM149.819 32.5L149.093 31.708H153.911C155.451 31.708 156.617 31.378 157.409 30.718C158.216 30.0433 158.619 29.0973 158.619 27.88C158.619 26.648 158.216 25.6947 157.409 25.02C156.617 24.3453 155.451 24.008 153.911 24.008H149.093L149.819 23.238V32.5ZM163.626 36.482C164.374 36.7753 165.078 36.8487 165.738 36.702C166.398 36.5407 167.007 36.02 167.564 35.14L168.312 33.952L168.466 33.754L174.362 22.6H175.99L168.994 35.492C168.525 36.3867 167.968 37.054 167.322 37.494C166.692 37.934 166.017 38.1687 165.298 38.198C164.594 38.2273 163.883 38.0953 163.164 37.802L163.626 36.482ZM168.422 35.228L161.756 22.6H163.494L169.302 33.886L168.422 35.228ZM179.181 38V22.6H192.139V38H190.533V23.568L190.951 24.008H180.369L180.787 23.568V38H179.181ZM197.996 38V22.6H210.954V38H209.348V23.568L209.766 24.008H199.184L199.602 23.568V38H197.996Z" fill="#15171A"/>
<rect x="11" y="11" width="19.3834" height="19.3833" fill="#FE3C3B"/>
<rect x="30.0481" y="10.6826" width="19.3834" height="19.3833" fill="#FE3C3B"/>
<rect x="10.6648" y="30.0659" width="19.3834" height="19.3833" fill="#FE3C3B"/>
<rect x="30.0481" y="30.0659" width="19.3834" height="19.3833" fill="#FE3C3B"/>
<rect width="14.9103" height="14.9103" transform="matrix(0.707109 0.707104 -0.707109 0.707104 30.0481 0)" fill="#FF9393"/>
<rect width="14.9103" height="14.9103" transform="matrix(0.707109 0.707104 -0.707109 0.707104 49.4573 19.5049)" fill="#FF9393"/>
<rect width="14.9103" height="14.9103" transform="matrix(0.707109 0.707104 -0.707109 0.707104 10.543 19.5049)" fill="#FF9393"/>
<rect width="14.9103" height="14.9103" transform="matrix(0.707109 0.707104 -0.707109 0.707104 30.0481 38.9136)" fill="#FF9393"/>
<rect width="12.5635" height="12.5565" transform="matrix(0.707599 0.706614 -0.707599 0.706614 29.885 21)" fill="white"/>
</svg>
