<svg width="19" height="18" viewBox="0 0 19 18" fill="none" xmlns="http://www.w3.org/2000/svg">
<g clip-path="url(#clip0_149_5500)">
<path fill-rule="evenodd" clip-rule="evenodd" d="M9.5 0C14.4626 0 18.5 4.0374 18.5 9C18.5 13.9626 14.4626 18 9.5 18C4.5374 18 0.5 13.9626 0.5 9C0.5 4.0374 4.5374 0 9.5 0ZM15.116 13.5C14.4423 14.3424 13.5878 15.0224 12.6156 15.4898C11.6435 15.9571 10.5786 16.1998 9.5 16.1998C8.42136 16.1998 7.35653 15.9571 6.38438 15.4898C5.41224 15.0224 4.55768 14.3424 3.884 13.5C4.55768 12.6576 5.41224 11.9776 6.38438 11.5102C7.35653 11.0429 8.42136 10.8002 9.5 10.8002C10.5786 10.8002 11.6435 11.0429 12.6156 11.5102C13.5878 11.9776 14.4423 12.6576 15.116 13.5ZM9.5 9C9.85457 9 10.2057 8.93016 10.5332 8.79447C10.8608 8.65879 11.1585 8.45991 11.4092 8.20919C11.6599 7.95847 11.8588 7.66082 11.9945 7.33325C12.1302 7.00567 12.2 6.65457 12.2 6.3C12.2 5.94543 12.1302 5.59433 11.9945 5.26675C11.8588 4.93918 11.6599 4.64153 11.4092 4.39081C11.1585 4.14009 10.8608 3.94121 10.5332 3.80553C10.2057 3.66984 9.85457 3.6 9.5 3.6C8.78392 3.6 8.09716 3.88446 7.59081 4.39081C7.08446 4.89716 6.8 5.58392 6.8 6.3C6.8 7.01608 7.08446 7.70284 7.59081 8.20919C8.09716 8.71554 8.78392 9 9.5 9Z" fill="#FF9393"/>
</g>
<defs>
<clipPath id="clip0_149_5500">
<rect width="18" height="18" fill="white" transform="translate(0.5)"/>
</clipPath>
</defs>
</svg>
