<svg width="71" height="70" viewBox="0 0 71 70" fill="none" xmlns="http://www.w3.org/2000/svg">
<g clip-path="url(#clip0_307_25660)">
<rect x="0.5" width="70" height="70" rx="35" fill="#FE3C3B"/>
<path d="M35.5 0C16.1998 0 0.5 15.7013 0.5 35C0.5 54.2987 16.1998 70 35.5 70C54.8002 70 70.5 54.2987 70.5 35C70.5 15.7013 54.8002 0 35.5 0ZM49.414 36.2262L28.9974 49.3512C28.7623 49.503 28.4883 49.5837 28.2084 49.5834C27.9691 49.5834 27.727 49.5235 27.5106 49.4054C27.2803 49.2801 27.0881 49.0951 26.9543 48.8697C26.8204 48.6444 26.7498 48.3871 26.75 48.125V21.875C26.75 21.341 27.0405 20.851 27.5106 20.5946C27.972 20.3412 28.5502 20.3567 28.9974 20.6488L49.414 33.7738C49.8299 34.0415 50.0834 34.5044 50.0834 35C50.0834 35.4956 49.8299 35.9584 49.414 36.2262Z" fill="white"/>
</g>
<defs>
<clipPath id="clip0_307_25660">
<rect width="70" height="70" fill="white" transform="translate(0.5)"/>
</clipPath>
</defs>
</svg>
