<svg width="23" height="22" viewBox="0 0 23 22" fill="none" xmlns="http://www.w3.org/2000/svg">
<path d="M5.07447 15.7335C5.20802 15.561 5.33133 15.3851 5.4444 15.2059C6.46218 13.5926 4.59009 12.0666 3.25286 10.7062C2.47381 9.8904 2.08429 8.87614 2.08429 7.66342C2.08429 6.40662 2.51964 5.31518 3.39034 4.38911C4.26105 3.46303 5.32651 3 6.58674 3C8.03028 3 9.15303 3.55123 9.95499 4.6537C10.757 5.75616 11.1579 7.10117 11.1579 8.68872C11.1579 11.2244 10.3331 13.5947 8.68331 15.7996C7.21817 17.7854 5.26982 19.1184 2.83828 19.7986C2.37521 19.9282 1.90455 19.6511 1.75878 19.1929C1.61217 18.732 1.84348 18.2397 2.27284 18.0171C3.424 17.4201 4.35787 16.6589 5.07447 15.7335ZM16.4165 15.7335C16.5501 15.561 16.6734 15.3851 16.7865 15.2059C17.8042 13.5926 15.9322 12.0666 14.5949 10.7062C13.8159 9.8904 13.4263 8.87614 13.4263 7.66342C13.4263 6.40662 13.8617 5.31518 14.7324 4.38911C15.6031 3.46303 16.6686 3 17.9288 3C19.3723 3 20.4951 3.55123 21.2971 4.6537C22.099 5.75616 22.5 7.10117 22.5 8.68872C22.5 11.2244 21.6751 13.5947 20.0254 15.7996C18.5602 17.7854 16.6119 19.1184 14.1803 19.7986C13.7173 19.9282 13.2466 19.6511 13.1008 19.1929C12.9542 18.732 13.1855 18.2397 13.6149 18.0171C14.7661 17.4201 15.6999 16.6589 16.4165 15.7335Z" fill="#15171A"/>
</svg>
