<svg width="30" height="30" viewBox="0 0 30 30" fill="none" xmlns="http://www.w3.org/2000/svg">
<g clip-path="url(#clip0_156_2653)">
<path d="M21.0222 10.6287L13.4148 16.8469L13.0568 17.1401C12.9782 17.2024 12.9268 17.2929 12.9136 17.3924L12.8335 18.0537L12.6136 19.9117C12.6157 19.9343 12.6086 19.9568 12.5941 19.9742C12.5796 19.9916 12.5587 20.0025 12.5361 20.0046C12.5135 20.0066 12.491 19.9996 12.4736 19.985C12.4561 19.9705 12.4452 19.9496 12.4432 19.927L11.8244 18.0691L11.1852 16.1685C11.158 16.0833 11.1614 15.9913 11.1951 15.9084C11.2287 15.8256 11.2904 15.7571 11.3693 15.7151L19.2852 11.1776L20.775 10.3253C20.9915 10.1992 21.2131 10.4719 21.0222 10.6287Z" fill="#FE3C3B"/>
<path d="M25.9091 0H4.09091C3.00593 0 1.96539 0.431005 1.1982 1.1982C0.431005 1.96539 0 3.00593 0 4.09091L0 25.9091C0 26.9941 0.431005 28.0346 1.1982 28.8018C1.96539 29.569 3.00593 30 4.09091 30H25.9091C26.9941 30 28.0346 29.569 28.8018 28.8018C29.569 28.0346 30 26.9941 30 25.9091V4.09091C30 3.00593 29.569 1.96539 28.8018 1.1982C28.0346 0.431005 26.9941 0 25.9091 0ZM24.3563 8.68295L21.4278 21.6222C21.2898 22.229 20.5193 22.5034 19.979 22.1335L15.5574 19.1335L13.3057 21.2625C13.2139 21.3487 13.1024 21.4111 12.981 21.4444C12.8596 21.4778 12.7319 21.481 12.6089 21.4538C12.486 21.4265 12.3716 21.3698 12.2755 21.2883C12.1795 21.2069 12.1048 21.1032 12.058 20.9864L11.2449 18.6L10.4318 16.2136L6.0733 15.0205C5.95143 14.9938 5.84177 14.9277 5.76136 14.8324C5.68096 14.737 5.63431 14.6178 5.62867 14.4931C5.62303 14.3685 5.65872 14.2456 5.73019 14.1433C5.80166 14.0411 5.9049 13.9653 6.02386 13.9278L22.8614 7.86136L23.1716 7.75057C23.8244 7.52216 24.4994 8.05057 24.3563 8.68295Z" fill="#FE3C3B"/>
</g>
<defs>
<clipPath id="clip0_156_2653">
<rect width="30" height="30" rx="3" fill="white"/>
</clipPath>
</defs>
</svg>
