<svg width="30" height="30" viewBox="0 0 30 30" fill="none" xmlns="http://www.w3.org/2000/svg">
<g clip-path="url(#clip0_156_2651)">
<path d="M27.8947 2.10527C25.7895 0 22.4016 0 15.6252 0H14.3748C7.59844 0 4.21055 0 2.10527 2.10527C0 4.21055 0 7.59844 0 14.3748V15.6252C0 22.4016 0 25.7895 2.10527 27.8947C4.21055 30 7.59844 30 14.3748 30H15.6252C22.4016 30 25.7895 30 27.8947 27.8947C30 25.7895 30 22.4016 30 15.6252V14.3748C30 7.59844 30 4.21055 27.8947 2.10527ZM24.3791 21.2502H22.1912C21.3568 21.2502 21.1125 20.5846 19.6289 19.1016C18.3305 17.85 17.7744 17.6877 17.4498 17.6877C17.0092 17.6877 16.8773 17.8125 16.8773 18.4377V20.3994C16.8773 20.9373 16.7057 21.2502 15.3146 21.2502C12.9967 21.2502 10.449 19.8428 8.64141 17.2477C5.9291 13.4467 5.1873 10.5732 5.1873 9.99375C5.1873 9.66914 5.3127 9.375 5.9373 9.375H8.12578C8.68476 9.375 8.89512 9.61992 9.10488 10.2252C10.1748 13.3418 11.9795 16.0658 12.7213 16.0658C12.999 16.0658 13.1268 15.9375 13.1268 15.2314V12.01C13.0453 10.527 12.2572 10.4051 12.2572 9.87773C12.2572 9.6334 12.4664 9.375 12.8139 9.375H16.2521C16.7162 9.375 16.8773 9.62285 16.8773 10.1789V14.5131C16.8773 14.976 17.0789 15.1383 17.2178 15.1383C17.4961 15.1383 17.7281 14.976 18.2379 14.4662C19.8141 12.7049 20.9268 9.99375 20.9268 9.99375C21.0662 9.66914 21.3223 9.375 21.8789 9.375H24.0668C24.7283 9.375 24.8678 9.71543 24.7283 10.1789C24.45 11.4539 21.7846 15.208 21.7846 15.208C21.5525 15.5789 21.46 15.7641 21.7846 16.1812C22.0166 16.5059 22.7812 17.1545 23.291 17.7574C24.2309 18.8145 24.9393 19.7062 25.1367 20.3209C25.3172 20.9373 25.0043 21.2502 24.3791 21.2502Z" fill="#FE3C3B"/>
</g>
<defs>
<clipPath id="clip0_156_2651">
<rect width="30" height="30" fill="white"/>
</clipPath>
</defs>
</svg>
