<svg width="30" height="30" viewBox="0 0 30 30" fill="none" xmlns="http://www.w3.org/2000/svg">
<g clip-path="url(#clip0_156_2652)">
<path d="M15.1546 7.10156C10.8961 7.10156 7.44647 10.5274 7.44647 14.7621C7.44647 16.4275 7.99366 17.9977 8.92149 19.2586L7.94608 22.1135L10.9199 21.1618C12.1332 21.9707 13.6082 22.4227 15.1784 22.4227C19.437 22.4227 22.9104 18.9969 22.9104 14.7621C22.8866 10.5274 19.4132 7.10156 15.1546 7.10156ZM19.6749 17.9263C19.4845 18.4497 18.5567 18.9493 18.1523 18.9969C17.7478 19.0445 17.7478 19.33 15.4401 18.4497C13.1562 17.5457 11.705 15.238 11.586 15.0714C11.4671 14.9287 10.6582 13.8581 10.6582 12.7637C10.6582 11.6694 11.2292 11.1222 11.4433 10.9081C11.6574 10.6939 11.8953 10.6226 12.0381 10.6226C12.1808 10.6226 12.3473 10.6464 12.4663 10.6464C12.609 10.6464 12.7756 10.575 12.9659 11.027C13.1562 11.479 13.6082 12.5734 13.6558 12.6924C13.7034 12.8113 13.751 12.9303 13.6796 13.073C13.6082 13.2158 13.5607 13.3109 13.4655 13.4537C13.3466 13.5726 13.2276 13.7392 13.1324 13.8343C13.0135 13.9533 12.8945 14.0722 13.0373 14.2863C13.18 14.5005 13.632 15.238 14.2982 15.8327C15.1546 16.594 15.8921 16.8319 16.1063 16.9509C16.3204 17.0698 16.4631 17.0461 16.5821 16.9033C16.7248 16.7606 17.1531 16.261 17.2958 16.0231C17.4385 15.8089 17.6051 15.8327 17.7954 15.9041C18.0095 15.9755 19.1039 16.5227 19.3418 16.6416C19.5559 16.7606 19.7224 16.8081 19.77 16.9033C19.8414 16.9509 19.8414 17.4029 19.6749 17.9263Z" fill="#FE3C3B"/>
<path d="M22.4584 0.0117188H7.51784C3.37827 0.0117188 0 3.38999 0 7.52956V22.4939C0 26.6097 3.37827 29.9879 7.51784 29.9879H22.4822C26.6217 29.9879 30 26.6097 30 22.4701V7.52956C29.9762 3.38999 26.5979 0.0117188 22.4584 0.0117188ZM15.1546 23.8737C13.5369 23.8737 12.0381 23.4693 10.7058 22.7318L5.61459 24.3495L7.27994 19.4725C6.44726 18.0926 5.97145 16.4748 5.97145 14.7619C5.97145 9.7183 10.0872 5.6501 15.1546 5.6501C20.222 5.6501 24.3378 9.7183 24.3378 14.7619C24.3378 19.8055 20.222 23.8737 15.1546 23.8737Z" fill="#FE3C3B"/>
</g>
<defs>
<clipPath id="clip0_156_2652">
<rect width="30" height="30" fill="white"/>
</clipPath>
</defs>
</svg>
