<svg width="30" height="30" viewBox="0 0 30 30" fill="none" xmlns="http://www.w3.org/2000/svg">
<g clip-path="url(#clip0_457_48962)">
<path d="M21.0231 10.6279L13.4157 16.8461L13.0577 17.1392C12.9791 17.2016 12.9278 17.292 12.9146 17.3915L12.8345 18.0529L12.6146 19.9108C12.6166 19.9334 12.6096 19.9559 12.595 19.9733C12.5805 19.9908 12.5596 20.0017 12.537 20.0037C12.5144 20.0058 12.4919 19.9987 12.4745 19.9842C12.4571 19.9696 12.4461 19.9488 12.4441 19.9262L11.8254 18.0682L11.1862 16.1676C11.1589 16.0825 11.1624 15.9904 11.196 15.9076C11.2297 15.8247 11.2913 15.7563 11.3702 15.7142L19.2862 11.1767L20.7759 10.3245C20.9924 10.1983 21.214 10.4711 21.0231 10.6279Z" fill="#3E9CE5"/>
<path d="M25.9091 0H4.09091C3.00593 0 1.96539 0.431005 1.1982 1.1982C0.431005 1.96539 0 3.00593 0 4.09091L0 25.9091C0 26.9941 0.431005 28.0346 1.1982 28.8018C1.96539 29.569 3.00593 30 4.09091 30H25.9091C26.9941 30 28.0346 29.569 28.8018 28.8018C29.569 28.0346 30 26.9941 30 25.9091V4.09091C30 3.00593 29.569 1.96539 28.8018 1.1982C28.0346 0.431005 26.9941 0 25.9091 0ZM24.3563 8.68295L21.4278 21.6222C21.2898 22.229 20.5193 22.5034 19.979 22.1335L15.5574 19.1335L13.3057 21.2625C13.2139 21.3487 13.1024 21.4111 12.981 21.4444C12.8596 21.4778 12.7319 21.481 12.6089 21.4538C12.486 21.4265 12.3716 21.3698 12.2755 21.2883C12.1795 21.2069 12.1048 21.1032 12.058 20.9864L11.2449 18.6L10.4318 16.2136L6.0733 15.0205C5.95143 14.9938 5.84177 14.9277 5.76136 14.8324C5.68096 14.737 5.63431 14.6178 5.62867 14.4931C5.62303 14.3685 5.65872 14.2456 5.73019 14.1433C5.80166 14.0411 5.9049 13.9653 6.02386 13.9278L22.8614 7.86136L23.1716 7.75057C23.8244 7.52216 24.4994 8.05057 24.3563 8.68295Z" fill="#3E9CE5"/>
</g>
<defs>
<clipPath id="clip0_457_48962">
<rect width="30" height="30" rx="3" fill="white"/>
</clipPath>
</defs>
</svg>
