<svg width="30" height="30" viewBox="0 0 30 30" fill="none" xmlns="http://www.w3.org/2000/svg">
<g clip-path="url(#clip0_457_48961)">
<path d="M15.1535 7.10156C10.895 7.10156 7.44531 10.5274 7.44531 14.7621C7.44531 16.4275 7.9925 17.9977 8.92033 19.2586L7.94492 22.1135L10.9187 21.1618C12.1321 21.9707 13.6071 22.4227 15.1773 22.4227C19.4358 22.4227 22.9092 18.9969 22.9092 14.7621C22.8854 10.5274 19.412 7.10156 15.1535 7.10156ZM19.6737 17.9263C19.4834 18.4497 18.5555 18.9493 18.1511 18.9969C17.7467 19.0445 17.7467 19.33 15.439 18.4497C13.1551 17.5457 11.7038 15.238 11.5849 15.0714C11.4659 14.9287 10.657 13.8581 10.657 12.7637C10.657 11.6694 11.228 11.1222 11.4421 10.9081C11.6563 10.6939 11.8942 10.6226 12.0369 10.6226C12.1797 10.6226 12.3462 10.6464 12.4651 10.6464C12.6079 10.6464 12.7744 10.575 12.9647 11.027C13.1551 11.479 13.6071 12.5734 13.6547 12.6924C13.7023 12.8113 13.7498 12.9303 13.6785 13.073C13.6071 13.2158 13.5595 13.3109 13.4643 13.4537C13.3454 13.5726 13.2264 13.7392 13.1313 13.8343C13.0123 13.9533 12.8934 14.0722 13.0361 14.2863C13.1789 14.5005 13.6309 15.238 14.297 15.8327C15.1535 16.594 15.891 16.8319 16.1051 16.9509C16.3192 17.0698 16.462 17.0461 16.5809 16.9033C16.7237 16.7606 17.1519 16.261 17.2946 16.0231C17.4374 15.8089 17.6039 15.8327 17.7942 15.9041C18.0084 15.9755 19.1027 16.5227 19.3406 16.6416C19.5548 16.7606 19.7213 16.8081 19.7689 16.9033C19.8402 16.9509 19.8402 17.4029 19.6737 17.9263Z" fill="#64D35A"/>
<path d="M22.4584 0.0118408H7.51784C3.37827 0.0118408 0 3.39011 0 7.52968V22.494C0 26.6098 3.37827 29.9881 7.51784 29.9881H22.4822C26.6217 29.9881 30 26.6098 30 22.4702V7.52968C29.9762 3.39011 26.5979 0.0118408 22.4584 0.0118408ZM15.1546 23.8739C13.5369 23.8739 12.0381 23.4694 10.7058 22.7319L5.61459 24.3497L7.27994 19.4726C6.44726 18.0927 5.97145 16.475 5.97145 14.762C5.97145 9.71842 10.0872 5.65022 15.1546 5.65022C20.222 5.65022 24.3378 9.71842 24.3378 14.762C24.3378 19.8057 20.222 23.8739 15.1546 23.8739Z" fill="#64D35A"/>
</g>
<defs>
<clipPath id="clip0_457_48961">
<rect width="30" height="30" fill="white"/>
</clipPath>
</defs>
</svg>
