<svg width="27" height="26" viewBox="0 0 27 26" fill="none" xmlns="http://www.w3.org/2000/svg">
<g clip-path="url(#clip0_231_8953)">
<path fill-rule="evenodd" clip-rule="evenodd" d="M13.5 24.375C16.5168 24.375 19.4101 23.1766 21.5433 21.0433C23.6766 18.9101 24.875 16.0168 24.875 13C24.875 9.98316 23.6766 7.08989 21.5433 4.95666C19.4101 2.82343 16.5168 1.625 13.5 1.625C10.4832 1.625 7.58989 2.82343 5.45666 4.95666C3.32343 7.08989 2.125 9.98316 2.125 13C2.125 16.0168 3.32343 18.9101 5.45666 21.0433C7.58989 23.1766 10.4832 24.375 13.5 24.375ZM13.5 26C16.9478 26 20.2544 24.6304 22.6924 22.1924C25.1304 19.7544 26.5 16.4478 26.5 13C26.5 9.55219 25.1304 6.24558 22.6924 3.80761C20.2544 1.36964 16.9478 0 13.5 0C10.0522 0 6.74558 1.36964 4.30761 3.80761C1.86964 6.24558 0.5 9.55219 0.5 13C0.5 16.4478 1.86964 19.7544 4.30761 22.1924C6.74558 24.6304 10.0522 26 13.5 26Z" fill="#FE3C3B"/>
<path fill-rule="evenodd" clip-rule="evenodd" d="M13.5002 19.4995C13.7157 19.4995 13.9223 19.4139 14.0747 19.2615C14.2271 19.1092 14.3127 18.9025 14.3127 18.687V9.27337L17.7999 12.7622C17.8755 12.8378 17.9651 12.8977 18.0638 12.9386C18.1625 12.9795 18.2683 13.0005 18.3752 13.0005C18.482 13.0005 18.5878 12.9795 18.6865 12.9386C18.7852 12.8977 18.8749 12.8378 18.9504 12.7622C19.026 12.6867 19.0859 12.597 19.1268 12.4983C19.1677 12.3996 19.1887 12.2938 19.1887 12.187C19.1887 12.0802 19.1677 11.9744 19.1268 11.8757C19.0859 11.777 19.026 11.6873 18.9504 11.6117L14.0754 6.73675C13.9999 6.66108 13.9103 6.60105 13.8116 6.56009C13.7129 6.51913 13.607 6.49805 13.5002 6.49805C13.3933 6.49805 13.2875 6.51913 13.1888 6.56009C13.0901 6.60105 13.0004 6.66108 12.9249 6.73675L8.04992 11.6117C7.89736 11.7643 7.81165 11.9712 7.81165 12.187C7.81165 12.4028 7.89736 12.6097 8.04992 12.7622C8.20249 12.9148 8.40941 13.0005 8.62517 13.0005C8.84093 13.0005 9.04786 12.9148 9.20042 12.7622L12.6877 9.27337V18.687C12.6877 18.9025 12.7733 19.1092 12.9256 19.2615C13.078 19.4139 13.2847 19.4995 13.5002 19.4995Z" fill="#FE3C3B"/>
</g>
<defs>
<clipPath id="clip0_231_8953">
<rect width="26" height="26" fill="white" transform="translate(0.5)"/>
</clipPath>
</defs>
</svg>
