<svg width="17" height="16" viewBox="0 0 17 16" fill="none" xmlns="http://www.w3.org/2000/svg">
<path fill-rule="evenodd" clip-rule="evenodd" d="M5.14592 1.64689C5.19236 1.60033 5.24754 1.56339 5.30828 1.53818C5.36903 1.51297 5.43415 1.5 5.49992 1.5C5.56568 1.5 5.63081 1.51297 5.69155 1.53818C5.7523 1.56339 5.80747 1.60033 5.85392 1.64689L11.8539 7.64689C11.9005 7.69334 11.9374 7.74851 11.9626 7.80926C11.9878 7.87001 12.0008 7.93513 12.0008 8.00089C12.0008 8.06666 11.9878 8.13178 11.9626 8.19253C11.9374 8.25327 11.9005 8.30845 11.8539 8.35489L5.85392 14.3549C5.76003 14.4488 5.63269 14.5015 5.49992 14.5015C5.36714 14.5015 5.2398 14.4488 5.14592 14.3549C5.05203 14.261 4.99929 14.1337 4.99929 14.0009C4.99929 13.8681 5.05203 13.7408 5.14592 13.6469L10.7929 8.00089L5.14592 2.35489C5.09935 2.30845 5.06241 2.25327 5.0372 2.19253C5.012 2.13178 4.99902 2.06666 4.99902 2.00089C4.99902 1.93513 5.012 1.87001 5.0372 1.80926C5.06241 1.74852 5.09935 1.69334 5.14592 1.64689Z" fill="#15171A"/>
</svg>
