<svg width="22" height="22" viewBox="0 0 22 22" fill="none" xmlns="http://www.w3.org/2000/svg">
<g clip-path="url(#clip0_156_1595)">
<path d="M21.3667 16.4918L18.187 13.3107C17.7599 12.8859 17.1881 12.6518 16.5771 12.6518C15.9412 12.6518 15.3408 12.9022 14.8868 13.3564L13.6491 14.5939C12.6873 14.0593 11.4089 13.324 10.0817 11.9968C8.75607 10.6707 8.0207 9.39608 7.48338 8.42909L8.72231 7.19107C9.64342 6.26804 9.66226 4.78721 8.76444 3.89021L5.58535 0.711022C5.15951 0.284 4.58769 0.0488281 3.9751 0.0488281C3.35341 0.0488281 2.7653 0.288186 2.31397 0.723854C2.04094 0.943736 0.670776 2.15327 0.160115 4.64769C-0.554864 8.13913 1.08788 11.4984 5.83026 16.2427C11.1279 21.5387 15.6505 21.9504 16.9104 21.9504C17.1727 21.9504 17.331 21.9342 17.3732 21.9292C19.8439 21.6396 20.7285 20.5424 21.3744 19.7413C22.2114 18.7029 22.2084 17.3367 21.3667 16.4918ZM20.3116 18.8844C19.7045 19.6374 19.1311 20.3486 17.2144 20.5733C17.2134 20.5734 17.1086 20.5851 16.9104 20.5851C15.7832 20.5851 11.7221 20.2023 6.79561 15.2774C2.42228 10.9022 0.887291 7.90186 1.49752 4.92145C1.94292 2.74575 3.12542 1.82099 3.17138 1.78586L3.21216 1.75573L3.24792 1.71987C3.44533 1.52265 3.70352 1.41399 3.97501 1.41399C4.22219 1.41399 4.45081 1.50664 4.61936 1.67573L7.79918 4.85565C8.16505 5.22114 8.14557 5.83619 7.75632 6.22627L6.35521 7.62619L6.33218 7.65031C5.96705 8.05249 6.01001 8.596 6.21114 8.94994C6.79151 9.99729 7.58649 11.4317 9.1162 12.9619C10.6408 14.4865 12.0731 15.2808 13.1176 15.8601C13.2221 15.9188 13.438 16.0173 13.7082 16.0173C14.0273 16.0173 14.3203 15.8822 14.5372 15.636L15.8521 14.3215C16.0484 14.1251 16.3058 14.0169 16.5769 14.0169C16.8246 14.0169 17.0544 14.1098 17.2226 14.2771L20.4002 17.4561C20.8039 17.8612 20.6372 18.4805 20.3116 18.8844ZM13.3283 3.39356C14.5011 3.52853 15.8821 4.23896 16.8465 5.2034C17.8198 6.17676 18.532 7.57177 18.6606 8.75736C18.6814 8.93624 18.7721 9.09963 18.9129 9.21193C19.0537 9.32423 19.2332 9.37634 19.4122 9.35692C19.5912 9.33749 19.7553 9.2481 19.8688 9.10822C19.9822 8.96833 20.0357 8.78929 20.0177 8.61011C19.8551 7.11144 19.0098 5.4362 17.8118 4.23814C16.625 3.05127 14.9669 2.20806 13.4843 2.03741C13.11 1.994 12.7714 2.26303 12.7282 2.63744C12.7075 2.81728 12.7591 2.99797 12.8717 3.13977C12.9842 3.28156 13.1484 3.37285 13.3283 3.39356ZM12.6906 6.25293C13.3249 6.32601 14.2028 6.79654 14.7779 7.37163C15.3579 7.95174 15.8293 8.838 15.8988 9.47917C15.9077 9.56887 15.9343 9.65592 15.977 9.73528C16.0198 9.81464 16.0778 9.88475 16.1478 9.94156C16.2178 9.99837 16.2984 10.0408 16.3848 10.0663C16.4713 10.0918 16.562 10.0999 16.6516 10.0902C16.7412 10.0805 16.828 10.0531 16.907 10.0096C16.986 9.9662 17.0556 9.90753 17.1118 9.83704C17.1679 9.76655 17.2096 9.68563 17.2344 9.59894C17.2591 9.51226 17.2664 9.42153 17.2559 9.332C17.1372 8.23733 16.4105 7.07376 15.743 6.40629C15.0816 5.74473 13.9294 5.02147 12.8466 4.89669C12.4718 4.8531 12.1336 5.12222 12.0904 5.49663C12.0698 5.6765 12.1214 5.85721 12.2339 5.99903C12.3464 6.14085 12.5107 6.23218 12.6906 6.25293Z" fill="#15171A"/>
</g>
<defs>
<clipPath id="clip0_156_1595">
<rect width="22" height="22" fill="white"/>
</clipPath>
</defs>
</svg>
