<svg width="22" height="22" viewBox="0 0 22 22" fill="none" xmlns="http://www.w3.org/2000/svg">
<g clip-path="url(#clip0_156_1586)">
<path d="M21.5692 1.80179C21.3951 1.64247 21.1817 1.53236 20.951 1.48279C20.7203 1.43321 20.4805 1.44595 20.2563 1.5197L0.912279 7.89631C0.385096 8.07007 0.0275957 8.54067 0.00151368 9.09509C-0.0245254 9.64956 0.287213 10.1516 0.795705 10.3742L5.57963 12.4673L7.02299 19.1616C7.08294 19.4397 7.22409 19.6874 7.52311 19.7636C7.82556 19.8406 8.03925 19.6753 8.26492 19.5064L11.815 16.8481L15.9653 20.2443C16.207 20.4422 16.5025 20.5454 16.8038 20.5454C16.9497 20.5453 17.0947 20.5213 17.2328 20.4742C17.6697 20.3261 17.9935 19.9696 18.099 19.5206L21.9648 3.08501C22.0187 2.85526 22.0104 2.6153 21.9409 2.38978C21.8714 2.16427 21.7431 1.96132 21.5692 1.80179ZM8.57417 13.6667C8.5718 13.6723 8.56948 13.6786 8.56729 13.6861L7.76704 16.482L6.87398 12.34L13.0149 8.92811L8.72146 13.4174C8.65413 13.4883 8.60377 13.5735 8.57417 13.6667ZM8.82815 17.4705L9.19163 16.2005L9.53929 14.9858L10.785 16.0052L8.82815 17.4705ZM20.707 2.78913L16.8413 19.2248C16.8394 19.2329 16.8368 19.2442 16.8179 19.2506C16.7992 19.2569 16.79 19.2497 16.7836 19.2444L12.2422 15.5281L12.2418 15.5278L10.1377 13.8059L16.8977 6.73765C17.0045 6.62594 17.0678 6.47962 17.0759 6.32526C17.0841 6.1709 17.0366 6.01873 16.9422 5.89637C16.8477 5.774 16.7125 5.68955 16.5611 5.65837C16.4097 5.62719 16.2521 5.65134 16.117 5.72643L6.10737 11.2878L1.31365 9.1904C1.29904 9.18404 1.29101 9.18047 1.29217 9.15576C1.29333 9.13114 1.30166 9.12835 1.31679 9.12336L20.6608 2.7468C20.6702 2.74375 20.6807 2.74023 20.6963 2.75441C20.7118 2.76867 20.7093 2.7795 20.707 2.78913Z" fill="#15171A"/>
</g>
<defs>
<clipPath id="clip0_156_1586">
<rect width="22" height="22" fill="white"/>
</clipPath>
</defs>
</svg>
