<svg width="22" height="22" viewBox="0 0 22 22" fill="none" xmlns="http://www.w3.org/2000/svg">
<g clip-path="url(#clip0_156_1587)">
<path d="M0 22L1.2681 15.7635C0.524767 14.2594 0.141804 12.6029 0.149539 10.9252C0.149539 4.90342 5.05301 0 11.0747 0C17.0968 0 22 4.90342 22 10.9252C22 16.947 17.0968 21.8504 11.0747 21.8504C9.39871 21.8551 7.74454 21.47 6.24298 20.7254L0 22ZM6.39251 19.633L6.55503 19.7174C7.95187 20.4396 9.50225 20.8144 11.0747 20.81C16.5244 20.81 20.9595 16.3748 20.9595 10.9252C20.9595 5.47558 16.5244 1.04043 11.0747 1.04043C5.62507 1.04043 1.18997 5.47558 1.18997 10.9252C1.18557 12.4977 1.56039 14.0481 2.28264 15.4449L2.36721 15.6074L1.33307 20.6669L6.39251 19.633Z" fill="#15171A"/>
<path d="M14.1572 17.1686H13.6759C8.79858 17.1686 4.83176 13.2018 4.83176 8.32446V7.84321C4.83137 7.43339 4.91221 7.02755 5.06961 6.64916C5.227 6.27076 5.45783 5.92732 5.74874 5.63866L6.178 5.20946C6.84765 4.53956 8.01821 4.53956 8.68811 5.20946L10.0343 6.54901C10.1997 6.7134 10.3309 6.90899 10.4202 7.12444C10.5095 7.33989 10.5551 7.57093 10.5544 7.80414C10.5529 8.27465 10.366 8.72561 10.0343 9.05927L9.91066 9.18277C9.78453 9.30926 9.68458 9.45937 9.61651 9.62453C9.54845 9.78968 9.51361 9.96663 9.51399 10.1453C9.5154 10.5056 9.65778 10.8511 9.91066 11.1078L10.8861 12.0832C11.3935 12.5904 12.3038 12.5904 12.8176 12.0832L12.9411 11.9596C13.6109 11.2897 14.7815 11.2897 15.4514 11.9596L16.7974 13.3123C17.4905 14.0056 17.4905 15.1293 16.7974 15.8224L16.3684 16.2516C16.0789 16.5433 15.7344 16.7746 15.3548 16.932C14.9752 17.0894 14.5681 17.1699 14.1572 17.1686ZM7.43293 5.72309C7.23795 5.72285 7.05086 5.80008 6.91281 5.93779L6.48361 6.36704C6.28967 6.55948 6.13578 6.78845 6.03084 7.0407C5.92589 7.29296 5.87197 7.56351 5.87219 7.83672V8.32446C5.87585 12.6327 9.36767 16.1246 13.6759 16.1282H14.1572C14.4304 16.1284 14.7009 16.0745 14.9532 15.9695C15.2054 15.8646 15.4344 15.7107 15.6268 15.5168L16.0561 15.0875C16.1245 15.0193 16.1788 14.9383 16.2159 14.849C16.2529 14.7598 16.272 14.6641 16.272 14.5674C16.272 14.3721 16.1944 14.185 16.0561 14.0471L14.7165 12.7009C14.4253 12.4235 13.9674 12.4235 13.6759 12.7009L13.5525 12.8246C12.613 13.7631 11.0908 13.7631 10.1513 12.8246L9.17584 11.8491C8.72609 11.3961 8.47365 10.7836 8.47356 10.1453C8.47306 9.83004 8.53485 9.51782 8.65537 9.22654C8.77589 8.93527 8.95277 8.67067 9.17584 8.44795L9.29948 8.32446C9.43653 8.18591 9.51357 7.99902 9.51399 7.80414C9.51438 7.60905 9.43722 7.42196 9.29948 7.28383L7.95325 5.93779C7.81513 5.80008 7.62797 5.72285 7.43293 5.72309Z" fill="#15171A"/>
</g>
<defs>
<clipPath id="clip0_156_1587">
<rect width="22" height="22" fill="white"/>
</clipPath>
</defs>
</svg>
