<svg width="18" height="21" viewBox="0 0 18 21" fill="none" xmlns="http://www.w3.org/2000/svg">
<path d="M16.0714 9.1875H15.1071V6.23438C15.1071 2.79727 12.367 0 9 0C5.63304 0 2.89286 2.79727 2.89286 6.23438V9.1875H1.92857C0.863839 9.1875 0 10.0693 0 11.1562V19.0312C0 20.1182 0.863839 21 1.92857 21H16.0714C17.1362 21 18 20.1182 18 19.0312V11.1562C18 10.0693 17.1362 9.1875 16.0714 9.1875ZM11.8929 9.1875H6.10714V6.23438C6.10714 4.60605 7.40491 3.28125 9 3.28125C10.5951 3.28125 11.8929 4.60605 11.8929 6.23438V9.1875Z" fill="#CBD3DA"/>
</svg>
