<svg width="18" height="17" viewBox="0 0 18 17" fill="none" xmlns="http://www.w3.org/2000/svg">
<path fill-rule="evenodd" clip-rule="evenodd" d="M17.1097 0.389903C16.9556 0.235956 16.76 0.130322 16.5467 0.0859576C16.3335 0.0415935 16.112 0.0604287 15.9093 0.140153L1.27022 5.9069C1.05137 5.99296 0.865227 6.14585 0.7383 6.34382C0.611372 6.5418 0.550124 6.77476 0.563272 7.00956C0.576421 7.24437 0.663295 7.46904 0.811532 7.6516C0.959769 7.83417 1.16181 7.96532 1.38891 8.0264L7.75529 9.74428L9.47316 16.1107C9.53424 16.3378 9.6654 16.5398 9.84797 16.688C10.0305 16.8363 10.2552 16.9231 10.49 16.9363C10.7248 16.9494 10.9578 16.8882 11.1557 16.7613C11.3537 16.6343 11.5066 16.4482 11.5927 16.2293L17.3594 1.59028C17.4391 1.3876 17.458 1.16606 17.4136 0.952833C17.3692 0.739606 17.2636 0.543963 17.1097 0.389903ZM10.5537 15.7973L8.84035 9.44784C8.78928 9.25924 8.68971 9.08731 8.55155 8.94914C8.41339 8.81098 8.24145 8.71141 8.05285 8.66034L1.70222 6.94584L16.3064 1.19315L10.5537 15.7973Z" fill="#6C757D"/>
</svg>
