<svg width="25" height="24" viewBox="0 0 25 24" fill="none" xmlns="http://www.w3.org/2000/svg">
<g clip-path="url(#clip0_149_5448)">
<path fill-rule="evenodd" clip-rule="evenodd" d="M10.7 19.2C5.72944 19.2 1.7 15.1706 1.7 10.2C1.7 5.22944 5.72944 1.2 10.7 1.2C15.6706 1.2 19.7 5.22944 19.7 10.2C19.7 15.1706 15.6706 19.2 10.7 19.2ZM0.5 10.2C0.5 4.56669 5.06669 0 10.7 0C16.3333 0 20.9 4.56669 20.9 10.2C20.9 12.8007 19.9266 15.1742 18.3243 16.9758L24.3243 22.9757C24.5586 23.2101 24.5586 23.5899 24.3243 23.8243C24.0899 24.0586 23.7101 24.0586 23.4757 23.8243L17.4758 17.8243C15.6742 19.4266 13.3007 20.4 10.7 20.4C5.06669 20.4 0.5 15.8333 0.5 10.2Z" fill="#6C757D" stroke="#6C757D" stroke-width="0.2" stroke-linecap="round"/>
</g>
<defs>
<clipPath id="clip0_149_5448">
<rect width="24" height="24" fill="white" transform="translate(0.5)"/>
</clipPath>
</defs>
</svg>
